M48
;GenerationSoftware,Autodesk,EAGLE,8.6.0*%
;CreationDate,2018-02-05T11:27:00Z*%
FMAT,2
ICI,OFF
INCH,TZ,000.000
T7C0.014
T6C0.022
T5C0.024
T4C0.031
T3C0.039
T2C0.047
T1C0.052
%
G90
M72
T1
X213Y105
X213Y971
T2
X1119Y188
X919Y188
X719Y188
X519Y188
X1319Y188
T3
X1064Y494
X1064Y966
X505Y730
T4
X118Y2316
X724Y2316
X323Y1159
X519Y1159
X584Y966
X584Y494
T5
X1113Y1163
X1013Y1163
T6
X1299Y1378
X1477Y1378
X1299Y1122
X1188Y2363
X1088Y2363
X988Y2363
X888Y2363
X1299Y2122
X1477Y2122
X1299Y2378
X1477Y2378
X1477Y1122
T7
X1188Y613
X425Y438
X1475Y413
X63Y1275
X925Y2200
X1188Y2243
X400Y2078
X338Y1738
X225Y1688
X825Y2300
X575Y1388
X1256Y1250
X1338Y550
X213Y1400
X163Y1913
X488Y2313
X638Y2250
X838Y1200
X950Y2163
M30