G04 EAGLE Gerber X2 export*
G75*
%MOIN*%
%FSLAX25Y25*%
%LPD*%
%AMOC8*
5,1,8,0,0,1.08239X$1,22.5*%
G01*
%ADD10C,0.005000*%
%ADD11C,0.002000*%
%ADD12C,0.003000*%
%ADD13C,0.006000*%
%ADD14R,0.035000X1.040000*%
%ADD15C,0.020000*%


D10*
X87017Y149183D02*
X88656Y145250D01*
X90294Y149183D01*
X88656Y151710D02*
X87017Y155643D01*
X90294Y155643D02*
X88656Y151710D01*
X90950Y158307D02*
X85050Y158307D01*
X87672Y158307D02*
X87672Y161585D01*
X85050Y161585D02*
X90950Y161585D01*
X90950Y163869D02*
X85050Y165836D01*
X90950Y167802D01*
X89475Y167311D02*
X89475Y164361D01*
X90950Y171673D02*
X90948Y171744D01*
X90942Y171815D01*
X90933Y171885D01*
X90919Y171955D01*
X90902Y172024D01*
X90881Y172092D01*
X90857Y172158D01*
X90829Y172223D01*
X90797Y172287D01*
X90762Y172349D01*
X90724Y172409D01*
X90683Y172466D01*
X90638Y172522D01*
X90591Y172575D01*
X90541Y172625D01*
X90488Y172672D01*
X90432Y172717D01*
X90375Y172758D01*
X90315Y172796D01*
X90253Y172831D01*
X90189Y172863D01*
X90124Y172891D01*
X90058Y172915D01*
X89990Y172936D01*
X89921Y172953D01*
X89851Y172967D01*
X89781Y172976D01*
X89710Y172982D01*
X89639Y172984D01*
X90950Y171673D02*
X90948Y171569D01*
X90942Y171465D01*
X90932Y171361D01*
X90919Y171258D01*
X90901Y171155D01*
X90880Y171053D01*
X90855Y170952D01*
X90826Y170852D01*
X90793Y170753D01*
X90756Y170656D01*
X90716Y170560D01*
X90673Y170465D01*
X90626Y170372D01*
X90575Y170281D01*
X90521Y170192D01*
X90464Y170105D01*
X90403Y170021D01*
X90339Y169938D01*
X90273Y169858D01*
X90203Y169781D01*
X90130Y169706D01*
X86361Y169871D02*
X86290Y169873D01*
X86219Y169879D01*
X86149Y169888D01*
X86079Y169902D01*
X86010Y169919D01*
X85942Y169940D01*
X85876Y169964D01*
X85811Y169992D01*
X85747Y170024D01*
X85685Y170059D01*
X85625Y170097D01*
X85568Y170138D01*
X85512Y170183D01*
X85459Y170230D01*
X85409Y170280D01*
X85362Y170333D01*
X85317Y170389D01*
X85276Y170446D01*
X85238Y170506D01*
X85203Y170568D01*
X85171Y170632D01*
X85143Y170697D01*
X85119Y170763D01*
X85098Y170831D01*
X85081Y170900D01*
X85067Y170970D01*
X85058Y171040D01*
X85052Y171111D01*
X85050Y171182D01*
X85052Y171281D01*
X85058Y171380D01*
X85068Y171478D01*
X85082Y171576D01*
X85100Y171673D01*
X85121Y171769D01*
X85147Y171865D01*
X85176Y171959D01*
X85209Y172052D01*
X85246Y172144D01*
X85287Y172234D01*
X85331Y172323D01*
X85378Y172409D01*
X85429Y172494D01*
X85484Y172577D01*
X85542Y172657D01*
X87509Y170526D02*
X87472Y170467D01*
X87432Y170410D01*
X87390Y170356D01*
X87345Y170304D01*
X87297Y170254D01*
X87246Y170207D01*
X87193Y170162D01*
X87138Y170120D01*
X87081Y170081D01*
X87022Y170046D01*
X86961Y170013D01*
X86898Y169983D01*
X86834Y169957D01*
X86769Y169934D01*
X86703Y169915D01*
X86636Y169899D01*
X86568Y169886D01*
X86499Y169877D01*
X86430Y169872D01*
X86361Y169870D01*
X88491Y172329D02*
X88528Y172388D01*
X88568Y172445D01*
X88610Y172499D01*
X88656Y172551D01*
X88703Y172601D01*
X88754Y172648D01*
X88807Y172693D01*
X88862Y172735D01*
X88919Y172774D01*
X88978Y172810D01*
X89039Y172842D01*
X89102Y172872D01*
X89166Y172898D01*
X89231Y172921D01*
X89297Y172940D01*
X89364Y172956D01*
X89432Y172969D01*
X89501Y172978D01*
X89570Y172983D01*
X89639Y172985D01*
X88492Y172329D02*
X87508Y170526D01*
X89311Y175216D02*
X89232Y175218D01*
X89153Y175224D01*
X89074Y175233D01*
X88996Y175247D01*
X88919Y175264D01*
X88842Y175284D01*
X88767Y175309D01*
X88693Y175337D01*
X88620Y175369D01*
X88549Y175404D01*
X88480Y175442D01*
X88413Y175484D01*
X88348Y175529D01*
X88285Y175577D01*
X88224Y175628D01*
X88166Y175682D01*
X88111Y175739D01*
X88058Y175798D01*
X88009Y175860D01*
X87962Y175924D01*
X87919Y175990D01*
X87879Y176058D01*
X87842Y176129D01*
X87808Y176200D01*
X87779Y176274D01*
X87752Y176349D01*
X87730Y176424D01*
X87711Y176501D01*
X87695Y176579D01*
X87684Y176657D01*
X87676Y176736D01*
X87672Y176815D01*
X87672Y176895D01*
X87676Y176974D01*
X87684Y177053D01*
X87695Y177131D01*
X87711Y177209D01*
X87730Y177286D01*
X87752Y177361D01*
X87779Y177436D01*
X87808Y177510D01*
X87842Y177581D01*
X87879Y177652D01*
X87919Y177720D01*
X87962Y177786D01*
X88009Y177850D01*
X88058Y177912D01*
X88111Y177971D01*
X88166Y178028D01*
X88224Y178082D01*
X88285Y178133D01*
X88348Y178181D01*
X88413Y178226D01*
X88480Y178268D01*
X88549Y178306D01*
X88620Y178341D01*
X88693Y178373D01*
X88767Y178401D01*
X88842Y178426D01*
X88919Y178446D01*
X88996Y178463D01*
X89074Y178477D01*
X89153Y178486D01*
X89232Y178492D01*
X89311Y178494D01*
X89390Y178492D01*
X89469Y178486D01*
X89548Y178477D01*
X89626Y178463D01*
X89703Y178446D01*
X89780Y178426D01*
X89855Y178401D01*
X89929Y178373D01*
X90002Y178341D01*
X90073Y178306D01*
X90142Y178268D01*
X90209Y178226D01*
X90274Y178181D01*
X90337Y178133D01*
X90398Y178082D01*
X90456Y178028D01*
X90511Y177971D01*
X90564Y177912D01*
X90613Y177850D01*
X90660Y177786D01*
X90703Y177720D01*
X90743Y177652D01*
X90780Y177581D01*
X90814Y177510D01*
X90843Y177436D01*
X90870Y177361D01*
X90892Y177286D01*
X90911Y177209D01*
X90927Y177131D01*
X90938Y177053D01*
X90946Y176974D01*
X90950Y176895D01*
X90950Y176815D01*
X90946Y176736D01*
X90938Y176657D01*
X90927Y176579D01*
X90911Y176501D01*
X90892Y176424D01*
X90870Y176349D01*
X90843Y176274D01*
X90814Y176200D01*
X90780Y176129D01*
X90743Y176058D01*
X90703Y175990D01*
X90660Y175924D01*
X90613Y175860D01*
X90564Y175798D01*
X90511Y175739D01*
X90456Y175682D01*
X90398Y175628D01*
X90337Y175577D01*
X90274Y175529D01*
X90209Y175484D01*
X90142Y175442D01*
X90073Y175404D01*
X90002Y175369D01*
X89929Y175337D01*
X89855Y175309D01*
X89780Y175284D01*
X89703Y175264D01*
X89626Y175247D01*
X89548Y175233D01*
X89469Y175224D01*
X89390Y175218D01*
X89311Y175216D01*
X86361Y175544D02*
X86290Y175546D01*
X86219Y175552D01*
X86149Y175561D01*
X86079Y175575D01*
X86010Y175592D01*
X85942Y175613D01*
X85876Y175637D01*
X85811Y175665D01*
X85747Y175697D01*
X85685Y175732D01*
X85625Y175770D01*
X85568Y175811D01*
X85512Y175856D01*
X85459Y175903D01*
X85409Y175953D01*
X85362Y176006D01*
X85317Y176062D01*
X85276Y176119D01*
X85238Y176179D01*
X85203Y176241D01*
X85171Y176305D01*
X85143Y176370D01*
X85119Y176436D01*
X85098Y176504D01*
X85081Y176573D01*
X85067Y176643D01*
X85058Y176713D01*
X85052Y176784D01*
X85050Y176855D01*
X85052Y176926D01*
X85058Y176997D01*
X85067Y177067D01*
X85081Y177137D01*
X85098Y177206D01*
X85119Y177274D01*
X85143Y177340D01*
X85171Y177405D01*
X85203Y177469D01*
X85238Y177531D01*
X85276Y177591D01*
X85317Y177648D01*
X85362Y177704D01*
X85409Y177757D01*
X85459Y177807D01*
X85512Y177854D01*
X85568Y177899D01*
X85625Y177940D01*
X85685Y177978D01*
X85747Y178013D01*
X85811Y178045D01*
X85876Y178073D01*
X85942Y178097D01*
X86010Y178118D01*
X86079Y178135D01*
X86149Y178149D01*
X86219Y178158D01*
X86290Y178164D01*
X86361Y178166D01*
X86432Y178164D01*
X86503Y178158D01*
X86573Y178149D01*
X86643Y178135D01*
X86712Y178118D01*
X86780Y178097D01*
X86846Y178073D01*
X86911Y178045D01*
X86975Y178013D01*
X87037Y177978D01*
X87097Y177940D01*
X87154Y177899D01*
X87210Y177854D01*
X87263Y177807D01*
X87313Y177757D01*
X87360Y177704D01*
X87405Y177648D01*
X87446Y177591D01*
X87484Y177531D01*
X87519Y177469D01*
X87551Y177405D01*
X87579Y177340D01*
X87603Y177274D01*
X87624Y177206D01*
X87641Y177137D01*
X87655Y177067D01*
X87664Y176997D01*
X87670Y176926D01*
X87672Y176855D01*
X87670Y176784D01*
X87664Y176713D01*
X87655Y176643D01*
X87641Y176573D01*
X87624Y176504D01*
X87603Y176436D01*
X87579Y176370D01*
X87551Y176305D01*
X87519Y176241D01*
X87484Y176179D01*
X87446Y176119D01*
X87405Y176062D01*
X87360Y176006D01*
X87313Y175953D01*
X87263Y175903D01*
X87210Y175856D01*
X87154Y175811D01*
X87097Y175770D01*
X87037Y175732D01*
X86975Y175697D01*
X86911Y175665D01*
X86846Y175637D01*
X86780Y175613D01*
X86712Y175592D01*
X86643Y175575D01*
X86573Y175561D01*
X86503Y175552D01*
X86432Y175546D01*
X86361Y175544D01*
X85050Y182719D02*
X85052Y182794D01*
X85058Y182868D01*
X85067Y182942D01*
X85080Y183016D01*
X85097Y183089D01*
X85118Y183161D01*
X85142Y183231D01*
X85170Y183301D01*
X85201Y183369D01*
X85235Y183435D01*
X85273Y183499D01*
X85314Y183562D01*
X85359Y183622D01*
X85406Y183680D01*
X85456Y183735D01*
X85509Y183788D01*
X85564Y183838D01*
X85622Y183885D01*
X85682Y183930D01*
X85745Y183971D01*
X85809Y184009D01*
X85875Y184043D01*
X85943Y184074D01*
X86013Y184102D01*
X86083Y184126D01*
X86155Y184147D01*
X86228Y184164D01*
X86302Y184177D01*
X86376Y184186D01*
X86450Y184192D01*
X86525Y184194D01*
X85050Y182719D02*
X85052Y182634D01*
X85058Y182549D01*
X85067Y182464D01*
X85081Y182380D01*
X85098Y182297D01*
X85118Y182214D01*
X85143Y182133D01*
X85171Y182053D01*
X85203Y181974D01*
X85238Y181896D01*
X85277Y181820D01*
X85319Y181746D01*
X85364Y181674D01*
X85412Y181604D01*
X85464Y181537D01*
X85519Y181471D01*
X85576Y181409D01*
X85636Y181348D01*
X85699Y181291D01*
X85765Y181237D01*
X85832Y181185D01*
X85902Y181137D01*
X85974Y181091D01*
X86048Y181050D01*
X86124Y181011D01*
X86202Y180976D01*
X86281Y180944D01*
X86361Y180916D01*
X87672Y183701D02*
X87619Y183755D01*
X87563Y183806D01*
X87505Y183854D01*
X87444Y183899D01*
X87382Y183941D01*
X87318Y183980D01*
X87251Y184017D01*
X87183Y184050D01*
X87114Y184079D01*
X87043Y184106D01*
X86972Y184129D01*
X86899Y184148D01*
X86825Y184164D01*
X86751Y184177D01*
X86676Y184186D01*
X86600Y184191D01*
X86525Y184193D01*
X87672Y183702D02*
X90950Y180916D01*
X90950Y184194D01*
X87672Y186616D02*
X87672Y188582D01*
X87674Y188653D01*
X87680Y188724D01*
X87689Y188794D01*
X87703Y188864D01*
X87720Y188933D01*
X87741Y189001D01*
X87765Y189067D01*
X87793Y189132D01*
X87825Y189196D01*
X87860Y189258D01*
X87898Y189318D01*
X87939Y189375D01*
X87984Y189431D01*
X88031Y189484D01*
X88081Y189534D01*
X88134Y189581D01*
X88190Y189626D01*
X88247Y189667D01*
X88307Y189705D01*
X88369Y189740D01*
X88433Y189772D01*
X88498Y189800D01*
X88564Y189824D01*
X88632Y189845D01*
X88701Y189862D01*
X88771Y189876D01*
X88841Y189885D01*
X88912Y189891D01*
X88983Y189893D01*
X89311Y189893D01*
X89390Y189891D01*
X89469Y189885D01*
X89548Y189876D01*
X89626Y189862D01*
X89703Y189845D01*
X89780Y189825D01*
X89855Y189800D01*
X89929Y189772D01*
X90002Y189740D01*
X90073Y189705D01*
X90142Y189667D01*
X90209Y189625D01*
X90274Y189580D01*
X90337Y189532D01*
X90398Y189481D01*
X90456Y189427D01*
X90511Y189370D01*
X90564Y189311D01*
X90613Y189249D01*
X90660Y189185D01*
X90703Y189119D01*
X90743Y189051D01*
X90780Y188980D01*
X90814Y188909D01*
X90843Y188835D01*
X90870Y188760D01*
X90892Y188685D01*
X90911Y188608D01*
X90927Y188530D01*
X90938Y188452D01*
X90946Y188373D01*
X90950Y188294D01*
X90950Y188214D01*
X90946Y188135D01*
X90938Y188056D01*
X90927Y187978D01*
X90911Y187900D01*
X90892Y187823D01*
X90870Y187748D01*
X90843Y187673D01*
X90814Y187599D01*
X90780Y187528D01*
X90743Y187457D01*
X90703Y187389D01*
X90660Y187323D01*
X90613Y187259D01*
X90564Y187197D01*
X90511Y187138D01*
X90456Y187081D01*
X90398Y187027D01*
X90337Y186976D01*
X90274Y186928D01*
X90209Y186883D01*
X90142Y186841D01*
X90073Y186803D01*
X90002Y186768D01*
X89929Y186736D01*
X89855Y186708D01*
X89780Y186683D01*
X89703Y186663D01*
X89626Y186646D01*
X89548Y186632D01*
X89469Y186623D01*
X89390Y186617D01*
X89311Y186615D01*
X89311Y186616D02*
X87672Y186616D01*
X87572Y186618D01*
X87471Y186624D01*
X87371Y186633D01*
X87272Y186647D01*
X87173Y186664D01*
X87075Y186685D01*
X86977Y186710D01*
X86881Y186738D01*
X86786Y186770D01*
X86692Y186806D01*
X86599Y186845D01*
X86509Y186888D01*
X86419Y186935D01*
X86332Y186984D01*
X86247Y187037D01*
X86164Y187093D01*
X86082Y187153D01*
X86004Y187215D01*
X85928Y187281D01*
X85854Y187349D01*
X85783Y187420D01*
X85715Y187494D01*
X85649Y187570D01*
X85587Y187648D01*
X85527Y187730D01*
X85471Y187813D01*
X85418Y187898D01*
X85369Y187985D01*
X85322Y188075D01*
X85279Y188165D01*
X85240Y188258D01*
X85204Y188352D01*
X85172Y188447D01*
X85144Y188543D01*
X85119Y188641D01*
X85098Y188739D01*
X85081Y188838D01*
X85067Y188937D01*
X85058Y189037D01*
X85052Y189138D01*
X85050Y189238D01*
X87672Y192315D02*
X87672Y194282D01*
X87674Y194353D01*
X87680Y194424D01*
X87689Y194494D01*
X87703Y194564D01*
X87720Y194633D01*
X87741Y194701D01*
X87765Y194767D01*
X87793Y194832D01*
X87825Y194896D01*
X87860Y194958D01*
X87898Y195018D01*
X87939Y195075D01*
X87984Y195131D01*
X88031Y195184D01*
X88081Y195234D01*
X88134Y195281D01*
X88190Y195326D01*
X88247Y195367D01*
X88307Y195405D01*
X88369Y195440D01*
X88433Y195472D01*
X88498Y195500D01*
X88564Y195524D01*
X88632Y195545D01*
X88701Y195562D01*
X88771Y195576D01*
X88841Y195585D01*
X88912Y195591D01*
X88983Y195593D01*
X89311Y195593D01*
X89390Y195591D01*
X89469Y195585D01*
X89548Y195576D01*
X89626Y195562D01*
X89703Y195545D01*
X89780Y195525D01*
X89855Y195500D01*
X89929Y195472D01*
X90002Y195440D01*
X90073Y195405D01*
X90142Y195367D01*
X90209Y195325D01*
X90274Y195280D01*
X90337Y195232D01*
X90398Y195181D01*
X90456Y195127D01*
X90511Y195070D01*
X90564Y195011D01*
X90613Y194949D01*
X90660Y194885D01*
X90703Y194819D01*
X90743Y194751D01*
X90780Y194680D01*
X90814Y194609D01*
X90843Y194535D01*
X90870Y194460D01*
X90892Y194385D01*
X90911Y194308D01*
X90927Y194230D01*
X90938Y194152D01*
X90946Y194073D01*
X90950Y193994D01*
X90950Y193914D01*
X90946Y193835D01*
X90938Y193756D01*
X90927Y193678D01*
X90911Y193600D01*
X90892Y193523D01*
X90870Y193448D01*
X90843Y193373D01*
X90814Y193299D01*
X90780Y193228D01*
X90743Y193157D01*
X90703Y193089D01*
X90660Y193023D01*
X90613Y192959D01*
X90564Y192897D01*
X90511Y192838D01*
X90456Y192781D01*
X90398Y192727D01*
X90337Y192676D01*
X90274Y192628D01*
X90209Y192583D01*
X90142Y192541D01*
X90073Y192503D01*
X90002Y192468D01*
X89929Y192436D01*
X89855Y192408D01*
X89780Y192383D01*
X89703Y192363D01*
X89626Y192346D01*
X89548Y192332D01*
X89469Y192323D01*
X89390Y192317D01*
X89311Y192315D01*
X87672Y192315D01*
X87672Y192316D02*
X87572Y192318D01*
X87471Y192324D01*
X87371Y192333D01*
X87272Y192347D01*
X87173Y192364D01*
X87075Y192385D01*
X86977Y192410D01*
X86881Y192438D01*
X86786Y192470D01*
X86692Y192506D01*
X86599Y192545D01*
X86509Y192588D01*
X86419Y192635D01*
X86332Y192684D01*
X86247Y192737D01*
X86164Y192793D01*
X86082Y192853D01*
X86004Y192915D01*
X85928Y192981D01*
X85854Y193049D01*
X85783Y193120D01*
X85715Y193194D01*
X85649Y193270D01*
X85587Y193348D01*
X85527Y193430D01*
X85471Y193513D01*
X85418Y193598D01*
X85369Y193685D01*
X85322Y193775D01*
X85279Y193865D01*
X85240Y193958D01*
X85204Y194052D01*
X85172Y194147D01*
X85144Y194243D01*
X85119Y194341D01*
X85098Y194439D01*
X85081Y194538D01*
X85067Y194637D01*
X85058Y194737D01*
X85052Y194838D01*
X85050Y194938D01*
X87017Y198067D02*
X88656Y202001D01*
X90294Y198067D01*
X87017Y204527D02*
X88656Y208460D01*
X90294Y204527D01*
X94650Y145250D02*
X100550Y145250D01*
X94650Y145250D02*
X94650Y147872D01*
X97272Y147872D02*
X97272Y145250D01*
X99567Y150020D02*
X94650Y150020D01*
X99567Y150020D02*
X99629Y150022D01*
X99690Y150028D01*
X99751Y150037D01*
X99811Y150051D01*
X99871Y150068D01*
X99929Y150089D01*
X99986Y150114D01*
X100041Y150142D01*
X100094Y150173D01*
X100145Y150208D01*
X100194Y150246D01*
X100240Y150286D01*
X100284Y150330D01*
X100324Y150376D01*
X100362Y150425D01*
X100397Y150476D01*
X100428Y150529D01*
X100456Y150584D01*
X100481Y150641D01*
X100502Y150699D01*
X100519Y150759D01*
X100533Y150819D01*
X100542Y150880D01*
X100548Y150941D01*
X100550Y151003D01*
X102517Y152787D02*
X102517Y153442D01*
X96617Y155409D01*
X96617Y152787D02*
X100550Y154098D01*
X100550Y157789D02*
X94650Y157789D01*
X100550Y157789D02*
X100550Y160412D01*
X100550Y162201D02*
X94650Y164167D01*
X100550Y166134D01*
X99075Y165642D02*
X99075Y162692D01*
X97272Y168497D02*
X97272Y170136D01*
X97274Y170215D01*
X97280Y170294D01*
X97289Y170373D01*
X97303Y170451D01*
X97320Y170528D01*
X97340Y170605D01*
X97365Y170680D01*
X97393Y170754D01*
X97425Y170827D01*
X97460Y170898D01*
X97498Y170967D01*
X97540Y171034D01*
X97585Y171099D01*
X97633Y171162D01*
X97684Y171223D01*
X97738Y171281D01*
X97795Y171336D01*
X97854Y171389D01*
X97916Y171438D01*
X97980Y171485D01*
X98046Y171528D01*
X98114Y171568D01*
X98185Y171605D01*
X98256Y171639D01*
X98330Y171668D01*
X98405Y171695D01*
X98480Y171717D01*
X98557Y171736D01*
X98635Y171752D01*
X98713Y171763D01*
X98792Y171771D01*
X98871Y171775D01*
X98951Y171775D01*
X99030Y171771D01*
X99109Y171763D01*
X99187Y171752D01*
X99265Y171736D01*
X99342Y171717D01*
X99417Y171695D01*
X99492Y171668D01*
X99566Y171639D01*
X99637Y171605D01*
X99708Y171568D01*
X99776Y171528D01*
X99842Y171485D01*
X99906Y171438D01*
X99968Y171389D01*
X100027Y171336D01*
X100084Y171281D01*
X100138Y171223D01*
X100189Y171162D01*
X100237Y171099D01*
X100282Y171034D01*
X100324Y170967D01*
X100362Y170898D01*
X100397Y170827D01*
X100429Y170754D01*
X100457Y170680D01*
X100482Y170605D01*
X100502Y170528D01*
X100519Y170451D01*
X100533Y170373D01*
X100542Y170294D01*
X100548Y170215D01*
X100550Y170136D01*
X100550Y168497D01*
X94650Y168497D01*
X94650Y170136D01*
X94652Y170207D01*
X94658Y170278D01*
X94667Y170348D01*
X94681Y170418D01*
X94698Y170487D01*
X94719Y170555D01*
X94743Y170621D01*
X94771Y170686D01*
X94803Y170750D01*
X94838Y170812D01*
X94876Y170872D01*
X94917Y170929D01*
X94962Y170985D01*
X95009Y171038D01*
X95059Y171088D01*
X95112Y171135D01*
X95168Y171180D01*
X95225Y171221D01*
X95285Y171259D01*
X95347Y171294D01*
X95411Y171326D01*
X95476Y171354D01*
X95542Y171378D01*
X95610Y171399D01*
X95679Y171416D01*
X95749Y171430D01*
X95819Y171439D01*
X95890Y171445D01*
X95961Y171447D01*
X96032Y171445D01*
X96103Y171439D01*
X96173Y171430D01*
X96243Y171416D01*
X96312Y171399D01*
X96380Y171378D01*
X96446Y171354D01*
X96511Y171326D01*
X96575Y171294D01*
X96637Y171259D01*
X96697Y171221D01*
X96754Y171180D01*
X96810Y171135D01*
X96863Y171088D01*
X96913Y171038D01*
X96960Y170985D01*
X97005Y170929D01*
X97046Y170872D01*
X97084Y170812D01*
X97119Y170750D01*
X97151Y170686D01*
X97179Y170621D01*
X97203Y170555D01*
X97224Y170487D01*
X97241Y170418D01*
X97255Y170348D01*
X97264Y170278D01*
X97270Y170207D01*
X97272Y170136D01*
X94650Y177158D02*
X100550Y177158D01*
X94650Y177158D02*
X94650Y178796D01*
X94652Y178874D01*
X94657Y178952D01*
X94667Y179029D01*
X94680Y179106D01*
X94696Y179182D01*
X94716Y179258D01*
X94740Y179332D01*
X94767Y179405D01*
X94798Y179477D01*
X94832Y179547D01*
X94870Y179616D01*
X94910Y179682D01*
X94954Y179747D01*
X95001Y179809D01*
X95050Y179869D01*
X95103Y179927D01*
X95158Y179982D01*
X95216Y180035D01*
X95276Y180084D01*
X95338Y180131D01*
X95403Y180175D01*
X95470Y180215D01*
X95538Y180253D01*
X95608Y180287D01*
X95680Y180318D01*
X95753Y180345D01*
X95827Y180369D01*
X95903Y180389D01*
X95979Y180405D01*
X96056Y180418D01*
X96133Y180428D01*
X96211Y180433D01*
X96289Y180435D01*
X98911Y180435D01*
X98989Y180433D01*
X99067Y180428D01*
X99144Y180418D01*
X99221Y180405D01*
X99297Y180389D01*
X99373Y180369D01*
X99447Y180345D01*
X99520Y180318D01*
X99592Y180287D01*
X99662Y180253D01*
X99731Y180215D01*
X99797Y180175D01*
X99862Y180131D01*
X99924Y180084D01*
X99984Y180035D01*
X100042Y179982D01*
X100097Y179927D01*
X100150Y179869D01*
X100199Y179809D01*
X100246Y179747D01*
X100290Y179682D01*
X100330Y179616D01*
X100368Y179547D01*
X100402Y179477D01*
X100433Y179405D01*
X100460Y179332D01*
X100484Y179258D01*
X100504Y179182D01*
X100520Y179106D01*
X100533Y179029D01*
X100543Y178952D01*
X100548Y178874D01*
X100550Y178796D01*
X100550Y177158D01*
X100550Y183978D02*
X100550Y185617D01*
X100550Y183978D02*
X100548Y183916D01*
X100542Y183855D01*
X100533Y183794D01*
X100519Y183734D01*
X100502Y183674D01*
X100481Y183616D01*
X100456Y183559D01*
X100428Y183504D01*
X100397Y183451D01*
X100362Y183400D01*
X100324Y183351D01*
X100284Y183305D01*
X100240Y183261D01*
X100194Y183221D01*
X100145Y183183D01*
X100094Y183148D01*
X100041Y183117D01*
X99986Y183089D01*
X99929Y183064D01*
X99871Y183043D01*
X99811Y183026D01*
X99751Y183012D01*
X99690Y183003D01*
X99629Y182997D01*
X99567Y182995D01*
X97928Y182995D01*
X97857Y182997D01*
X97786Y183003D01*
X97716Y183012D01*
X97646Y183026D01*
X97577Y183043D01*
X97509Y183064D01*
X97443Y183088D01*
X97378Y183116D01*
X97314Y183148D01*
X97252Y183183D01*
X97192Y183221D01*
X97135Y183262D01*
X97079Y183307D01*
X97026Y183354D01*
X96976Y183404D01*
X96929Y183457D01*
X96884Y183513D01*
X96843Y183570D01*
X96805Y183630D01*
X96770Y183692D01*
X96738Y183756D01*
X96710Y183821D01*
X96686Y183887D01*
X96665Y183955D01*
X96648Y184024D01*
X96634Y184094D01*
X96625Y184164D01*
X96619Y184235D01*
X96617Y184306D01*
X96619Y184377D01*
X96625Y184448D01*
X96634Y184518D01*
X96648Y184588D01*
X96665Y184657D01*
X96686Y184725D01*
X96710Y184791D01*
X96738Y184856D01*
X96770Y184920D01*
X96805Y184982D01*
X96843Y185042D01*
X96884Y185099D01*
X96929Y185155D01*
X96976Y185208D01*
X97026Y185258D01*
X97079Y185305D01*
X97135Y185350D01*
X97192Y185391D01*
X97252Y185429D01*
X97314Y185464D01*
X97378Y185496D01*
X97443Y185524D01*
X97509Y185548D01*
X97577Y185569D01*
X97646Y185586D01*
X97716Y185600D01*
X97786Y185609D01*
X97857Y185615D01*
X97928Y185617D01*
X98583Y185617D01*
X98583Y182995D01*
X98256Y188426D02*
X98911Y190065D01*
X98255Y188426D02*
X98232Y188374D01*
X98205Y188323D01*
X98175Y188274D01*
X98142Y188227D01*
X98106Y188182D01*
X98066Y188140D01*
X98024Y188101D01*
X97980Y188065D01*
X97933Y188032D01*
X97883Y188002D01*
X97832Y187975D01*
X97780Y187952D01*
X97726Y187933D01*
X97670Y187917D01*
X97614Y187905D01*
X97557Y187897D01*
X97500Y187893D01*
X97442Y187892D01*
X97385Y187896D01*
X97328Y187903D01*
X97271Y187915D01*
X97216Y187930D01*
X97161Y187948D01*
X97108Y187971D01*
X97057Y187997D01*
X97008Y188026D01*
X96960Y188059D01*
X96915Y188095D01*
X96873Y188133D01*
X96833Y188175D01*
X96796Y188219D01*
X96762Y188266D01*
X96731Y188314D01*
X96704Y188365D01*
X96680Y188417D01*
X96660Y188471D01*
X96644Y188526D01*
X96631Y188582D01*
X96622Y188639D01*
X96617Y188697D01*
X96616Y188754D01*
X96617Y188754D02*
X96621Y188871D01*
X96628Y188988D01*
X96639Y189104D01*
X96653Y189221D01*
X96672Y189336D01*
X96693Y189451D01*
X96719Y189565D01*
X96748Y189679D01*
X96780Y189791D01*
X96816Y189903D01*
X96856Y190013D01*
X96899Y190122D01*
X96945Y190229D01*
X98911Y190066D02*
X98934Y190118D01*
X98961Y190169D01*
X98991Y190218D01*
X99024Y190265D01*
X99060Y190310D01*
X99100Y190352D01*
X99142Y190391D01*
X99186Y190427D01*
X99233Y190460D01*
X99283Y190490D01*
X99334Y190517D01*
X99386Y190540D01*
X99440Y190559D01*
X99496Y190575D01*
X99552Y190587D01*
X99609Y190595D01*
X99666Y190599D01*
X99724Y190600D01*
X99781Y190596D01*
X99838Y190589D01*
X99895Y190577D01*
X99950Y190562D01*
X100005Y190544D01*
X100058Y190521D01*
X100109Y190495D01*
X100158Y190466D01*
X100206Y190433D01*
X100251Y190397D01*
X100293Y190359D01*
X100333Y190317D01*
X100370Y190273D01*
X100404Y190226D01*
X100435Y190178D01*
X100462Y190127D01*
X100486Y190075D01*
X100506Y190021D01*
X100522Y189966D01*
X100535Y189910D01*
X100544Y189853D01*
X100549Y189795D01*
X100550Y189738D01*
X100549Y189738D02*
X100546Y189596D01*
X100538Y189455D01*
X100527Y189313D01*
X100513Y189173D01*
X100494Y189032D01*
X100473Y188892D01*
X100447Y188753D01*
X100418Y188614D01*
X100386Y188477D01*
X100350Y188340D01*
X100311Y188204D01*
X100268Y188069D01*
X100222Y187935D01*
X100550Y192856D02*
X96617Y192856D01*
X94978Y192692D02*
X94650Y192692D01*
X94650Y193020D01*
X94978Y193020D01*
X94978Y192692D01*
X100550Y196110D02*
X100550Y197749D01*
X100550Y196110D02*
X100548Y196048D01*
X100542Y195987D01*
X100533Y195926D01*
X100519Y195866D01*
X100502Y195806D01*
X100481Y195748D01*
X100456Y195691D01*
X100428Y195636D01*
X100397Y195583D01*
X100362Y195532D01*
X100324Y195483D01*
X100284Y195437D01*
X100240Y195393D01*
X100194Y195353D01*
X100145Y195315D01*
X100094Y195280D01*
X100041Y195249D01*
X99986Y195221D01*
X99929Y195196D01*
X99871Y195175D01*
X99811Y195158D01*
X99751Y195144D01*
X99690Y195135D01*
X99629Y195129D01*
X99567Y195127D01*
X97600Y195127D01*
X97538Y195129D01*
X97477Y195135D01*
X97416Y195144D01*
X97356Y195158D01*
X97296Y195175D01*
X97238Y195196D01*
X97181Y195221D01*
X97126Y195249D01*
X97073Y195280D01*
X97022Y195315D01*
X96973Y195353D01*
X96927Y195393D01*
X96883Y195437D01*
X96843Y195483D01*
X96805Y195532D01*
X96770Y195583D01*
X96739Y195636D01*
X96711Y195691D01*
X96686Y195748D01*
X96665Y195806D01*
X96648Y195866D01*
X96634Y195926D01*
X96625Y195987D01*
X96619Y196048D01*
X96617Y196110D01*
X96617Y197749D01*
X101533Y197749D01*
X101595Y197747D01*
X101656Y197741D01*
X101717Y197732D01*
X101777Y197718D01*
X101837Y197701D01*
X101895Y197680D01*
X101952Y197655D01*
X102007Y197627D01*
X102060Y197596D01*
X102111Y197561D01*
X102160Y197523D01*
X102206Y197483D01*
X102250Y197439D01*
X102290Y197393D01*
X102328Y197344D01*
X102363Y197293D01*
X102394Y197240D01*
X102422Y197185D01*
X102447Y197128D01*
X102468Y197070D01*
X102485Y197010D01*
X102499Y196950D01*
X102508Y196889D01*
X102514Y196828D01*
X102516Y196766D01*
X102517Y196766D02*
X102517Y195455D01*
X100550Y200474D02*
X96617Y200474D01*
X96617Y202113D01*
X96619Y202175D01*
X96625Y202236D01*
X96634Y202297D01*
X96648Y202357D01*
X96665Y202417D01*
X96686Y202475D01*
X96711Y202532D01*
X96739Y202587D01*
X96770Y202640D01*
X96805Y202691D01*
X96843Y202740D01*
X96883Y202786D01*
X96927Y202830D01*
X96973Y202870D01*
X97022Y202908D01*
X97073Y202943D01*
X97126Y202974D01*
X97181Y203002D01*
X97238Y203027D01*
X97296Y203048D01*
X97356Y203065D01*
X97416Y203079D01*
X97477Y203088D01*
X97538Y203094D01*
X97600Y203096D01*
X100550Y203096D01*
X106217Y149183D02*
X107856Y145250D01*
X109494Y149183D01*
X107856Y151710D02*
X106217Y155643D01*
X109494Y155643D02*
X107856Y151710D01*
X107856Y158169D02*
X106217Y162103D01*
X109494Y162103D02*
X107856Y158169D01*
X110150Y164767D02*
X104250Y164767D01*
X104250Y166406D01*
X104252Y166484D01*
X104257Y166562D01*
X104267Y166639D01*
X104280Y166716D01*
X104296Y166792D01*
X104316Y166868D01*
X104340Y166942D01*
X104367Y167015D01*
X104398Y167087D01*
X104432Y167157D01*
X104470Y167226D01*
X104510Y167292D01*
X104554Y167357D01*
X104601Y167419D01*
X104650Y167479D01*
X104703Y167537D01*
X104758Y167592D01*
X104816Y167645D01*
X104876Y167694D01*
X104938Y167741D01*
X105003Y167785D01*
X105070Y167825D01*
X105138Y167863D01*
X105208Y167897D01*
X105280Y167928D01*
X105353Y167955D01*
X105427Y167979D01*
X105503Y167999D01*
X105579Y168015D01*
X105656Y168028D01*
X105733Y168038D01*
X105811Y168043D01*
X105889Y168045D01*
X108511Y168045D01*
X108589Y168043D01*
X108667Y168038D01*
X108744Y168028D01*
X108821Y168015D01*
X108897Y167999D01*
X108973Y167979D01*
X109047Y167955D01*
X109120Y167928D01*
X109192Y167897D01*
X109262Y167863D01*
X109331Y167825D01*
X109397Y167785D01*
X109462Y167741D01*
X109524Y167694D01*
X109584Y167645D01*
X109642Y167592D01*
X109697Y167537D01*
X109750Y167479D01*
X109799Y167419D01*
X109846Y167357D01*
X109890Y167292D01*
X109930Y167226D01*
X109968Y167157D01*
X110002Y167087D01*
X110033Y167015D01*
X110060Y166942D01*
X110084Y166868D01*
X110104Y166792D01*
X110120Y166716D01*
X110133Y166639D01*
X110143Y166562D01*
X110148Y166484D01*
X110150Y166406D01*
X110150Y164767D01*
X110150Y170585D02*
X106217Y170585D01*
X104578Y170422D02*
X104250Y170422D01*
X104250Y170749D01*
X104578Y170749D01*
X104578Y170422D01*
X106217Y173179D02*
X110150Y173179D01*
X106217Y173179D02*
X106217Y176129D01*
X106219Y176191D01*
X106225Y176252D01*
X106234Y176313D01*
X106248Y176373D01*
X106265Y176433D01*
X106286Y176491D01*
X106311Y176548D01*
X106339Y176603D01*
X106370Y176656D01*
X106405Y176707D01*
X106443Y176756D01*
X106483Y176802D01*
X106527Y176846D01*
X106573Y176886D01*
X106622Y176924D01*
X106673Y176959D01*
X106726Y176990D01*
X106781Y177018D01*
X106838Y177043D01*
X106896Y177064D01*
X106956Y177081D01*
X107016Y177095D01*
X107077Y177104D01*
X107138Y177110D01*
X107200Y177112D01*
X110150Y177112D01*
X110150Y175145D02*
X106217Y175145D01*
X107856Y179828D02*
X107856Y183762D01*
X110150Y185908D02*
X104250Y187875D01*
X110150Y189841D01*
X108675Y189350D02*
X108675Y186400D01*
X106217Y191408D02*
X106217Y193374D01*
X104250Y192063D02*
X109167Y192063D01*
X109167Y192064D02*
X109229Y192066D01*
X109290Y192072D01*
X109351Y192081D01*
X109411Y192095D01*
X109471Y192112D01*
X109529Y192133D01*
X109586Y192158D01*
X109641Y192186D01*
X109694Y192217D01*
X109745Y192252D01*
X109794Y192290D01*
X109840Y192330D01*
X109884Y192374D01*
X109924Y192420D01*
X109962Y192469D01*
X109997Y192520D01*
X110028Y192573D01*
X110056Y192628D01*
X110081Y192685D01*
X110102Y192743D01*
X110119Y192803D01*
X110133Y192863D01*
X110142Y192924D01*
X110148Y192985D01*
X110150Y193047D01*
X110150Y193374D01*
X106217Y195597D02*
X107856Y199531D01*
X109494Y195597D01*
X106217Y202057D02*
X107856Y205990D01*
X109494Y202057D01*
X106217Y208517D02*
X107856Y212450D01*
X109494Y208517D01*
X119750Y146561D02*
X115817Y145250D01*
X115817Y147872D02*
X119750Y146561D01*
X119750Y150983D02*
X119750Y152622D01*
X119750Y150983D02*
X119748Y150921D01*
X119742Y150860D01*
X119733Y150799D01*
X119719Y150739D01*
X119702Y150679D01*
X119681Y150621D01*
X119656Y150564D01*
X119628Y150509D01*
X119597Y150456D01*
X119562Y150405D01*
X119524Y150356D01*
X119484Y150310D01*
X119440Y150266D01*
X119394Y150226D01*
X119345Y150188D01*
X119294Y150153D01*
X119241Y150122D01*
X119186Y150094D01*
X119129Y150069D01*
X119071Y150048D01*
X119011Y150031D01*
X118951Y150017D01*
X118890Y150008D01*
X118829Y150002D01*
X118767Y150000D01*
X117128Y150000D01*
X117057Y150002D01*
X116986Y150008D01*
X116916Y150017D01*
X116846Y150031D01*
X116777Y150048D01*
X116709Y150069D01*
X116643Y150093D01*
X116578Y150121D01*
X116514Y150153D01*
X116452Y150188D01*
X116392Y150226D01*
X116335Y150267D01*
X116279Y150312D01*
X116226Y150359D01*
X116176Y150409D01*
X116129Y150462D01*
X116084Y150518D01*
X116043Y150575D01*
X116005Y150635D01*
X115970Y150697D01*
X115938Y150761D01*
X115910Y150826D01*
X115886Y150892D01*
X115865Y150960D01*
X115848Y151029D01*
X115834Y151099D01*
X115825Y151169D01*
X115819Y151240D01*
X115817Y151311D01*
X115819Y151382D01*
X115825Y151453D01*
X115834Y151523D01*
X115848Y151593D01*
X115865Y151662D01*
X115886Y151730D01*
X115910Y151796D01*
X115938Y151861D01*
X115970Y151925D01*
X116005Y151987D01*
X116043Y152047D01*
X116084Y152104D01*
X116129Y152160D01*
X116176Y152213D01*
X116226Y152263D01*
X116279Y152310D01*
X116335Y152355D01*
X116392Y152396D01*
X116452Y152434D01*
X116514Y152469D01*
X116578Y152501D01*
X116643Y152529D01*
X116709Y152553D01*
X116777Y152574D01*
X116846Y152591D01*
X116916Y152605D01*
X116986Y152614D01*
X117057Y152620D01*
X117128Y152622D01*
X117783Y152622D01*
X117783Y150000D01*
X115817Y155161D02*
X119750Y155161D01*
X115817Y155161D02*
X115817Y157127D01*
X116472Y157127D01*
X119422Y158747D02*
X119750Y158747D01*
X119422Y158747D02*
X119422Y159074D01*
X119750Y159074D01*
X119750Y158747D01*
X119258Y161216D02*
X118931Y161216D01*
X118931Y161544D01*
X119258Y161544D01*
X119258Y161216D01*
X116636Y161216D02*
X116308Y161216D01*
X116308Y161544D01*
X116636Y161544D01*
X116636Y161216D01*
X116800Y163921D02*
X116662Y163923D01*
X116524Y163929D01*
X116387Y163939D01*
X116250Y163952D01*
X116113Y163970D01*
X115977Y163991D01*
X115841Y164016D01*
X115707Y164046D01*
X115573Y164078D01*
X115440Y164115D01*
X115308Y164155D01*
X115178Y164200D01*
X115048Y164247D01*
X114921Y164299D01*
X114794Y164354D01*
X114669Y164413D01*
X114670Y164413D02*
X114606Y164437D01*
X114543Y164464D01*
X114482Y164495D01*
X114423Y164530D01*
X114366Y164567D01*
X114311Y164608D01*
X114259Y164652D01*
X114209Y164699D01*
X114162Y164748D01*
X114117Y164800D01*
X114076Y164855D01*
X114038Y164912D01*
X114003Y164971D01*
X113971Y165031D01*
X113943Y165094D01*
X113919Y165157D01*
X113898Y165223D01*
X113881Y165289D01*
X113867Y165356D01*
X113858Y165423D01*
X113852Y165492D01*
X113850Y165560D01*
X113852Y165628D01*
X113858Y165697D01*
X113867Y165764D01*
X113881Y165831D01*
X113898Y165897D01*
X113919Y165963D01*
X113943Y166026D01*
X113971Y166089D01*
X114003Y166149D01*
X114038Y166208D01*
X114076Y166265D01*
X114117Y166320D01*
X114162Y166372D01*
X114209Y166421D01*
X114259Y166468D01*
X114311Y166512D01*
X114366Y166553D01*
X114423Y166590D01*
X114482Y166625D01*
X114543Y166656D01*
X114606Y166683D01*
X114670Y166707D01*
X114669Y166707D02*
X114794Y166766D01*
X114921Y166821D01*
X115048Y166873D01*
X115178Y166920D01*
X115308Y166965D01*
X115440Y167005D01*
X115573Y167042D01*
X115707Y167074D01*
X115841Y167104D01*
X115977Y167129D01*
X116113Y167150D01*
X116250Y167168D01*
X116387Y167181D01*
X116524Y167191D01*
X116662Y167197D01*
X116800Y167199D01*
X116800Y163921D02*
X116938Y163923D01*
X117076Y163929D01*
X117213Y163939D01*
X117350Y163952D01*
X117487Y163970D01*
X117623Y163991D01*
X117759Y164016D01*
X117893Y164046D01*
X118027Y164078D01*
X118160Y164115D01*
X118292Y164155D01*
X118422Y164200D01*
X118552Y164247D01*
X118679Y164299D01*
X118806Y164354D01*
X118931Y164413D01*
X118930Y164413D02*
X118994Y164437D01*
X119057Y164464D01*
X119118Y164495D01*
X119177Y164530D01*
X119234Y164567D01*
X119289Y164608D01*
X119341Y164652D01*
X119391Y164699D01*
X119438Y164748D01*
X119483Y164800D01*
X119524Y164855D01*
X119562Y164912D01*
X119597Y164971D01*
X119629Y165031D01*
X119657Y165094D01*
X119681Y165157D01*
X119702Y165223D01*
X119719Y165289D01*
X119733Y165356D01*
X119742Y165423D01*
X119748Y165492D01*
X119750Y165560D01*
X118931Y166707D02*
X118806Y166766D01*
X118679Y166821D01*
X118552Y166873D01*
X118422Y166920D01*
X118292Y166965D01*
X118160Y167005D01*
X118027Y167042D01*
X117893Y167074D01*
X117759Y167104D01*
X117623Y167129D01*
X117487Y167150D01*
X117350Y167168D01*
X117213Y167181D01*
X117076Y167191D01*
X116938Y167197D01*
X116800Y167199D01*
X118930Y166707D02*
X118994Y166683D01*
X119057Y166656D01*
X119118Y166625D01*
X119177Y166590D01*
X119234Y166553D01*
X119289Y166512D01*
X119341Y166468D01*
X119391Y166421D01*
X119438Y166372D01*
X119483Y166320D01*
X119524Y166265D01*
X119562Y166208D01*
X119597Y166149D01*
X119629Y166089D01*
X119657Y166026D01*
X119681Y165963D01*
X119702Y165897D01*
X119719Y165831D01*
X119733Y165764D01*
X119742Y165697D01*
X119748Y165628D01*
X119750Y165560D01*
X118439Y164249D02*
X115161Y166871D01*
X115161Y169621D02*
X113850Y171260D01*
X119750Y171260D01*
X119750Y169621D02*
X119750Y172899D01*
X119750Y175086D02*
X119422Y175086D01*
X119422Y175413D01*
X119750Y175413D01*
X119750Y175086D01*
X119750Y177273D02*
X113850Y179239D01*
X119750Y181206D01*
X118275Y180714D02*
X118275Y177764D01*
X115817Y182773D02*
X115817Y184739D01*
X113850Y183428D02*
X118767Y183428D01*
X118829Y183430D01*
X118890Y183436D01*
X118951Y183445D01*
X119011Y183459D01*
X119071Y183476D01*
X119129Y183497D01*
X119186Y183522D01*
X119241Y183550D01*
X119294Y183581D01*
X119345Y183616D01*
X119394Y183654D01*
X119440Y183694D01*
X119484Y183738D01*
X119524Y183784D01*
X119562Y183833D01*
X119597Y183884D01*
X119628Y183937D01*
X119656Y183992D01*
X119681Y184049D01*
X119702Y184107D01*
X119719Y184167D01*
X119733Y184227D01*
X119742Y184288D01*
X119748Y184349D01*
X119750Y184411D01*
X119750Y184739D01*
X119750Y186675D02*
X119422Y186675D01*
X119422Y187003D01*
X119750Y187003D01*
X119750Y186675D01*
X119750Y189380D02*
X113850Y189380D01*
X113850Y191019D01*
X113852Y191097D01*
X113857Y191175D01*
X113867Y191252D01*
X113880Y191329D01*
X113896Y191405D01*
X113916Y191481D01*
X113940Y191555D01*
X113967Y191628D01*
X113998Y191700D01*
X114032Y191770D01*
X114070Y191839D01*
X114110Y191905D01*
X114154Y191970D01*
X114201Y192032D01*
X114250Y192092D01*
X114303Y192150D01*
X114358Y192205D01*
X114416Y192258D01*
X114476Y192307D01*
X114538Y192354D01*
X114603Y192398D01*
X114670Y192438D01*
X114738Y192476D01*
X114808Y192510D01*
X114880Y192541D01*
X114953Y192568D01*
X115027Y192592D01*
X115103Y192612D01*
X115179Y192628D01*
X115256Y192641D01*
X115333Y192651D01*
X115411Y192656D01*
X115489Y192658D01*
X118111Y192658D01*
X118189Y192656D01*
X118267Y192651D01*
X118344Y192641D01*
X118421Y192628D01*
X118497Y192612D01*
X118573Y192592D01*
X118647Y192568D01*
X118720Y192541D01*
X118792Y192510D01*
X118862Y192476D01*
X118931Y192438D01*
X118997Y192398D01*
X119062Y192354D01*
X119124Y192307D01*
X119184Y192258D01*
X119242Y192205D01*
X119297Y192150D01*
X119350Y192092D01*
X119399Y192032D01*
X119446Y191970D01*
X119490Y191905D01*
X119530Y191839D01*
X119568Y191770D01*
X119602Y191700D01*
X119633Y191628D01*
X119660Y191555D01*
X119684Y191481D01*
X119704Y191405D01*
X119720Y191329D01*
X119733Y191252D01*
X119743Y191175D01*
X119748Y191097D01*
X119750Y191019D01*
X119750Y189380D01*
X119750Y195035D02*
X119422Y195035D01*
X119422Y195362D01*
X119750Y195362D01*
X119750Y195035D01*
X115161Y197549D02*
X113850Y199188D01*
X119750Y199188D01*
X119750Y197549D02*
X119750Y200827D01*
X116472Y203249D02*
X116472Y205216D01*
X116474Y205287D01*
X116480Y205358D01*
X116489Y205428D01*
X116503Y205498D01*
X116520Y205567D01*
X116541Y205635D01*
X116565Y205701D01*
X116593Y205766D01*
X116625Y205830D01*
X116660Y205892D01*
X116698Y205952D01*
X116739Y206009D01*
X116784Y206065D01*
X116831Y206118D01*
X116881Y206168D01*
X116934Y206215D01*
X116990Y206260D01*
X117047Y206301D01*
X117107Y206339D01*
X117169Y206374D01*
X117233Y206406D01*
X117298Y206434D01*
X117364Y206458D01*
X117432Y206479D01*
X117501Y206496D01*
X117571Y206510D01*
X117641Y206519D01*
X117712Y206525D01*
X117783Y206527D01*
X118111Y206527D01*
X118190Y206525D01*
X118269Y206519D01*
X118348Y206510D01*
X118426Y206496D01*
X118503Y206479D01*
X118580Y206459D01*
X118655Y206434D01*
X118729Y206406D01*
X118802Y206374D01*
X118873Y206339D01*
X118942Y206301D01*
X119009Y206259D01*
X119074Y206214D01*
X119137Y206166D01*
X119198Y206115D01*
X119256Y206061D01*
X119311Y206004D01*
X119364Y205945D01*
X119413Y205883D01*
X119460Y205819D01*
X119503Y205753D01*
X119543Y205685D01*
X119580Y205614D01*
X119614Y205543D01*
X119643Y205469D01*
X119670Y205394D01*
X119692Y205319D01*
X119711Y205242D01*
X119727Y205164D01*
X119738Y205086D01*
X119746Y205007D01*
X119750Y204928D01*
X119750Y204848D01*
X119746Y204769D01*
X119738Y204690D01*
X119727Y204612D01*
X119711Y204534D01*
X119692Y204457D01*
X119670Y204382D01*
X119643Y204307D01*
X119614Y204233D01*
X119580Y204162D01*
X119543Y204091D01*
X119503Y204023D01*
X119460Y203957D01*
X119413Y203893D01*
X119364Y203831D01*
X119311Y203772D01*
X119256Y203715D01*
X119198Y203661D01*
X119137Y203610D01*
X119074Y203562D01*
X119009Y203517D01*
X118942Y203475D01*
X118873Y203437D01*
X118802Y203402D01*
X118729Y203370D01*
X118655Y203342D01*
X118580Y203317D01*
X118503Y203297D01*
X118426Y203280D01*
X118348Y203266D01*
X118269Y203257D01*
X118190Y203251D01*
X118111Y203249D01*
X116472Y203249D01*
X116372Y203251D01*
X116271Y203257D01*
X116171Y203266D01*
X116072Y203280D01*
X115973Y203297D01*
X115875Y203318D01*
X115777Y203343D01*
X115681Y203371D01*
X115586Y203403D01*
X115492Y203439D01*
X115399Y203478D01*
X115309Y203521D01*
X115219Y203568D01*
X115132Y203617D01*
X115047Y203670D01*
X114964Y203726D01*
X114882Y203786D01*
X114804Y203848D01*
X114728Y203914D01*
X114654Y203982D01*
X114583Y204053D01*
X114515Y204127D01*
X114449Y204203D01*
X114387Y204281D01*
X114327Y204363D01*
X114271Y204446D01*
X114218Y204531D01*
X114169Y204618D01*
X114122Y204708D01*
X114079Y204798D01*
X114040Y204891D01*
X114004Y204985D01*
X113972Y205080D01*
X113944Y205176D01*
X113919Y205274D01*
X113898Y205372D01*
X113881Y205471D01*
X113867Y205570D01*
X113858Y205670D01*
X113852Y205771D01*
X113850Y205871D01*
D11*
X106961Y227600D02*
X106961Y229800D01*
X106350Y229800D02*
X107572Y229800D01*
X109710Y229800D02*
X108244Y227600D01*
X109710Y227600D02*
X108244Y229800D01*
X110598Y229800D02*
X110598Y227600D01*
X110598Y229800D02*
X111209Y229800D01*
X111257Y229798D01*
X111305Y229792D01*
X111352Y229783D01*
X111398Y229770D01*
X111443Y229753D01*
X111486Y229733D01*
X111528Y229710D01*
X111568Y229683D01*
X111606Y229654D01*
X111641Y229621D01*
X111674Y229586D01*
X111703Y229548D01*
X111730Y229508D01*
X111753Y229466D01*
X111773Y229423D01*
X111790Y229378D01*
X111803Y229332D01*
X111812Y229285D01*
X111818Y229237D01*
X111820Y229189D01*
X111820Y228211D01*
X111818Y228163D01*
X111812Y228115D01*
X111803Y228068D01*
X111790Y228022D01*
X111773Y227977D01*
X111753Y227934D01*
X111730Y227892D01*
X111703Y227852D01*
X111674Y227814D01*
X111641Y227779D01*
X111606Y227746D01*
X111568Y227717D01*
X111528Y227690D01*
X111486Y227667D01*
X111443Y227647D01*
X111398Y227630D01*
X111352Y227617D01*
X111305Y227608D01*
X111257Y227602D01*
X111209Y227600D01*
X110598Y227600D01*
X95725Y227600D02*
X95725Y229800D01*
X96336Y229800D01*
X96384Y229798D01*
X96432Y229792D01*
X96479Y229783D01*
X96525Y229770D01*
X96570Y229753D01*
X96613Y229733D01*
X96655Y229710D01*
X96695Y229683D01*
X96733Y229654D01*
X96768Y229621D01*
X96801Y229586D01*
X96830Y229548D01*
X96857Y229508D01*
X96880Y229466D01*
X96900Y229423D01*
X96917Y229378D01*
X96930Y229332D01*
X96939Y229285D01*
X96945Y229237D01*
X96947Y229189D01*
X96945Y229141D01*
X96939Y229093D01*
X96930Y229046D01*
X96917Y229000D01*
X96900Y228955D01*
X96880Y228912D01*
X96857Y228870D01*
X96830Y228830D01*
X96801Y228792D01*
X96768Y228757D01*
X96733Y228724D01*
X96695Y228695D01*
X96655Y228668D01*
X96613Y228645D01*
X96570Y228625D01*
X96525Y228608D01*
X96479Y228595D01*
X96432Y228586D01*
X96384Y228580D01*
X96336Y228578D01*
X95725Y228578D01*
X96458Y228578D02*
X96947Y227600D01*
X97749Y227600D02*
X99215Y229800D01*
X97749Y229800D02*
X99215Y227600D01*
X100103Y227600D02*
X100103Y229800D01*
X100714Y229800D01*
X100762Y229798D01*
X100810Y229792D01*
X100857Y229783D01*
X100903Y229770D01*
X100948Y229753D01*
X100991Y229733D01*
X101033Y229710D01*
X101073Y229683D01*
X101111Y229654D01*
X101146Y229621D01*
X101179Y229586D01*
X101208Y229548D01*
X101235Y229508D01*
X101258Y229466D01*
X101278Y229423D01*
X101295Y229378D01*
X101308Y229332D01*
X101317Y229285D01*
X101323Y229237D01*
X101325Y229189D01*
X101325Y228211D01*
X101323Y228163D01*
X101317Y228115D01*
X101308Y228068D01*
X101295Y228022D01*
X101278Y227977D01*
X101258Y227934D01*
X101235Y227892D01*
X101208Y227852D01*
X101179Y227814D01*
X101146Y227779D01*
X101111Y227746D01*
X101073Y227717D01*
X101033Y227690D01*
X100991Y227667D01*
X100948Y227647D01*
X100903Y227630D01*
X100857Y227617D01*
X100810Y227608D01*
X100762Y227602D01*
X100714Y227600D01*
X100103Y227600D01*
D12*
X125624Y99850D02*
X124818Y99206D01*
X125624Y99850D02*
X125624Y96950D01*
X126429Y96950D02*
X124818Y96950D01*
X127729Y98078D02*
X129663Y98078D01*
X131064Y96950D02*
X131064Y99850D01*
X131064Y96950D02*
X132353Y96950D01*
X133470Y98400D02*
X133472Y98501D01*
X133477Y98602D01*
X133487Y98703D01*
X133500Y98804D01*
X133516Y98904D01*
X133537Y99003D01*
X133561Y99101D01*
X133588Y99199D01*
X133619Y99295D01*
X133654Y99390D01*
X133692Y99484D01*
X133733Y99577D01*
X133778Y99667D01*
X133826Y99756D01*
X133878Y99844D01*
X133932Y99929D01*
X133990Y100012D01*
X134051Y100093D01*
X134114Y100172D01*
X133470Y98400D02*
X133472Y98299D01*
X133477Y98198D01*
X133487Y98097D01*
X133500Y97996D01*
X133516Y97896D01*
X133537Y97797D01*
X133561Y97699D01*
X133588Y97601D01*
X133619Y97505D01*
X133654Y97410D01*
X133692Y97316D01*
X133733Y97223D01*
X133778Y97133D01*
X133826Y97044D01*
X133878Y96956D01*
X133932Y96871D01*
X133990Y96788D01*
X134051Y96707D01*
X134114Y96628D01*
X135512Y96950D02*
X135512Y99850D01*
X135190Y96950D02*
X135834Y96950D01*
X135834Y99850D02*
X135190Y99850D01*
X137106Y99850D02*
X137106Y96950D01*
X138717Y96950D02*
X137106Y99850D01*
X138717Y99850D02*
X138717Y96950D01*
X139982Y96628D02*
X140045Y96707D01*
X140106Y96788D01*
X140164Y96871D01*
X140218Y96956D01*
X140270Y97044D01*
X140318Y97133D01*
X140363Y97223D01*
X140404Y97316D01*
X140442Y97410D01*
X140477Y97505D01*
X140508Y97601D01*
X140535Y97699D01*
X140559Y97797D01*
X140580Y97896D01*
X140596Y97996D01*
X140609Y98097D01*
X140619Y98198D01*
X140624Y98299D01*
X140626Y98400D01*
X140624Y98501D01*
X140619Y98602D01*
X140609Y98703D01*
X140596Y98804D01*
X140580Y98904D01*
X140559Y99003D01*
X140535Y99101D01*
X140508Y99199D01*
X140477Y99295D01*
X140442Y99390D01*
X140404Y99484D01*
X140363Y99577D01*
X140318Y99667D01*
X140270Y99756D01*
X140218Y99844D01*
X140164Y99929D01*
X140106Y100012D01*
X140045Y100093D01*
X139982Y100172D01*
X126429Y94325D02*
X126427Y94377D01*
X126422Y94428D01*
X126412Y94479D01*
X126400Y94529D01*
X126383Y94578D01*
X126363Y94626D01*
X126340Y94672D01*
X126314Y94717D01*
X126284Y94759D01*
X126252Y94800D01*
X126217Y94838D01*
X126179Y94873D01*
X126138Y94905D01*
X126096Y94935D01*
X126051Y94961D01*
X126005Y94984D01*
X125957Y95004D01*
X125908Y95021D01*
X125858Y95033D01*
X125807Y95043D01*
X125756Y95048D01*
X125704Y95050D01*
X125645Y95048D01*
X125587Y95043D01*
X125529Y95033D01*
X125472Y95021D01*
X125416Y95004D01*
X125361Y94985D01*
X125307Y94961D01*
X125255Y94935D01*
X125205Y94905D01*
X125156Y94872D01*
X125110Y94836D01*
X125066Y94797D01*
X125025Y94756D01*
X124986Y94712D01*
X124950Y94666D01*
X124918Y94617D01*
X124888Y94567D01*
X124861Y94515D01*
X124838Y94461D01*
X124818Y94406D01*
X126188Y93761D02*
X126225Y93798D01*
X126259Y93838D01*
X126291Y93880D01*
X126319Y93925D01*
X126345Y93971D01*
X126367Y94018D01*
X126386Y94067D01*
X126402Y94117D01*
X126414Y94168D01*
X126423Y94220D01*
X126428Y94272D01*
X126430Y94325D01*
X126188Y93761D02*
X124818Y92150D01*
X126429Y92150D01*
X127729Y93278D02*
X129663Y93278D01*
X131058Y92150D02*
X131058Y95050D01*
X132669Y92150D01*
X132669Y95050D01*
X134046Y93600D02*
X134048Y93701D01*
X134053Y93802D01*
X134063Y93903D01*
X134076Y94004D01*
X134092Y94104D01*
X134113Y94203D01*
X134137Y94301D01*
X134164Y94399D01*
X134195Y94495D01*
X134230Y94590D01*
X134268Y94684D01*
X134309Y94777D01*
X134354Y94867D01*
X134402Y94956D01*
X134454Y95044D01*
X134508Y95129D01*
X134566Y95212D01*
X134627Y95293D01*
X134690Y95372D01*
X134046Y93600D02*
X134048Y93499D01*
X134053Y93398D01*
X134063Y93297D01*
X134076Y93196D01*
X134092Y93096D01*
X134113Y92997D01*
X134137Y92899D01*
X134164Y92801D01*
X134195Y92705D01*
X134230Y92610D01*
X134268Y92516D01*
X134309Y92423D01*
X134354Y92333D01*
X134402Y92244D01*
X134454Y92156D01*
X134508Y92071D01*
X134566Y91988D01*
X134627Y91907D01*
X134690Y91828D01*
X136088Y92150D02*
X136088Y95050D01*
X135766Y92150D02*
X136410Y92150D01*
X136410Y95050D02*
X135766Y95050D01*
X137682Y95050D02*
X137682Y92150D01*
X139293Y92150D02*
X137682Y95050D01*
X139293Y95050D02*
X139293Y92150D01*
X140558Y91828D02*
X140621Y91907D01*
X140682Y91988D01*
X140740Y92071D01*
X140794Y92156D01*
X140846Y92244D01*
X140894Y92333D01*
X140939Y92423D01*
X140980Y92516D01*
X141018Y92610D01*
X141053Y92705D01*
X141084Y92801D01*
X141111Y92899D01*
X141135Y92997D01*
X141156Y93096D01*
X141172Y93196D01*
X141185Y93297D01*
X141195Y93398D01*
X141200Y93499D01*
X141202Y93600D01*
X141200Y93701D01*
X141195Y93802D01*
X141185Y93903D01*
X141172Y94004D01*
X141156Y94104D01*
X141135Y94203D01*
X141111Y94301D01*
X141084Y94399D01*
X141053Y94495D01*
X141018Y94590D01*
X140980Y94684D01*
X140939Y94777D01*
X140894Y94867D01*
X140846Y94956D01*
X140794Y95044D01*
X140740Y95129D01*
X140682Y95212D01*
X140621Y95293D01*
X140558Y95372D01*
X125624Y87350D02*
X124818Y87350D01*
X125624Y87350D02*
X125679Y87352D01*
X125734Y87358D01*
X125788Y87367D01*
X125841Y87380D01*
X125894Y87397D01*
X125945Y87417D01*
X125995Y87440D01*
X126043Y87467D01*
X126089Y87498D01*
X126133Y87531D01*
X126174Y87567D01*
X126213Y87606D01*
X126249Y87647D01*
X126282Y87691D01*
X126313Y87737D01*
X126340Y87785D01*
X126363Y87835D01*
X126383Y87886D01*
X126400Y87939D01*
X126413Y87992D01*
X126422Y88046D01*
X126428Y88101D01*
X126430Y88156D01*
X126428Y88211D01*
X126422Y88266D01*
X126413Y88320D01*
X126400Y88373D01*
X126383Y88426D01*
X126363Y88477D01*
X126340Y88527D01*
X126313Y88575D01*
X126282Y88621D01*
X126249Y88665D01*
X126213Y88706D01*
X126174Y88745D01*
X126133Y88781D01*
X126089Y88814D01*
X126043Y88845D01*
X125995Y88872D01*
X125945Y88895D01*
X125894Y88915D01*
X125841Y88932D01*
X125788Y88945D01*
X125734Y88954D01*
X125679Y88960D01*
X125624Y88962D01*
X125785Y90250D02*
X124818Y90250D01*
X125785Y90250D02*
X125834Y90248D01*
X125883Y90242D01*
X125932Y90233D01*
X125979Y90220D01*
X126026Y90203D01*
X126071Y90183D01*
X126114Y90160D01*
X126156Y90133D01*
X126195Y90103D01*
X126232Y90070D01*
X126266Y90034D01*
X126297Y89996D01*
X126326Y89956D01*
X126351Y89914D01*
X126373Y89869D01*
X126391Y89824D01*
X126406Y89777D01*
X126417Y89729D01*
X126425Y89680D01*
X126429Y89631D01*
X126429Y89581D01*
X126425Y89532D01*
X126417Y89483D01*
X126406Y89435D01*
X126391Y89388D01*
X126373Y89343D01*
X126351Y89298D01*
X126326Y89256D01*
X126297Y89216D01*
X126266Y89178D01*
X126232Y89142D01*
X126195Y89109D01*
X126156Y89079D01*
X126114Y89052D01*
X126071Y89029D01*
X126026Y89009D01*
X125979Y88992D01*
X125932Y88979D01*
X125883Y88970D01*
X125834Y88964D01*
X125785Y88962D01*
X125785Y88961D02*
X125141Y88961D01*
X127729Y88478D02*
X129663Y88478D01*
X131105Y87350D02*
X131105Y90250D01*
X131910Y90250D01*
X131965Y90248D01*
X132020Y90242D01*
X132074Y90233D01*
X132127Y90220D01*
X132180Y90203D01*
X132231Y90183D01*
X132281Y90160D01*
X132329Y90133D01*
X132375Y90102D01*
X132419Y90069D01*
X132460Y90033D01*
X132499Y89994D01*
X132535Y89953D01*
X132568Y89909D01*
X132599Y89863D01*
X132626Y89815D01*
X132649Y89765D01*
X132669Y89714D01*
X132686Y89661D01*
X132699Y89608D01*
X132708Y89554D01*
X132714Y89499D01*
X132716Y89444D01*
X132714Y89389D01*
X132708Y89334D01*
X132699Y89280D01*
X132686Y89227D01*
X132669Y89174D01*
X132649Y89123D01*
X132626Y89073D01*
X132599Y89025D01*
X132568Y88979D01*
X132535Y88935D01*
X132499Y88894D01*
X132460Y88855D01*
X132419Y88819D01*
X132375Y88786D01*
X132329Y88755D01*
X132281Y88728D01*
X132231Y88705D01*
X132180Y88685D01*
X132127Y88668D01*
X132074Y88655D01*
X132020Y88646D01*
X131965Y88640D01*
X131910Y88638D01*
X131910Y88639D02*
X131105Y88639D01*
X133944Y87350D02*
X135233Y87350D01*
X133944Y87350D02*
X133944Y90250D01*
X135233Y90250D01*
X134911Y88961D02*
X133944Y88961D01*
X125463Y85450D02*
X124818Y83194D01*
X126429Y83194D01*
X125946Y83839D02*
X125946Y82550D01*
X127729Y83678D02*
X129663Y83678D01*
X131058Y82550D02*
X131058Y85450D01*
X132669Y82550D01*
X132669Y85450D01*
X134046Y84000D02*
X134048Y84101D01*
X134053Y84202D01*
X134063Y84303D01*
X134076Y84404D01*
X134092Y84504D01*
X134113Y84603D01*
X134137Y84701D01*
X134164Y84799D01*
X134195Y84895D01*
X134230Y84990D01*
X134268Y85084D01*
X134309Y85177D01*
X134354Y85267D01*
X134402Y85356D01*
X134454Y85444D01*
X134508Y85529D01*
X134566Y85612D01*
X134627Y85693D01*
X134690Y85772D01*
X134046Y84000D02*
X134048Y83899D01*
X134053Y83798D01*
X134063Y83697D01*
X134076Y83596D01*
X134092Y83496D01*
X134113Y83397D01*
X134137Y83299D01*
X134164Y83201D01*
X134195Y83105D01*
X134230Y83010D01*
X134268Y82916D01*
X134309Y82823D01*
X134354Y82733D01*
X134402Y82644D01*
X134454Y82556D01*
X134508Y82471D01*
X134566Y82388D01*
X134627Y82307D01*
X134690Y82228D01*
X135858Y83356D02*
X135858Y84644D01*
X135860Y84699D01*
X135866Y84754D01*
X135875Y84808D01*
X135888Y84861D01*
X135905Y84914D01*
X135925Y84965D01*
X135948Y85015D01*
X135975Y85063D01*
X136006Y85109D01*
X136039Y85153D01*
X136075Y85194D01*
X136114Y85233D01*
X136155Y85269D01*
X136199Y85302D01*
X136245Y85333D01*
X136293Y85360D01*
X136343Y85383D01*
X136394Y85403D01*
X136447Y85420D01*
X136500Y85433D01*
X136554Y85442D01*
X136609Y85448D01*
X136664Y85450D01*
X136719Y85448D01*
X136774Y85442D01*
X136828Y85433D01*
X136881Y85420D01*
X136934Y85403D01*
X136985Y85383D01*
X137035Y85360D01*
X137083Y85333D01*
X137129Y85302D01*
X137173Y85269D01*
X137214Y85233D01*
X137253Y85194D01*
X137289Y85153D01*
X137322Y85109D01*
X137353Y85063D01*
X137380Y85015D01*
X137403Y84965D01*
X137423Y84914D01*
X137440Y84861D01*
X137453Y84808D01*
X137462Y84754D01*
X137468Y84699D01*
X137470Y84644D01*
X137469Y84644D02*
X137469Y83356D01*
X137470Y83356D02*
X137468Y83301D01*
X137462Y83246D01*
X137453Y83192D01*
X137440Y83139D01*
X137423Y83086D01*
X137403Y83035D01*
X137380Y82985D01*
X137353Y82937D01*
X137322Y82891D01*
X137289Y82847D01*
X137253Y82806D01*
X137214Y82767D01*
X137173Y82731D01*
X137129Y82698D01*
X137083Y82667D01*
X137035Y82640D01*
X136985Y82617D01*
X136934Y82597D01*
X136881Y82580D01*
X136828Y82567D01*
X136774Y82558D01*
X136719Y82552D01*
X136664Y82550D01*
X136609Y82552D01*
X136554Y82558D01*
X136500Y82567D01*
X136447Y82580D01*
X136394Y82597D01*
X136343Y82617D01*
X136293Y82640D01*
X136245Y82667D01*
X136199Y82698D01*
X136155Y82731D01*
X136114Y82767D01*
X136075Y82806D01*
X136039Y82847D01*
X136006Y82891D01*
X135975Y82937D01*
X135948Y82985D01*
X135925Y83035D01*
X135905Y83086D01*
X135888Y83139D01*
X135875Y83192D01*
X135866Y83246D01*
X135860Y83301D01*
X135858Y83356D01*
X138834Y83356D02*
X138834Y85450D01*
X138834Y83356D02*
X138836Y83301D01*
X138842Y83246D01*
X138851Y83192D01*
X138864Y83139D01*
X138881Y83086D01*
X138901Y83035D01*
X138924Y82985D01*
X138951Y82937D01*
X138982Y82891D01*
X139015Y82847D01*
X139051Y82806D01*
X139090Y82767D01*
X139131Y82731D01*
X139175Y82698D01*
X139221Y82667D01*
X139269Y82640D01*
X139319Y82617D01*
X139370Y82597D01*
X139423Y82580D01*
X139476Y82567D01*
X139530Y82558D01*
X139585Y82552D01*
X139640Y82550D01*
X139695Y82552D01*
X139750Y82558D01*
X139804Y82567D01*
X139857Y82580D01*
X139910Y82597D01*
X139961Y82617D01*
X140011Y82640D01*
X140059Y82667D01*
X140105Y82698D01*
X140149Y82731D01*
X140190Y82767D01*
X140229Y82806D01*
X140265Y82847D01*
X140298Y82891D01*
X140329Y82937D01*
X140356Y82985D01*
X140379Y83035D01*
X140399Y83086D01*
X140416Y83139D01*
X140429Y83192D01*
X140438Y83246D01*
X140444Y83301D01*
X140446Y83356D01*
X140445Y83356D02*
X140445Y85450D01*
X142424Y85450D02*
X142424Y82550D01*
X141618Y85450D02*
X143229Y85450D01*
X144850Y84000D02*
X144848Y83899D01*
X144843Y83798D01*
X144833Y83697D01*
X144820Y83596D01*
X144804Y83496D01*
X144783Y83397D01*
X144759Y83299D01*
X144732Y83201D01*
X144701Y83105D01*
X144666Y83010D01*
X144628Y82916D01*
X144587Y82823D01*
X144542Y82733D01*
X144494Y82644D01*
X144442Y82556D01*
X144388Y82471D01*
X144330Y82388D01*
X144269Y82307D01*
X144206Y82228D01*
X144850Y84000D02*
X144848Y84101D01*
X144843Y84202D01*
X144833Y84303D01*
X144820Y84404D01*
X144804Y84504D01*
X144783Y84603D01*
X144759Y84701D01*
X144732Y84799D01*
X144701Y84895D01*
X144666Y84990D01*
X144628Y85084D01*
X144587Y85177D01*
X144542Y85267D01*
X144494Y85356D01*
X144442Y85444D01*
X144388Y85529D01*
X144330Y85612D01*
X144269Y85693D01*
X144206Y85772D01*
X125785Y77750D02*
X124818Y77750D01*
X125785Y77750D02*
X125833Y77752D01*
X125881Y77757D01*
X125928Y77766D01*
X125975Y77779D01*
X126020Y77795D01*
X126064Y77814D01*
X126107Y77836D01*
X126148Y77862D01*
X126187Y77891D01*
X126223Y77922D01*
X126257Y77956D01*
X126288Y77992D01*
X126317Y78031D01*
X126343Y78072D01*
X126365Y78115D01*
X126384Y78159D01*
X126400Y78204D01*
X126413Y78251D01*
X126422Y78298D01*
X126427Y78346D01*
X126429Y78394D01*
X126429Y78717D01*
X126427Y78765D01*
X126422Y78813D01*
X126413Y78860D01*
X126400Y78907D01*
X126384Y78952D01*
X126365Y78996D01*
X126343Y79039D01*
X126317Y79080D01*
X126288Y79119D01*
X126257Y79155D01*
X126223Y79189D01*
X126187Y79220D01*
X126148Y79249D01*
X126107Y79275D01*
X126064Y79297D01*
X126020Y79316D01*
X125975Y79332D01*
X125928Y79345D01*
X125881Y79354D01*
X125833Y79359D01*
X125785Y79361D01*
X124818Y79361D01*
X124818Y80650D01*
X126429Y80650D01*
X127729Y78878D02*
X129663Y78878D01*
X131064Y77750D02*
X131064Y80650D01*
X131064Y77750D02*
X132353Y77750D01*
X133470Y79200D02*
X133472Y79301D01*
X133477Y79402D01*
X133487Y79503D01*
X133500Y79604D01*
X133516Y79704D01*
X133537Y79803D01*
X133561Y79901D01*
X133588Y79999D01*
X133619Y80095D01*
X133654Y80190D01*
X133692Y80284D01*
X133733Y80377D01*
X133778Y80467D01*
X133826Y80556D01*
X133878Y80644D01*
X133932Y80729D01*
X133990Y80812D01*
X134051Y80893D01*
X134114Y80972D01*
X133470Y79200D02*
X133472Y79099D01*
X133477Y78998D01*
X133487Y78897D01*
X133500Y78796D01*
X133516Y78696D01*
X133537Y78597D01*
X133561Y78499D01*
X133588Y78401D01*
X133619Y78305D01*
X133654Y78210D01*
X133692Y78116D01*
X133733Y78023D01*
X133778Y77933D01*
X133826Y77844D01*
X133878Y77756D01*
X133932Y77671D01*
X133990Y77588D01*
X134051Y77507D01*
X134114Y77428D01*
X135282Y78556D02*
X135282Y79844D01*
X135284Y79899D01*
X135290Y79954D01*
X135299Y80008D01*
X135312Y80061D01*
X135329Y80114D01*
X135349Y80165D01*
X135372Y80215D01*
X135399Y80263D01*
X135430Y80309D01*
X135463Y80353D01*
X135499Y80394D01*
X135538Y80433D01*
X135579Y80469D01*
X135623Y80502D01*
X135669Y80533D01*
X135717Y80560D01*
X135767Y80583D01*
X135818Y80603D01*
X135871Y80620D01*
X135924Y80633D01*
X135978Y80642D01*
X136033Y80648D01*
X136088Y80650D01*
X136143Y80648D01*
X136198Y80642D01*
X136252Y80633D01*
X136305Y80620D01*
X136358Y80603D01*
X136409Y80583D01*
X136459Y80560D01*
X136507Y80533D01*
X136553Y80502D01*
X136597Y80469D01*
X136638Y80433D01*
X136677Y80394D01*
X136713Y80353D01*
X136746Y80309D01*
X136777Y80263D01*
X136804Y80215D01*
X136827Y80165D01*
X136847Y80114D01*
X136864Y80061D01*
X136877Y80008D01*
X136886Y79954D01*
X136892Y79899D01*
X136894Y79844D01*
X136893Y79844D02*
X136893Y78556D01*
X136894Y78556D02*
X136892Y78501D01*
X136886Y78446D01*
X136877Y78392D01*
X136864Y78339D01*
X136847Y78286D01*
X136827Y78235D01*
X136804Y78185D01*
X136777Y78137D01*
X136746Y78091D01*
X136713Y78047D01*
X136677Y78006D01*
X136638Y77967D01*
X136597Y77931D01*
X136553Y77898D01*
X136507Y77867D01*
X136459Y77840D01*
X136409Y77817D01*
X136358Y77797D01*
X136305Y77780D01*
X136252Y77767D01*
X136198Y77758D01*
X136143Y77752D01*
X136088Y77750D01*
X136033Y77752D01*
X135978Y77758D01*
X135924Y77767D01*
X135871Y77780D01*
X135818Y77797D01*
X135767Y77817D01*
X135717Y77840D01*
X135669Y77867D01*
X135623Y77898D01*
X135579Y77931D01*
X135538Y77967D01*
X135499Y78006D01*
X135463Y78047D01*
X135430Y78091D01*
X135399Y78137D01*
X135372Y78185D01*
X135349Y78235D01*
X135329Y78286D01*
X135312Y78339D01*
X135299Y78392D01*
X135290Y78446D01*
X135284Y78501D01*
X135282Y78556D01*
X138258Y78556D02*
X138258Y80650D01*
X138258Y78556D02*
X138260Y78501D01*
X138266Y78446D01*
X138275Y78392D01*
X138288Y78339D01*
X138305Y78286D01*
X138325Y78235D01*
X138348Y78185D01*
X138375Y78137D01*
X138406Y78091D01*
X138439Y78047D01*
X138475Y78006D01*
X138514Y77967D01*
X138555Y77931D01*
X138599Y77898D01*
X138645Y77867D01*
X138693Y77840D01*
X138743Y77817D01*
X138794Y77797D01*
X138847Y77780D01*
X138900Y77767D01*
X138954Y77758D01*
X139009Y77752D01*
X139064Y77750D01*
X139119Y77752D01*
X139174Y77758D01*
X139228Y77767D01*
X139281Y77780D01*
X139334Y77797D01*
X139385Y77817D01*
X139435Y77840D01*
X139483Y77867D01*
X139529Y77898D01*
X139573Y77931D01*
X139614Y77967D01*
X139653Y78006D01*
X139689Y78047D01*
X139722Y78091D01*
X139753Y78137D01*
X139780Y78185D01*
X139803Y78235D01*
X139823Y78286D01*
X139840Y78339D01*
X139853Y78392D01*
X139862Y78446D01*
X139868Y78501D01*
X139870Y78556D01*
X139869Y78556D02*
X139869Y80650D01*
X141848Y80650D02*
X141848Y77750D01*
X141042Y80650D02*
X142653Y80650D01*
X144274Y79200D02*
X144272Y79099D01*
X144267Y78998D01*
X144257Y78897D01*
X144244Y78796D01*
X144228Y78696D01*
X144207Y78597D01*
X144183Y78499D01*
X144156Y78401D01*
X144125Y78305D01*
X144090Y78210D01*
X144052Y78116D01*
X144011Y78023D01*
X143966Y77933D01*
X143918Y77844D01*
X143866Y77756D01*
X143812Y77671D01*
X143754Y77588D01*
X143693Y77507D01*
X143630Y77428D01*
X144274Y79200D02*
X144272Y79301D01*
X144267Y79402D01*
X144257Y79503D01*
X144244Y79604D01*
X144228Y79704D01*
X144207Y79803D01*
X144183Y79901D01*
X144156Y79999D01*
X144125Y80095D01*
X144090Y80190D01*
X144052Y80284D01*
X144011Y80377D01*
X143966Y80467D01*
X143918Y80556D01*
X143866Y80644D01*
X143812Y80729D01*
X143754Y80812D01*
X143693Y80893D01*
X143630Y80972D01*
D13*
X40250Y105750D02*
X40250Y1750D01*
X40250Y105750D02*
X2250Y105750D01*
X2250Y1750D01*
X40250Y1750D01*
X31250Y33750D02*
X31250Y73750D01*
X11250Y73750D01*
X11250Y33750D01*
X31250Y33750D01*
D14*
X4000Y53750D03*
X38500Y53750D03*
D12*
X41200Y48150D02*
X44100Y48150D01*
X41200Y48150D02*
X41200Y49439D01*
X42489Y49439D02*
X42489Y48150D01*
X43294Y50640D02*
X41200Y50640D01*
X43294Y50639D02*
X43349Y50641D01*
X43404Y50647D01*
X43458Y50656D01*
X43511Y50669D01*
X43564Y50686D01*
X43615Y50706D01*
X43665Y50729D01*
X43713Y50756D01*
X43759Y50787D01*
X43803Y50820D01*
X43844Y50856D01*
X43883Y50895D01*
X43919Y50936D01*
X43952Y50980D01*
X43983Y51026D01*
X44010Y51074D01*
X44033Y51124D01*
X44053Y51175D01*
X44070Y51228D01*
X44083Y51281D01*
X44092Y51335D01*
X44098Y51390D01*
X44100Y51445D01*
X44098Y51500D01*
X44092Y51555D01*
X44083Y51609D01*
X44070Y51662D01*
X44053Y51715D01*
X44033Y51766D01*
X44010Y51816D01*
X43983Y51864D01*
X43952Y51910D01*
X43919Y51954D01*
X43883Y51995D01*
X43844Y52034D01*
X43803Y52070D01*
X43759Y52103D01*
X43713Y52134D01*
X43665Y52161D01*
X43615Y52184D01*
X43564Y52204D01*
X43511Y52221D01*
X43458Y52234D01*
X43404Y52243D01*
X43349Y52249D01*
X43294Y52251D01*
X41200Y52251D01*
X43456Y55130D02*
X43504Y55128D01*
X43552Y55123D01*
X43599Y55114D01*
X43646Y55101D01*
X43691Y55085D01*
X43735Y55066D01*
X43778Y55044D01*
X43819Y55018D01*
X43858Y54989D01*
X43894Y54958D01*
X43928Y54924D01*
X43959Y54888D01*
X43988Y54849D01*
X44014Y54808D01*
X44036Y54765D01*
X44055Y54721D01*
X44071Y54676D01*
X44084Y54629D01*
X44093Y54582D01*
X44098Y54534D01*
X44100Y54486D01*
X44098Y54414D01*
X44092Y54343D01*
X44083Y54272D01*
X44070Y54202D01*
X44053Y54132D01*
X44033Y54063D01*
X44009Y53996D01*
X43981Y53930D01*
X43950Y53865D01*
X43916Y53802D01*
X43878Y53741D01*
X43837Y53682D01*
X43794Y53626D01*
X43747Y53571D01*
X43697Y53520D01*
X41844Y53601D02*
X41796Y53603D01*
X41748Y53608D01*
X41701Y53617D01*
X41654Y53630D01*
X41609Y53646D01*
X41565Y53665D01*
X41522Y53687D01*
X41481Y53713D01*
X41442Y53742D01*
X41406Y53773D01*
X41372Y53807D01*
X41341Y53843D01*
X41312Y53882D01*
X41286Y53923D01*
X41264Y53966D01*
X41245Y54010D01*
X41229Y54055D01*
X41216Y54102D01*
X41207Y54149D01*
X41202Y54197D01*
X41200Y54245D01*
X41202Y54310D01*
X41207Y54374D01*
X41216Y54439D01*
X41228Y54502D01*
X41243Y54565D01*
X41262Y54627D01*
X41284Y54688D01*
X41309Y54747D01*
X41338Y54806D01*
X41370Y54862D01*
X41404Y54917D01*
X41442Y54970D01*
X42408Y53922D02*
X42382Y53882D01*
X42353Y53843D01*
X42321Y53806D01*
X42286Y53772D01*
X42249Y53741D01*
X42210Y53712D01*
X42169Y53686D01*
X42126Y53664D01*
X42081Y53645D01*
X42035Y53629D01*
X41989Y53616D01*
X41941Y53607D01*
X41893Y53602D01*
X41844Y53600D01*
X42892Y54809D02*
X42918Y54849D01*
X42947Y54888D01*
X42979Y54925D01*
X43014Y54959D01*
X43051Y54990D01*
X43090Y55019D01*
X43131Y55045D01*
X43174Y55067D01*
X43219Y55086D01*
X43265Y55102D01*
X43311Y55115D01*
X43359Y55124D01*
X43407Y55129D01*
X43456Y55131D01*
X42892Y54809D02*
X42408Y53923D01*
X44100Y56406D02*
X44100Y57695D01*
X44100Y56406D02*
X41200Y56406D01*
X41200Y57695D01*
X42489Y57373D02*
X42489Y56406D01*
D13*
X101250Y231250D02*
X103750Y233750D01*
X101250Y231250D02*
X96250Y231250D01*
X93750Y233750D01*
X93750Y238750D01*
X96250Y241250D01*
X101250Y241250D01*
X103750Y238750D01*
X116250Y231250D02*
X121250Y231250D01*
X116250Y231250D02*
X113750Y233750D01*
X113750Y238750D01*
X116250Y241250D01*
X113750Y233750D02*
X111250Y231250D01*
X106250Y231250D01*
X103750Y233750D01*
X103750Y238750D01*
X106250Y241250D01*
X111250Y241250D01*
X113750Y238750D01*
X123750Y238750D02*
X123750Y233750D01*
X121250Y231250D01*
X123750Y238750D02*
X121250Y241250D01*
X116250Y241250D01*
X91250Y231250D02*
X86250Y231250D01*
X83750Y233750D01*
X83750Y238750D01*
X86250Y241250D01*
X93750Y233750D02*
X91250Y231250D01*
X93750Y238750D02*
X91250Y241250D01*
X86250Y241250D01*
D12*
X85817Y230250D02*
X85817Y227994D01*
X85816Y227994D02*
X85814Y227946D01*
X85809Y227898D01*
X85800Y227851D01*
X85787Y227804D01*
X85771Y227759D01*
X85752Y227715D01*
X85730Y227672D01*
X85704Y227631D01*
X85675Y227592D01*
X85644Y227556D01*
X85610Y227522D01*
X85574Y227491D01*
X85535Y227462D01*
X85494Y227436D01*
X85451Y227414D01*
X85407Y227395D01*
X85362Y227379D01*
X85315Y227366D01*
X85268Y227357D01*
X85220Y227352D01*
X85172Y227350D01*
X84850Y227350D01*
X87311Y227350D02*
X87311Y230250D01*
X88117Y230250D01*
X88172Y230248D01*
X88227Y230242D01*
X88281Y230233D01*
X88334Y230220D01*
X88387Y230203D01*
X88438Y230183D01*
X88488Y230160D01*
X88536Y230133D01*
X88582Y230102D01*
X88626Y230069D01*
X88667Y230033D01*
X88706Y229994D01*
X88742Y229953D01*
X88775Y229909D01*
X88806Y229863D01*
X88833Y229815D01*
X88856Y229765D01*
X88876Y229714D01*
X88893Y229661D01*
X88906Y229608D01*
X88915Y229554D01*
X88921Y229499D01*
X88923Y229444D01*
X88921Y229389D01*
X88915Y229334D01*
X88906Y229280D01*
X88893Y229227D01*
X88876Y229174D01*
X88856Y229123D01*
X88833Y229073D01*
X88806Y229025D01*
X88775Y228979D01*
X88742Y228935D01*
X88706Y228894D01*
X88667Y228855D01*
X88626Y228819D01*
X88582Y228786D01*
X88536Y228755D01*
X88488Y228728D01*
X88438Y228705D01*
X88387Y228685D01*
X88334Y228668D01*
X88281Y228655D01*
X88227Y228646D01*
X88172Y228640D01*
X88117Y228638D01*
X88117Y228639D02*
X87311Y228639D01*
X90049Y229606D02*
X90854Y230250D01*
X90854Y227350D01*
X90049Y227350D02*
X91660Y227350D01*
D13*
X98750Y121250D02*
X103750Y121250D01*
X106250Y118750D01*
X106250Y113750D01*
X103750Y111250D01*
X96250Y113750D02*
X96250Y118750D01*
X98750Y121250D01*
X96250Y113750D02*
X98750Y111250D01*
X103750Y111250D01*
X106250Y118750D02*
X108750Y121250D01*
X113750Y121250D01*
X116250Y118750D01*
X116250Y113750D01*
X113750Y111250D01*
X108750Y111250D01*
X106250Y113750D01*
D12*
X103600Y122350D02*
X103600Y125250D01*
X103600Y122350D02*
X104889Y122350D01*
X106096Y122350D02*
X107385Y122350D01*
X106096Y122350D02*
X106096Y125250D01*
X107385Y125250D01*
X107063Y123961D02*
X106096Y123961D01*
X108586Y125250D02*
X108586Y122350D01*
X108586Y125250D02*
X109391Y125250D01*
X109446Y125248D01*
X109501Y125242D01*
X109555Y125233D01*
X109608Y125220D01*
X109661Y125203D01*
X109712Y125183D01*
X109762Y125160D01*
X109810Y125133D01*
X109856Y125102D01*
X109900Y125069D01*
X109941Y125033D01*
X109980Y124994D01*
X110016Y124953D01*
X110049Y124909D01*
X110080Y124863D01*
X110107Y124815D01*
X110130Y124765D01*
X110150Y124714D01*
X110167Y124661D01*
X110180Y124608D01*
X110189Y124554D01*
X110195Y124499D01*
X110197Y124444D01*
X110197Y123156D01*
X110195Y123101D01*
X110189Y123046D01*
X110180Y122992D01*
X110167Y122939D01*
X110150Y122886D01*
X110130Y122835D01*
X110107Y122785D01*
X110080Y122737D01*
X110049Y122691D01*
X110016Y122647D01*
X109980Y122606D01*
X109941Y122567D01*
X109900Y122531D01*
X109856Y122498D01*
X109810Y122467D01*
X109762Y122440D01*
X109712Y122417D01*
X109661Y122397D01*
X109608Y122380D01*
X109555Y122367D01*
X109501Y122358D01*
X109446Y122352D01*
X109391Y122350D01*
X108586Y122350D01*
D10*
X45000Y99587D02*
X45000Y46437D01*
X45002Y46313D01*
X45008Y46190D01*
X45017Y46066D01*
X45031Y45944D01*
X45048Y45821D01*
X45070Y45699D01*
X45095Y45578D01*
X45124Y45458D01*
X45156Y45339D01*
X45193Y45220D01*
X45233Y45103D01*
X45276Y44988D01*
X45324Y44873D01*
X45375Y44761D01*
X45429Y44650D01*
X45487Y44540D01*
X45548Y44433D01*
X45613Y44327D01*
X45681Y44224D01*
X45752Y44123D01*
X45826Y44024D01*
X45903Y43927D01*
X45984Y43833D01*
X46067Y43742D01*
X46153Y43653D01*
X46242Y43567D01*
X46333Y43484D01*
X46427Y43403D01*
X46524Y43326D01*
X46623Y43252D01*
X46724Y43181D01*
X46827Y43113D01*
X46933Y43048D01*
X47040Y42987D01*
X47150Y42929D01*
X47261Y42875D01*
X47373Y42824D01*
X47488Y42776D01*
X47603Y42733D01*
X47720Y42693D01*
X47839Y42656D01*
X47958Y42624D01*
X48078Y42595D01*
X48199Y42570D01*
X48321Y42548D01*
X48444Y42531D01*
X48566Y42517D01*
X48690Y42508D01*
X48813Y42502D01*
X48937Y42500D01*
X115866Y42500D01*
X115990Y42502D01*
X116113Y42508D01*
X116237Y42517D01*
X116359Y42531D01*
X116482Y42548D01*
X116604Y42570D01*
X116725Y42595D01*
X116845Y42624D01*
X116964Y42656D01*
X117083Y42693D01*
X117200Y42733D01*
X117315Y42776D01*
X117430Y42824D01*
X117542Y42875D01*
X117653Y42929D01*
X117763Y42987D01*
X117870Y43048D01*
X117976Y43113D01*
X118079Y43181D01*
X118180Y43252D01*
X118279Y43326D01*
X118376Y43403D01*
X118470Y43484D01*
X118561Y43567D01*
X118650Y43653D01*
X118736Y43742D01*
X118819Y43833D01*
X118900Y43927D01*
X118977Y44024D01*
X119051Y44123D01*
X119122Y44224D01*
X119190Y44327D01*
X119255Y44433D01*
X119316Y44540D01*
X119374Y44650D01*
X119428Y44761D01*
X119479Y44873D01*
X119527Y44988D01*
X119570Y45103D01*
X119610Y45220D01*
X119647Y45339D01*
X119679Y45458D01*
X119708Y45578D01*
X119733Y45699D01*
X119755Y45821D01*
X119772Y45944D01*
X119786Y46066D01*
X119795Y46190D01*
X119801Y46313D01*
X119803Y46437D01*
X119803Y99587D01*
X119801Y99711D01*
X119795Y99834D01*
X119786Y99958D01*
X119772Y100080D01*
X119755Y100203D01*
X119733Y100325D01*
X119708Y100446D01*
X119679Y100566D01*
X119647Y100685D01*
X119610Y100804D01*
X119570Y100921D01*
X119527Y101036D01*
X119479Y101151D01*
X119428Y101263D01*
X119374Y101374D01*
X119316Y101484D01*
X119255Y101591D01*
X119190Y101697D01*
X119122Y101800D01*
X119051Y101901D01*
X118977Y102000D01*
X118900Y102097D01*
X118819Y102191D01*
X118736Y102282D01*
X118650Y102371D01*
X118561Y102457D01*
X118470Y102540D01*
X118376Y102621D01*
X118279Y102698D01*
X118180Y102772D01*
X118079Y102843D01*
X117976Y102911D01*
X117870Y102976D01*
X117763Y103037D01*
X117653Y103095D01*
X117542Y103149D01*
X117430Y103200D01*
X117315Y103248D01*
X117200Y103291D01*
X117083Y103331D01*
X116964Y103368D01*
X116845Y103400D01*
X116725Y103429D01*
X116604Y103454D01*
X116482Y103476D01*
X116359Y103493D01*
X116237Y103507D01*
X116113Y103516D01*
X115990Y103522D01*
X115866Y103524D01*
X48937Y103524D01*
X48813Y103522D01*
X48690Y103516D01*
X48566Y103507D01*
X48444Y103493D01*
X48321Y103476D01*
X48199Y103454D01*
X48078Y103429D01*
X47958Y103400D01*
X47839Y103368D01*
X47720Y103331D01*
X47603Y103291D01*
X47488Y103248D01*
X47373Y103200D01*
X47261Y103149D01*
X47150Y103095D01*
X47040Y103037D01*
X46933Y102976D01*
X46827Y102911D01*
X46724Y102843D01*
X46623Y102772D01*
X46524Y102698D01*
X46427Y102621D01*
X46333Y102540D01*
X46242Y102457D01*
X46153Y102371D01*
X46067Y102282D01*
X45984Y102191D01*
X45903Y102097D01*
X45826Y102000D01*
X45752Y101901D01*
X45681Y101800D01*
X45613Y101697D01*
X45548Y101591D01*
X45487Y101484D01*
X45429Y101374D01*
X45375Y101263D01*
X45324Y101151D01*
X45276Y101036D01*
X45233Y100921D01*
X45193Y100804D01*
X45156Y100685D01*
X45124Y100566D01*
X45095Y100446D01*
X45070Y100325D01*
X45048Y100203D01*
X45031Y100080D01*
X45017Y99958D01*
X45008Y99834D01*
X45002Y99711D01*
X45000Y99587D01*
D15*
X70748Y73996D02*
X92244Y73996D01*
X96181Y96437D02*
X106417Y96437D01*
X106811Y49587D02*
X96181Y49587D01*
X96181Y70059D01*
X92244Y73996D02*
X100118Y81870D01*
X96181Y78327D02*
X96181Y96437D01*
D12*
X120950Y69525D02*
X123850Y69525D01*
X120950Y69525D02*
X120950Y70331D01*
X120952Y70386D01*
X120958Y70441D01*
X120967Y70495D01*
X120980Y70548D01*
X120997Y70601D01*
X121017Y70652D01*
X121040Y70702D01*
X121067Y70750D01*
X121098Y70796D01*
X121131Y70840D01*
X121167Y70881D01*
X121206Y70920D01*
X121247Y70956D01*
X121291Y70989D01*
X121337Y71020D01*
X121385Y71047D01*
X121435Y71070D01*
X121486Y71090D01*
X121539Y71107D01*
X121592Y71120D01*
X121646Y71129D01*
X121701Y71135D01*
X121756Y71137D01*
X121811Y71135D01*
X121866Y71129D01*
X121920Y71120D01*
X121973Y71107D01*
X122026Y71090D01*
X122077Y71070D01*
X122127Y71047D01*
X122175Y71020D01*
X122221Y70989D01*
X122265Y70956D01*
X122306Y70920D01*
X122345Y70881D01*
X122381Y70840D01*
X122414Y70796D01*
X122445Y70750D01*
X122472Y70702D01*
X122495Y70652D01*
X122515Y70601D01*
X122532Y70548D01*
X122545Y70495D01*
X122554Y70441D01*
X122560Y70386D01*
X122562Y70331D01*
X122561Y70331D02*
X122561Y69525D01*
X122561Y70492D02*
X123850Y71136D01*
X123850Y72487D02*
X123850Y73776D01*
X123850Y72487D02*
X120950Y72487D01*
X120950Y73776D01*
X122239Y73454D02*
X122239Y72487D01*
X120950Y74983D02*
X123850Y74983D01*
X123850Y76272D01*
D13*
X141750Y237000D02*
X141750Y238000D01*
X135750Y238000D01*
X135750Y237000D01*
X135750Y213000D02*
X135750Y212000D01*
X141750Y212000D01*
X141750Y213000D01*
D11*
X127750Y220000D02*
X126750Y220000D01*
X127750Y220000D02*
X127750Y230000D01*
X126750Y230000D01*
X149750Y229500D02*
X149750Y220000D01*
X149750Y229500D02*
X150750Y229500D01*
X150750Y220000D02*
X149750Y220000D01*
D13*
X150750Y220000D02*
X150750Y216500D01*
X126750Y230000D02*
X126750Y233500D01*
X126750Y230000D02*
X126750Y220000D01*
X126750Y216500D01*
X150750Y220000D02*
X150750Y229500D01*
X150750Y233500D01*
X142750Y237000D02*
X141750Y237000D01*
X135750Y237000D02*
X134750Y237000D01*
X141750Y213000D02*
X142750Y213000D01*
X135750Y213000D02*
X134750Y213000D01*
X131750Y225000D02*
X131752Y225172D01*
X131758Y225343D01*
X131769Y225515D01*
X131784Y225686D01*
X131803Y225857D01*
X131826Y226027D01*
X131853Y226197D01*
X131885Y226366D01*
X131920Y226534D01*
X131960Y226701D01*
X132004Y226867D01*
X132051Y227032D01*
X132103Y227196D01*
X132159Y227358D01*
X132219Y227519D01*
X132283Y227679D01*
X132351Y227837D01*
X132422Y227993D01*
X132497Y228147D01*
X132577Y228300D01*
X132659Y228450D01*
X132746Y228599D01*
X132836Y228745D01*
X132930Y228889D01*
X133027Y229031D01*
X133128Y229170D01*
X133232Y229307D01*
X133339Y229441D01*
X133450Y229572D01*
X133563Y229701D01*
X133680Y229827D01*
X133800Y229950D01*
X133923Y230070D01*
X134049Y230187D01*
X134178Y230300D01*
X134309Y230411D01*
X134443Y230518D01*
X134580Y230622D01*
X134719Y230723D01*
X134861Y230820D01*
X135005Y230914D01*
X135151Y231004D01*
X135300Y231091D01*
X135450Y231173D01*
X135603Y231253D01*
X135757Y231328D01*
X135913Y231399D01*
X136071Y231467D01*
X136231Y231531D01*
X136392Y231591D01*
X136554Y231647D01*
X136718Y231699D01*
X136883Y231746D01*
X137049Y231790D01*
X137216Y231830D01*
X137384Y231865D01*
X137553Y231897D01*
X137723Y231924D01*
X137893Y231947D01*
X138064Y231966D01*
X138235Y231981D01*
X138407Y231992D01*
X138578Y231998D01*
X138750Y232000D01*
X138922Y231998D01*
X139093Y231992D01*
X139265Y231981D01*
X139436Y231966D01*
X139607Y231947D01*
X139777Y231924D01*
X139947Y231897D01*
X140116Y231865D01*
X140284Y231830D01*
X140451Y231790D01*
X140617Y231746D01*
X140782Y231699D01*
X140946Y231647D01*
X141108Y231591D01*
X141269Y231531D01*
X141429Y231467D01*
X141587Y231399D01*
X141743Y231328D01*
X141897Y231253D01*
X142050Y231173D01*
X142200Y231091D01*
X142349Y231004D01*
X142495Y230914D01*
X142639Y230820D01*
X142781Y230723D01*
X142920Y230622D01*
X143057Y230518D01*
X143191Y230411D01*
X143322Y230300D01*
X143451Y230187D01*
X143577Y230070D01*
X143700Y229950D01*
X143820Y229827D01*
X143937Y229701D01*
X144050Y229572D01*
X144161Y229441D01*
X144268Y229307D01*
X144372Y229170D01*
X144473Y229031D01*
X144570Y228889D01*
X144664Y228745D01*
X144754Y228599D01*
X144841Y228450D01*
X144923Y228300D01*
X145003Y228147D01*
X145078Y227993D01*
X145149Y227837D01*
X145217Y227679D01*
X145281Y227519D01*
X145341Y227358D01*
X145397Y227196D01*
X145449Y227032D01*
X145496Y226867D01*
X145540Y226701D01*
X145580Y226534D01*
X145615Y226366D01*
X145647Y226197D01*
X145674Y226027D01*
X145697Y225857D01*
X145716Y225686D01*
X145731Y225515D01*
X145742Y225343D01*
X145748Y225172D01*
X145750Y225000D01*
X145748Y224828D01*
X145742Y224657D01*
X145731Y224485D01*
X145716Y224314D01*
X145697Y224143D01*
X145674Y223973D01*
X145647Y223803D01*
X145615Y223634D01*
X145580Y223466D01*
X145540Y223299D01*
X145496Y223133D01*
X145449Y222968D01*
X145397Y222804D01*
X145341Y222642D01*
X145281Y222481D01*
X145217Y222321D01*
X145149Y222163D01*
X145078Y222007D01*
X145003Y221853D01*
X144923Y221700D01*
X144841Y221550D01*
X144754Y221401D01*
X144664Y221255D01*
X144570Y221111D01*
X144473Y220969D01*
X144372Y220830D01*
X144268Y220693D01*
X144161Y220559D01*
X144050Y220428D01*
X143937Y220299D01*
X143820Y220173D01*
X143700Y220050D01*
X143577Y219930D01*
X143451Y219813D01*
X143322Y219700D01*
X143191Y219589D01*
X143057Y219482D01*
X142920Y219378D01*
X142781Y219277D01*
X142639Y219180D01*
X142495Y219086D01*
X142349Y218996D01*
X142200Y218909D01*
X142050Y218827D01*
X141897Y218747D01*
X141743Y218672D01*
X141587Y218601D01*
X141429Y218533D01*
X141269Y218469D01*
X141108Y218409D01*
X140946Y218353D01*
X140782Y218301D01*
X140617Y218254D01*
X140451Y218210D01*
X140284Y218170D01*
X140116Y218135D01*
X139947Y218103D01*
X139777Y218076D01*
X139607Y218053D01*
X139436Y218034D01*
X139265Y218019D01*
X139093Y218008D01*
X138922Y218002D01*
X138750Y218000D01*
X138578Y218002D01*
X138407Y218008D01*
X138235Y218019D01*
X138064Y218034D01*
X137893Y218053D01*
X137723Y218076D01*
X137553Y218103D01*
X137384Y218135D01*
X137216Y218170D01*
X137049Y218210D01*
X136883Y218254D01*
X136718Y218301D01*
X136554Y218353D01*
X136392Y218409D01*
X136231Y218469D01*
X136071Y218533D01*
X135913Y218601D01*
X135757Y218672D01*
X135603Y218747D01*
X135450Y218827D01*
X135300Y218909D01*
X135151Y218996D01*
X135005Y219086D01*
X134861Y219180D01*
X134719Y219277D01*
X134580Y219378D01*
X134443Y219482D01*
X134309Y219589D01*
X134178Y219700D01*
X134049Y219813D01*
X133923Y219930D01*
X133800Y220050D01*
X133680Y220173D01*
X133563Y220299D01*
X133450Y220428D01*
X133339Y220559D01*
X133232Y220693D01*
X133128Y220830D01*
X133027Y220969D01*
X132930Y221111D01*
X132836Y221255D01*
X132746Y221401D01*
X132659Y221550D01*
X132577Y221700D01*
X132497Y221853D01*
X132422Y222007D01*
X132351Y222163D01*
X132283Y222321D01*
X132219Y222481D01*
X132159Y222642D01*
X132103Y222804D01*
X132051Y222968D01*
X132004Y223133D01*
X131960Y223299D01*
X131920Y223466D01*
X131885Y223634D01*
X131853Y223803D01*
X131826Y223973D01*
X131803Y224143D01*
X131784Y224314D01*
X131769Y224485D01*
X131758Y224657D01*
X131752Y224828D01*
X131750Y225000D01*
X137750Y225000D02*
X137752Y225063D01*
X137758Y225125D01*
X137768Y225187D01*
X137781Y225249D01*
X137799Y225309D01*
X137820Y225368D01*
X137845Y225426D01*
X137874Y225482D01*
X137906Y225536D01*
X137941Y225588D01*
X137979Y225637D01*
X138021Y225685D01*
X138065Y225729D01*
X138113Y225771D01*
X138162Y225809D01*
X138214Y225844D01*
X138268Y225876D01*
X138324Y225905D01*
X138382Y225930D01*
X138441Y225951D01*
X138501Y225969D01*
X138563Y225982D01*
X138625Y225992D01*
X138687Y225998D01*
X138750Y226000D01*
X138813Y225998D01*
X138875Y225992D01*
X138937Y225982D01*
X138999Y225969D01*
X139059Y225951D01*
X139118Y225930D01*
X139176Y225905D01*
X139232Y225876D01*
X139286Y225844D01*
X139338Y225809D01*
X139387Y225771D01*
X139435Y225729D01*
X139479Y225685D01*
X139521Y225637D01*
X139559Y225588D01*
X139594Y225536D01*
X139626Y225482D01*
X139655Y225426D01*
X139680Y225368D01*
X139701Y225309D01*
X139719Y225249D01*
X139732Y225187D01*
X139742Y225125D01*
X139748Y225063D01*
X139750Y225000D01*
X139748Y224937D01*
X139742Y224875D01*
X139732Y224813D01*
X139719Y224751D01*
X139701Y224691D01*
X139680Y224632D01*
X139655Y224574D01*
X139626Y224518D01*
X139594Y224464D01*
X139559Y224412D01*
X139521Y224363D01*
X139479Y224315D01*
X139435Y224271D01*
X139387Y224229D01*
X139338Y224191D01*
X139286Y224156D01*
X139232Y224124D01*
X139176Y224095D01*
X139118Y224070D01*
X139059Y224049D01*
X138999Y224031D01*
X138937Y224018D01*
X138875Y224008D01*
X138813Y224002D01*
X138750Y224000D01*
X138687Y224002D01*
X138625Y224008D01*
X138563Y224018D01*
X138501Y224031D01*
X138441Y224049D01*
X138382Y224070D01*
X138324Y224095D01*
X138268Y224124D01*
X138214Y224156D01*
X138162Y224191D01*
X138113Y224229D01*
X138065Y224271D01*
X138021Y224315D01*
X137979Y224363D01*
X137941Y224412D01*
X137906Y224464D01*
X137874Y224518D01*
X137845Y224574D01*
X137820Y224632D01*
X137799Y224691D01*
X137781Y224751D01*
X137768Y224813D01*
X137758Y224875D01*
X137752Y224937D01*
X137750Y225000D01*
D12*
X125350Y218150D02*
X122450Y218150D01*
X122450Y218956D01*
X122452Y219011D01*
X122458Y219066D01*
X122467Y219120D01*
X122480Y219173D01*
X122497Y219226D01*
X122517Y219277D01*
X122540Y219327D01*
X122567Y219375D01*
X122598Y219421D01*
X122631Y219465D01*
X122667Y219506D01*
X122706Y219545D01*
X122747Y219581D01*
X122791Y219614D01*
X122837Y219645D01*
X122885Y219672D01*
X122935Y219695D01*
X122986Y219715D01*
X123039Y219732D01*
X123092Y219745D01*
X123146Y219754D01*
X123201Y219760D01*
X123256Y219762D01*
X123311Y219760D01*
X123366Y219754D01*
X123420Y219745D01*
X123473Y219732D01*
X123526Y219715D01*
X123577Y219695D01*
X123627Y219672D01*
X123675Y219645D01*
X123721Y219614D01*
X123765Y219581D01*
X123806Y219545D01*
X123845Y219506D01*
X123881Y219465D01*
X123914Y219421D01*
X123945Y219375D01*
X123972Y219327D01*
X123995Y219277D01*
X124015Y219226D01*
X124032Y219173D01*
X124045Y219120D01*
X124054Y219066D01*
X124060Y219011D01*
X124062Y218956D01*
X124061Y218956D02*
X124061Y218150D01*
X125350Y221004D02*
X122450Y221004D01*
X122450Y221809D01*
X122452Y221864D01*
X122458Y221919D01*
X122467Y221973D01*
X122480Y222026D01*
X122497Y222079D01*
X122517Y222130D01*
X122540Y222180D01*
X122567Y222228D01*
X122598Y222274D01*
X122631Y222318D01*
X122667Y222359D01*
X122706Y222398D01*
X122747Y222434D01*
X122791Y222467D01*
X122837Y222498D01*
X122885Y222525D01*
X122935Y222548D01*
X122986Y222568D01*
X123039Y222585D01*
X123092Y222598D01*
X123146Y222607D01*
X123201Y222613D01*
X123256Y222615D01*
X123311Y222613D01*
X123366Y222607D01*
X123420Y222598D01*
X123473Y222585D01*
X123526Y222568D01*
X123577Y222548D01*
X123627Y222525D01*
X123675Y222498D01*
X123721Y222467D01*
X123765Y222434D01*
X123806Y222398D01*
X123845Y222359D01*
X123881Y222318D01*
X123914Y222274D01*
X123945Y222228D01*
X123972Y222180D01*
X123995Y222130D01*
X124015Y222079D01*
X124032Y222026D01*
X124045Y221973D01*
X124054Y221919D01*
X124060Y221864D01*
X124062Y221809D01*
X124061Y221809D02*
X124061Y221004D01*
X124061Y221970D02*
X125350Y222615D01*
X123739Y225087D02*
X123739Y225571D01*
X125350Y225571D01*
X125350Y224604D01*
X125348Y224556D01*
X125343Y224508D01*
X125334Y224461D01*
X125321Y224414D01*
X125305Y224369D01*
X125286Y224325D01*
X125264Y224282D01*
X125238Y224241D01*
X125209Y224202D01*
X125178Y224166D01*
X125144Y224132D01*
X125108Y224101D01*
X125069Y224072D01*
X125028Y224046D01*
X124985Y224024D01*
X124941Y224005D01*
X124896Y223989D01*
X124849Y223976D01*
X124802Y223967D01*
X124754Y223962D01*
X124706Y223960D01*
X123094Y223960D01*
X123043Y223962D01*
X122993Y223968D01*
X122944Y223978D01*
X122895Y223992D01*
X122848Y224009D01*
X122802Y224030D01*
X122758Y224055D01*
X122715Y224083D01*
X122676Y224114D01*
X122639Y224149D01*
X122604Y224186D01*
X122573Y224225D01*
X122545Y224267D01*
X122520Y224312D01*
X122499Y224358D01*
X122482Y224405D01*
X122468Y224454D01*
X122458Y224503D01*
X122452Y224553D01*
X122450Y224604D01*
X122450Y225571D01*
X122450Y227063D02*
X125350Y227063D01*
X124061Y228029D02*
X122450Y227063D01*
X124061Y228029D02*
X122450Y228996D01*
X125350Y228996D01*
D13*
X141750Y138000D02*
X141750Y137000D01*
X141750Y138000D02*
X135750Y138000D01*
X135750Y137000D01*
X135750Y113000D02*
X135750Y112000D01*
X141750Y112000D01*
X141750Y113000D01*
D11*
X127750Y120000D02*
X126750Y120000D01*
X127750Y120000D02*
X127750Y130000D01*
X126750Y130000D01*
X149750Y129500D02*
X149750Y120000D01*
X149750Y129500D02*
X150750Y129500D01*
X150750Y120000D02*
X149750Y120000D01*
D13*
X150750Y120000D02*
X150750Y116500D01*
X126750Y130000D02*
X126750Y133500D01*
X126750Y130000D02*
X126750Y120000D01*
X126750Y116500D01*
X150750Y120000D02*
X150750Y129500D01*
X150750Y133500D01*
X142750Y137000D02*
X141750Y137000D01*
X135750Y137000D02*
X134750Y137000D01*
X141750Y113000D02*
X142750Y113000D01*
X135750Y113000D02*
X134750Y113000D01*
X131750Y125000D02*
X131752Y125172D01*
X131758Y125343D01*
X131769Y125515D01*
X131784Y125686D01*
X131803Y125857D01*
X131826Y126027D01*
X131853Y126197D01*
X131885Y126366D01*
X131920Y126534D01*
X131960Y126701D01*
X132004Y126867D01*
X132051Y127032D01*
X132103Y127196D01*
X132159Y127358D01*
X132219Y127519D01*
X132283Y127679D01*
X132351Y127837D01*
X132422Y127993D01*
X132497Y128147D01*
X132577Y128300D01*
X132659Y128450D01*
X132746Y128599D01*
X132836Y128745D01*
X132930Y128889D01*
X133027Y129031D01*
X133128Y129170D01*
X133232Y129307D01*
X133339Y129441D01*
X133450Y129572D01*
X133563Y129701D01*
X133680Y129827D01*
X133800Y129950D01*
X133923Y130070D01*
X134049Y130187D01*
X134178Y130300D01*
X134309Y130411D01*
X134443Y130518D01*
X134580Y130622D01*
X134719Y130723D01*
X134861Y130820D01*
X135005Y130914D01*
X135151Y131004D01*
X135300Y131091D01*
X135450Y131173D01*
X135603Y131253D01*
X135757Y131328D01*
X135913Y131399D01*
X136071Y131467D01*
X136231Y131531D01*
X136392Y131591D01*
X136554Y131647D01*
X136718Y131699D01*
X136883Y131746D01*
X137049Y131790D01*
X137216Y131830D01*
X137384Y131865D01*
X137553Y131897D01*
X137723Y131924D01*
X137893Y131947D01*
X138064Y131966D01*
X138235Y131981D01*
X138407Y131992D01*
X138578Y131998D01*
X138750Y132000D01*
X138922Y131998D01*
X139093Y131992D01*
X139265Y131981D01*
X139436Y131966D01*
X139607Y131947D01*
X139777Y131924D01*
X139947Y131897D01*
X140116Y131865D01*
X140284Y131830D01*
X140451Y131790D01*
X140617Y131746D01*
X140782Y131699D01*
X140946Y131647D01*
X141108Y131591D01*
X141269Y131531D01*
X141429Y131467D01*
X141587Y131399D01*
X141743Y131328D01*
X141897Y131253D01*
X142050Y131173D01*
X142200Y131091D01*
X142349Y131004D01*
X142495Y130914D01*
X142639Y130820D01*
X142781Y130723D01*
X142920Y130622D01*
X143057Y130518D01*
X143191Y130411D01*
X143322Y130300D01*
X143451Y130187D01*
X143577Y130070D01*
X143700Y129950D01*
X143820Y129827D01*
X143937Y129701D01*
X144050Y129572D01*
X144161Y129441D01*
X144268Y129307D01*
X144372Y129170D01*
X144473Y129031D01*
X144570Y128889D01*
X144664Y128745D01*
X144754Y128599D01*
X144841Y128450D01*
X144923Y128300D01*
X145003Y128147D01*
X145078Y127993D01*
X145149Y127837D01*
X145217Y127679D01*
X145281Y127519D01*
X145341Y127358D01*
X145397Y127196D01*
X145449Y127032D01*
X145496Y126867D01*
X145540Y126701D01*
X145580Y126534D01*
X145615Y126366D01*
X145647Y126197D01*
X145674Y126027D01*
X145697Y125857D01*
X145716Y125686D01*
X145731Y125515D01*
X145742Y125343D01*
X145748Y125172D01*
X145750Y125000D01*
X145748Y124828D01*
X145742Y124657D01*
X145731Y124485D01*
X145716Y124314D01*
X145697Y124143D01*
X145674Y123973D01*
X145647Y123803D01*
X145615Y123634D01*
X145580Y123466D01*
X145540Y123299D01*
X145496Y123133D01*
X145449Y122968D01*
X145397Y122804D01*
X145341Y122642D01*
X145281Y122481D01*
X145217Y122321D01*
X145149Y122163D01*
X145078Y122007D01*
X145003Y121853D01*
X144923Y121700D01*
X144841Y121550D01*
X144754Y121401D01*
X144664Y121255D01*
X144570Y121111D01*
X144473Y120969D01*
X144372Y120830D01*
X144268Y120693D01*
X144161Y120559D01*
X144050Y120428D01*
X143937Y120299D01*
X143820Y120173D01*
X143700Y120050D01*
X143577Y119930D01*
X143451Y119813D01*
X143322Y119700D01*
X143191Y119589D01*
X143057Y119482D01*
X142920Y119378D01*
X142781Y119277D01*
X142639Y119180D01*
X142495Y119086D01*
X142349Y118996D01*
X142200Y118909D01*
X142050Y118827D01*
X141897Y118747D01*
X141743Y118672D01*
X141587Y118601D01*
X141429Y118533D01*
X141269Y118469D01*
X141108Y118409D01*
X140946Y118353D01*
X140782Y118301D01*
X140617Y118254D01*
X140451Y118210D01*
X140284Y118170D01*
X140116Y118135D01*
X139947Y118103D01*
X139777Y118076D01*
X139607Y118053D01*
X139436Y118034D01*
X139265Y118019D01*
X139093Y118008D01*
X138922Y118002D01*
X138750Y118000D01*
X138578Y118002D01*
X138407Y118008D01*
X138235Y118019D01*
X138064Y118034D01*
X137893Y118053D01*
X137723Y118076D01*
X137553Y118103D01*
X137384Y118135D01*
X137216Y118170D01*
X137049Y118210D01*
X136883Y118254D01*
X136718Y118301D01*
X136554Y118353D01*
X136392Y118409D01*
X136231Y118469D01*
X136071Y118533D01*
X135913Y118601D01*
X135757Y118672D01*
X135603Y118747D01*
X135450Y118827D01*
X135300Y118909D01*
X135151Y118996D01*
X135005Y119086D01*
X134861Y119180D01*
X134719Y119277D01*
X134580Y119378D01*
X134443Y119482D01*
X134309Y119589D01*
X134178Y119700D01*
X134049Y119813D01*
X133923Y119930D01*
X133800Y120050D01*
X133680Y120173D01*
X133563Y120299D01*
X133450Y120428D01*
X133339Y120559D01*
X133232Y120693D01*
X133128Y120830D01*
X133027Y120969D01*
X132930Y121111D01*
X132836Y121255D01*
X132746Y121401D01*
X132659Y121550D01*
X132577Y121700D01*
X132497Y121853D01*
X132422Y122007D01*
X132351Y122163D01*
X132283Y122321D01*
X132219Y122481D01*
X132159Y122642D01*
X132103Y122804D01*
X132051Y122968D01*
X132004Y123133D01*
X131960Y123299D01*
X131920Y123466D01*
X131885Y123634D01*
X131853Y123803D01*
X131826Y123973D01*
X131803Y124143D01*
X131784Y124314D01*
X131769Y124485D01*
X131758Y124657D01*
X131752Y124828D01*
X131750Y125000D01*
X137750Y125000D02*
X137752Y125063D01*
X137758Y125125D01*
X137768Y125187D01*
X137781Y125249D01*
X137799Y125309D01*
X137820Y125368D01*
X137845Y125426D01*
X137874Y125482D01*
X137906Y125536D01*
X137941Y125588D01*
X137979Y125637D01*
X138021Y125685D01*
X138065Y125729D01*
X138113Y125771D01*
X138162Y125809D01*
X138214Y125844D01*
X138268Y125876D01*
X138324Y125905D01*
X138382Y125930D01*
X138441Y125951D01*
X138501Y125969D01*
X138563Y125982D01*
X138625Y125992D01*
X138687Y125998D01*
X138750Y126000D01*
X138813Y125998D01*
X138875Y125992D01*
X138937Y125982D01*
X138999Y125969D01*
X139059Y125951D01*
X139118Y125930D01*
X139176Y125905D01*
X139232Y125876D01*
X139286Y125844D01*
X139338Y125809D01*
X139387Y125771D01*
X139435Y125729D01*
X139479Y125685D01*
X139521Y125637D01*
X139559Y125588D01*
X139594Y125536D01*
X139626Y125482D01*
X139655Y125426D01*
X139680Y125368D01*
X139701Y125309D01*
X139719Y125249D01*
X139732Y125187D01*
X139742Y125125D01*
X139748Y125063D01*
X139750Y125000D01*
X139748Y124937D01*
X139742Y124875D01*
X139732Y124813D01*
X139719Y124751D01*
X139701Y124691D01*
X139680Y124632D01*
X139655Y124574D01*
X139626Y124518D01*
X139594Y124464D01*
X139559Y124412D01*
X139521Y124363D01*
X139479Y124315D01*
X139435Y124271D01*
X139387Y124229D01*
X139338Y124191D01*
X139286Y124156D01*
X139232Y124124D01*
X139176Y124095D01*
X139118Y124070D01*
X139059Y124049D01*
X138999Y124031D01*
X138937Y124018D01*
X138875Y124008D01*
X138813Y124002D01*
X138750Y124000D01*
X138687Y124002D01*
X138625Y124008D01*
X138563Y124018D01*
X138501Y124031D01*
X138441Y124049D01*
X138382Y124070D01*
X138324Y124095D01*
X138268Y124124D01*
X138214Y124156D01*
X138162Y124191D01*
X138113Y124229D01*
X138065Y124271D01*
X138021Y124315D01*
X137979Y124363D01*
X137941Y124412D01*
X137906Y124464D01*
X137874Y124518D01*
X137845Y124574D01*
X137820Y124632D01*
X137799Y124691D01*
X137781Y124751D01*
X137768Y124813D01*
X137758Y124875D01*
X137752Y124937D01*
X137750Y125000D01*
D12*
X134400Y110050D02*
X134400Y107150D01*
X134400Y110050D02*
X135206Y110050D01*
X135261Y110048D01*
X135316Y110042D01*
X135370Y110033D01*
X135423Y110020D01*
X135476Y110003D01*
X135527Y109983D01*
X135577Y109960D01*
X135625Y109933D01*
X135671Y109902D01*
X135715Y109869D01*
X135756Y109833D01*
X135795Y109794D01*
X135831Y109753D01*
X135864Y109709D01*
X135895Y109663D01*
X135922Y109615D01*
X135945Y109565D01*
X135965Y109514D01*
X135982Y109461D01*
X135995Y109408D01*
X136004Y109354D01*
X136010Y109299D01*
X136012Y109244D01*
X136010Y109189D01*
X136004Y109134D01*
X135995Y109080D01*
X135982Y109027D01*
X135965Y108974D01*
X135945Y108923D01*
X135922Y108873D01*
X135895Y108825D01*
X135864Y108779D01*
X135831Y108735D01*
X135795Y108694D01*
X135756Y108655D01*
X135715Y108619D01*
X135671Y108586D01*
X135625Y108555D01*
X135577Y108528D01*
X135527Y108505D01*
X135476Y108485D01*
X135423Y108468D01*
X135370Y108455D01*
X135316Y108446D01*
X135261Y108440D01*
X135206Y108438D01*
X135206Y108439D02*
X134400Y108439D01*
X135367Y108439D02*
X136011Y107150D01*
X138131Y107150D02*
X138179Y107152D01*
X138227Y107157D01*
X138274Y107166D01*
X138321Y107179D01*
X138366Y107195D01*
X138410Y107214D01*
X138453Y107236D01*
X138494Y107262D01*
X138533Y107291D01*
X138569Y107322D01*
X138603Y107356D01*
X138634Y107392D01*
X138663Y107431D01*
X138689Y107472D01*
X138711Y107515D01*
X138730Y107559D01*
X138746Y107604D01*
X138759Y107651D01*
X138768Y107698D01*
X138773Y107746D01*
X138775Y107794D01*
X138131Y107150D02*
X138059Y107152D01*
X137988Y107158D01*
X137917Y107167D01*
X137847Y107180D01*
X137777Y107197D01*
X137708Y107217D01*
X137641Y107241D01*
X137575Y107269D01*
X137510Y107300D01*
X137447Y107334D01*
X137386Y107372D01*
X137327Y107413D01*
X137271Y107456D01*
X137216Y107503D01*
X137165Y107553D01*
X137245Y109406D02*
X137247Y109454D01*
X137252Y109502D01*
X137261Y109549D01*
X137274Y109596D01*
X137290Y109641D01*
X137309Y109685D01*
X137331Y109728D01*
X137357Y109769D01*
X137386Y109808D01*
X137417Y109844D01*
X137451Y109878D01*
X137487Y109910D01*
X137526Y109938D01*
X137567Y109964D01*
X137610Y109986D01*
X137654Y110005D01*
X137699Y110021D01*
X137746Y110034D01*
X137793Y110043D01*
X137841Y110048D01*
X137889Y110050D01*
X137954Y110048D01*
X138018Y110043D01*
X138083Y110034D01*
X138146Y110022D01*
X138209Y110007D01*
X138271Y109988D01*
X138332Y109966D01*
X138391Y109941D01*
X138450Y109912D01*
X138506Y109880D01*
X138561Y109846D01*
X138614Y109808D01*
X137566Y108842D02*
X137526Y108868D01*
X137487Y108897D01*
X137450Y108929D01*
X137416Y108964D01*
X137385Y109001D01*
X137356Y109040D01*
X137330Y109081D01*
X137308Y109124D01*
X137289Y109169D01*
X137273Y109215D01*
X137260Y109261D01*
X137251Y109309D01*
X137246Y109357D01*
X137244Y109406D01*
X138453Y108358D02*
X138493Y108332D01*
X138532Y108303D01*
X138569Y108271D01*
X138603Y108236D01*
X138634Y108199D01*
X138663Y108160D01*
X138689Y108119D01*
X138711Y108076D01*
X138730Y108031D01*
X138746Y107985D01*
X138759Y107939D01*
X138768Y107891D01*
X138773Y107843D01*
X138775Y107794D01*
X138453Y108358D02*
X137567Y108842D01*
X140561Y110050D02*
X140561Y107150D01*
X139756Y110050D02*
X141367Y110050D01*
D10*
X81870Y106821D02*
X81870Y240679D01*
X2343Y240679D01*
X2343Y106821D01*
X81870Y106821D01*
D12*
X82944Y105438D02*
X85844Y104471D01*
X85844Y106404D02*
X82944Y105438D01*
X85119Y106163D02*
X85119Y104713D01*
X85844Y108147D02*
X85844Y108792D01*
X85844Y108147D02*
X85842Y108099D01*
X85837Y108051D01*
X85828Y108004D01*
X85815Y107957D01*
X85799Y107912D01*
X85780Y107868D01*
X85758Y107825D01*
X85732Y107784D01*
X85703Y107745D01*
X85672Y107709D01*
X85638Y107675D01*
X85602Y107644D01*
X85563Y107615D01*
X85522Y107589D01*
X85479Y107567D01*
X85435Y107548D01*
X85390Y107532D01*
X85343Y107519D01*
X85296Y107510D01*
X85248Y107505D01*
X85200Y107503D01*
X83589Y107503D01*
X83538Y107505D01*
X83488Y107511D01*
X83439Y107521D01*
X83390Y107535D01*
X83343Y107552D01*
X83297Y107573D01*
X83253Y107598D01*
X83210Y107626D01*
X83171Y107657D01*
X83134Y107692D01*
X83099Y107729D01*
X83068Y107768D01*
X83040Y107810D01*
X83015Y107855D01*
X82994Y107901D01*
X82977Y107948D01*
X82963Y107997D01*
X82953Y108046D01*
X82947Y108096D01*
X82945Y108147D01*
X82944Y108147D02*
X82944Y108792D01*
X84716Y109943D02*
X84716Y111876D01*
X85844Y113272D02*
X82944Y113272D01*
X82944Y114077D01*
X82946Y114132D01*
X82952Y114187D01*
X82961Y114241D01*
X82974Y114294D01*
X82991Y114347D01*
X83011Y114398D01*
X83034Y114448D01*
X83061Y114496D01*
X83092Y114542D01*
X83125Y114586D01*
X83161Y114627D01*
X83200Y114666D01*
X83241Y114702D01*
X83285Y114735D01*
X83331Y114766D01*
X83379Y114793D01*
X83429Y114816D01*
X83480Y114836D01*
X83533Y114853D01*
X83586Y114866D01*
X83640Y114875D01*
X83695Y114881D01*
X83750Y114883D01*
X85039Y114883D01*
X85094Y114881D01*
X85149Y114875D01*
X85203Y114866D01*
X85256Y114853D01*
X85309Y114836D01*
X85360Y114816D01*
X85410Y114793D01*
X85458Y114766D01*
X85504Y114735D01*
X85548Y114702D01*
X85589Y114666D01*
X85628Y114627D01*
X85664Y114586D01*
X85697Y114542D01*
X85728Y114496D01*
X85755Y114448D01*
X85778Y114398D01*
X85798Y114347D01*
X85815Y114294D01*
X85828Y114241D01*
X85837Y114187D01*
X85843Y114132D01*
X85845Y114077D01*
X85844Y114077D02*
X85844Y113272D01*
X85844Y116883D02*
X85844Y117528D01*
X85844Y116883D02*
X85842Y116835D01*
X85837Y116787D01*
X85828Y116740D01*
X85815Y116693D01*
X85799Y116648D01*
X85780Y116604D01*
X85758Y116561D01*
X85732Y116520D01*
X85703Y116481D01*
X85672Y116445D01*
X85638Y116411D01*
X85602Y116380D01*
X85563Y116351D01*
X85522Y116325D01*
X85479Y116303D01*
X85435Y116284D01*
X85390Y116268D01*
X85343Y116255D01*
X85296Y116246D01*
X85248Y116241D01*
X85200Y116239D01*
X83589Y116239D01*
X83538Y116241D01*
X83488Y116247D01*
X83439Y116257D01*
X83390Y116271D01*
X83343Y116288D01*
X83297Y116309D01*
X83253Y116334D01*
X83210Y116362D01*
X83171Y116393D01*
X83134Y116428D01*
X83099Y116465D01*
X83068Y116504D01*
X83040Y116546D01*
X83015Y116591D01*
X82994Y116637D01*
X82977Y116684D01*
X82963Y116733D01*
X82953Y116782D01*
X82947Y116832D01*
X82945Y116883D01*
X82944Y116883D02*
X82944Y117528D01*
D13*
X41875Y2250D02*
X141875Y2250D01*
X141875Y37750D02*
X141875Y38750D01*
X101875Y38750D01*
X41875Y11750D02*
X41875Y2250D01*
X41875Y11750D02*
X48375Y11750D01*
X55375Y11750D02*
X68375Y11750D01*
X75375Y11750D02*
X88375Y11750D01*
X95375Y11750D02*
X101875Y11750D01*
X41875Y11750D02*
X41875Y37750D01*
X141875Y37750D01*
X41875Y37750D02*
X41875Y38750D01*
X141875Y37750D02*
X141875Y11750D01*
X141875Y2250D01*
X101875Y11750D02*
X101875Y38750D01*
X41875Y38750D01*
X101875Y11750D02*
X108375Y11750D01*
X115375Y11750D02*
X128375Y11750D01*
X135375Y11750D02*
X141875Y11750D01*
X49875Y32450D02*
X49877Y32539D01*
X49883Y32628D01*
X49893Y32717D01*
X49907Y32805D01*
X49924Y32892D01*
X49946Y32978D01*
X49972Y33064D01*
X50001Y33148D01*
X50034Y33231D01*
X50070Y33312D01*
X50111Y33392D01*
X50154Y33469D01*
X50201Y33545D01*
X50252Y33618D01*
X50305Y33689D01*
X50362Y33758D01*
X50422Y33824D01*
X50485Y33888D01*
X50550Y33948D01*
X50618Y34006D01*
X50689Y34060D01*
X50762Y34111D01*
X50837Y34159D01*
X50914Y34204D01*
X50993Y34245D01*
X51074Y34282D01*
X51156Y34316D01*
X51240Y34347D01*
X51325Y34373D01*
X51411Y34396D01*
X51498Y34414D01*
X51586Y34429D01*
X51675Y34440D01*
X51764Y34447D01*
X51853Y34450D01*
X51942Y34449D01*
X52031Y34444D01*
X52119Y34435D01*
X52208Y34422D01*
X52295Y34405D01*
X52382Y34385D01*
X52468Y34360D01*
X52552Y34332D01*
X52635Y34300D01*
X52717Y34264D01*
X52797Y34225D01*
X52875Y34182D01*
X52951Y34136D01*
X53025Y34086D01*
X53097Y34033D01*
X53166Y33977D01*
X53233Y33918D01*
X53297Y33856D01*
X53358Y33792D01*
X53417Y33724D01*
X53472Y33654D01*
X53524Y33582D01*
X53573Y33507D01*
X53618Y33431D01*
X53660Y33352D01*
X53698Y33272D01*
X53733Y33190D01*
X53764Y33106D01*
X53792Y33021D01*
X53815Y32935D01*
X53835Y32848D01*
X53851Y32761D01*
X53863Y32672D01*
X53871Y32584D01*
X53875Y32495D01*
X53875Y32405D01*
X53871Y32316D01*
X53863Y32228D01*
X53851Y32139D01*
X53835Y32052D01*
X53815Y31965D01*
X53792Y31879D01*
X53764Y31794D01*
X53733Y31710D01*
X53698Y31628D01*
X53660Y31548D01*
X53618Y31469D01*
X53573Y31393D01*
X53524Y31318D01*
X53472Y31246D01*
X53417Y31176D01*
X53358Y31108D01*
X53297Y31044D01*
X53233Y30982D01*
X53166Y30923D01*
X53097Y30867D01*
X53025Y30814D01*
X52951Y30764D01*
X52875Y30718D01*
X52797Y30675D01*
X52717Y30636D01*
X52635Y30600D01*
X52552Y30568D01*
X52468Y30540D01*
X52382Y30515D01*
X52295Y30495D01*
X52208Y30478D01*
X52119Y30465D01*
X52031Y30456D01*
X51942Y30451D01*
X51853Y30450D01*
X51764Y30453D01*
X51675Y30460D01*
X51586Y30471D01*
X51498Y30486D01*
X51411Y30504D01*
X51325Y30527D01*
X51240Y30553D01*
X51156Y30584D01*
X51074Y30618D01*
X50993Y30655D01*
X50914Y30696D01*
X50837Y30741D01*
X50762Y30789D01*
X50689Y30840D01*
X50618Y30894D01*
X50550Y30952D01*
X50485Y31012D01*
X50422Y31076D01*
X50362Y31142D01*
X50305Y31211D01*
X50252Y31282D01*
X50201Y31355D01*
X50154Y31431D01*
X50111Y31508D01*
X50070Y31588D01*
X50034Y31669D01*
X50001Y31752D01*
X49972Y31836D01*
X49946Y31922D01*
X49924Y32008D01*
X49907Y32095D01*
X49893Y32183D01*
X49883Y32272D01*
X49877Y32361D01*
X49875Y32450D01*
X89875Y32450D02*
X89877Y32539D01*
X89883Y32628D01*
X89893Y32717D01*
X89907Y32805D01*
X89924Y32892D01*
X89946Y32978D01*
X89972Y33064D01*
X90001Y33148D01*
X90034Y33231D01*
X90070Y33312D01*
X90111Y33392D01*
X90154Y33469D01*
X90201Y33545D01*
X90252Y33618D01*
X90305Y33689D01*
X90362Y33758D01*
X90422Y33824D01*
X90485Y33888D01*
X90550Y33948D01*
X90618Y34006D01*
X90689Y34060D01*
X90762Y34111D01*
X90837Y34159D01*
X90914Y34204D01*
X90993Y34245D01*
X91074Y34282D01*
X91156Y34316D01*
X91240Y34347D01*
X91325Y34373D01*
X91411Y34396D01*
X91498Y34414D01*
X91586Y34429D01*
X91675Y34440D01*
X91764Y34447D01*
X91853Y34450D01*
X91942Y34449D01*
X92031Y34444D01*
X92119Y34435D01*
X92208Y34422D01*
X92295Y34405D01*
X92382Y34385D01*
X92468Y34360D01*
X92552Y34332D01*
X92635Y34300D01*
X92717Y34264D01*
X92797Y34225D01*
X92875Y34182D01*
X92951Y34136D01*
X93025Y34086D01*
X93097Y34033D01*
X93166Y33977D01*
X93233Y33918D01*
X93297Y33856D01*
X93358Y33792D01*
X93417Y33724D01*
X93472Y33654D01*
X93524Y33582D01*
X93573Y33507D01*
X93618Y33431D01*
X93660Y33352D01*
X93698Y33272D01*
X93733Y33190D01*
X93764Y33106D01*
X93792Y33021D01*
X93815Y32935D01*
X93835Y32848D01*
X93851Y32761D01*
X93863Y32672D01*
X93871Y32584D01*
X93875Y32495D01*
X93875Y32405D01*
X93871Y32316D01*
X93863Y32228D01*
X93851Y32139D01*
X93835Y32052D01*
X93815Y31965D01*
X93792Y31879D01*
X93764Y31794D01*
X93733Y31710D01*
X93698Y31628D01*
X93660Y31548D01*
X93618Y31469D01*
X93573Y31393D01*
X93524Y31318D01*
X93472Y31246D01*
X93417Y31176D01*
X93358Y31108D01*
X93297Y31044D01*
X93233Y30982D01*
X93166Y30923D01*
X93097Y30867D01*
X93025Y30814D01*
X92951Y30764D01*
X92875Y30718D01*
X92797Y30675D01*
X92717Y30636D01*
X92635Y30600D01*
X92552Y30568D01*
X92468Y30540D01*
X92382Y30515D01*
X92295Y30495D01*
X92208Y30478D01*
X92119Y30465D01*
X92031Y30456D01*
X91942Y30451D01*
X91853Y30450D01*
X91764Y30453D01*
X91675Y30460D01*
X91586Y30471D01*
X91498Y30486D01*
X91411Y30504D01*
X91325Y30527D01*
X91240Y30553D01*
X91156Y30584D01*
X91074Y30618D01*
X90993Y30655D01*
X90914Y30696D01*
X90837Y30741D01*
X90762Y30789D01*
X90689Y30840D01*
X90618Y30894D01*
X90550Y30952D01*
X90485Y31012D01*
X90422Y31076D01*
X90362Y31142D01*
X90305Y31211D01*
X90252Y31282D01*
X90201Y31355D01*
X90154Y31431D01*
X90111Y31508D01*
X90070Y31588D01*
X90034Y31669D01*
X90001Y31752D01*
X89972Y31836D01*
X89946Y31922D01*
X89924Y32008D01*
X89907Y32095D01*
X89893Y32183D01*
X89883Y32272D01*
X89877Y32361D01*
X89875Y32450D01*
X69875Y32450D02*
X69877Y32539D01*
X69883Y32628D01*
X69893Y32717D01*
X69907Y32805D01*
X69924Y32892D01*
X69946Y32978D01*
X69972Y33064D01*
X70001Y33148D01*
X70034Y33231D01*
X70070Y33312D01*
X70111Y33392D01*
X70154Y33469D01*
X70201Y33545D01*
X70252Y33618D01*
X70305Y33689D01*
X70362Y33758D01*
X70422Y33824D01*
X70485Y33888D01*
X70550Y33948D01*
X70618Y34006D01*
X70689Y34060D01*
X70762Y34111D01*
X70837Y34159D01*
X70914Y34204D01*
X70993Y34245D01*
X71074Y34282D01*
X71156Y34316D01*
X71240Y34347D01*
X71325Y34373D01*
X71411Y34396D01*
X71498Y34414D01*
X71586Y34429D01*
X71675Y34440D01*
X71764Y34447D01*
X71853Y34450D01*
X71942Y34449D01*
X72031Y34444D01*
X72119Y34435D01*
X72208Y34422D01*
X72295Y34405D01*
X72382Y34385D01*
X72468Y34360D01*
X72552Y34332D01*
X72635Y34300D01*
X72717Y34264D01*
X72797Y34225D01*
X72875Y34182D01*
X72951Y34136D01*
X73025Y34086D01*
X73097Y34033D01*
X73166Y33977D01*
X73233Y33918D01*
X73297Y33856D01*
X73358Y33792D01*
X73417Y33724D01*
X73472Y33654D01*
X73524Y33582D01*
X73573Y33507D01*
X73618Y33431D01*
X73660Y33352D01*
X73698Y33272D01*
X73733Y33190D01*
X73764Y33106D01*
X73792Y33021D01*
X73815Y32935D01*
X73835Y32848D01*
X73851Y32761D01*
X73863Y32672D01*
X73871Y32584D01*
X73875Y32495D01*
X73875Y32405D01*
X73871Y32316D01*
X73863Y32228D01*
X73851Y32139D01*
X73835Y32052D01*
X73815Y31965D01*
X73792Y31879D01*
X73764Y31794D01*
X73733Y31710D01*
X73698Y31628D01*
X73660Y31548D01*
X73618Y31469D01*
X73573Y31393D01*
X73524Y31318D01*
X73472Y31246D01*
X73417Y31176D01*
X73358Y31108D01*
X73297Y31044D01*
X73233Y30982D01*
X73166Y30923D01*
X73097Y30867D01*
X73025Y30814D01*
X72951Y30764D01*
X72875Y30718D01*
X72797Y30675D01*
X72717Y30636D01*
X72635Y30600D01*
X72552Y30568D01*
X72468Y30540D01*
X72382Y30515D01*
X72295Y30495D01*
X72208Y30478D01*
X72119Y30465D01*
X72031Y30456D01*
X71942Y30451D01*
X71853Y30450D01*
X71764Y30453D01*
X71675Y30460D01*
X71586Y30471D01*
X71498Y30486D01*
X71411Y30504D01*
X71325Y30527D01*
X71240Y30553D01*
X71156Y30584D01*
X71074Y30618D01*
X70993Y30655D01*
X70914Y30696D01*
X70837Y30741D01*
X70762Y30789D01*
X70689Y30840D01*
X70618Y30894D01*
X70550Y30952D01*
X70485Y31012D01*
X70422Y31076D01*
X70362Y31142D01*
X70305Y31211D01*
X70252Y31282D01*
X70201Y31355D01*
X70154Y31431D01*
X70111Y31508D01*
X70070Y31588D01*
X70034Y31669D01*
X70001Y31752D01*
X69972Y31836D01*
X69946Y31922D01*
X69924Y32008D01*
X69907Y32095D01*
X69893Y32183D01*
X69883Y32272D01*
X69877Y32361D01*
X69875Y32450D01*
X109875Y32450D02*
X109877Y32539D01*
X109883Y32628D01*
X109893Y32717D01*
X109907Y32805D01*
X109924Y32892D01*
X109946Y32978D01*
X109972Y33064D01*
X110001Y33148D01*
X110034Y33231D01*
X110070Y33312D01*
X110111Y33392D01*
X110154Y33469D01*
X110201Y33545D01*
X110252Y33618D01*
X110305Y33689D01*
X110362Y33758D01*
X110422Y33824D01*
X110485Y33888D01*
X110550Y33948D01*
X110618Y34006D01*
X110689Y34060D01*
X110762Y34111D01*
X110837Y34159D01*
X110914Y34204D01*
X110993Y34245D01*
X111074Y34282D01*
X111156Y34316D01*
X111240Y34347D01*
X111325Y34373D01*
X111411Y34396D01*
X111498Y34414D01*
X111586Y34429D01*
X111675Y34440D01*
X111764Y34447D01*
X111853Y34450D01*
X111942Y34449D01*
X112031Y34444D01*
X112119Y34435D01*
X112208Y34422D01*
X112295Y34405D01*
X112382Y34385D01*
X112468Y34360D01*
X112552Y34332D01*
X112635Y34300D01*
X112717Y34264D01*
X112797Y34225D01*
X112875Y34182D01*
X112951Y34136D01*
X113025Y34086D01*
X113097Y34033D01*
X113166Y33977D01*
X113233Y33918D01*
X113297Y33856D01*
X113358Y33792D01*
X113417Y33724D01*
X113472Y33654D01*
X113524Y33582D01*
X113573Y33507D01*
X113618Y33431D01*
X113660Y33352D01*
X113698Y33272D01*
X113733Y33190D01*
X113764Y33106D01*
X113792Y33021D01*
X113815Y32935D01*
X113835Y32848D01*
X113851Y32761D01*
X113863Y32672D01*
X113871Y32584D01*
X113875Y32495D01*
X113875Y32405D01*
X113871Y32316D01*
X113863Y32228D01*
X113851Y32139D01*
X113835Y32052D01*
X113815Y31965D01*
X113792Y31879D01*
X113764Y31794D01*
X113733Y31710D01*
X113698Y31628D01*
X113660Y31548D01*
X113618Y31469D01*
X113573Y31393D01*
X113524Y31318D01*
X113472Y31246D01*
X113417Y31176D01*
X113358Y31108D01*
X113297Y31044D01*
X113233Y30982D01*
X113166Y30923D01*
X113097Y30867D01*
X113025Y30814D01*
X112951Y30764D01*
X112875Y30718D01*
X112797Y30675D01*
X112717Y30636D01*
X112635Y30600D01*
X112552Y30568D01*
X112468Y30540D01*
X112382Y30515D01*
X112295Y30495D01*
X112208Y30478D01*
X112119Y30465D01*
X112031Y30456D01*
X111942Y30451D01*
X111853Y30450D01*
X111764Y30453D01*
X111675Y30460D01*
X111586Y30471D01*
X111498Y30486D01*
X111411Y30504D01*
X111325Y30527D01*
X111240Y30553D01*
X111156Y30584D01*
X111074Y30618D01*
X110993Y30655D01*
X110914Y30696D01*
X110837Y30741D01*
X110762Y30789D01*
X110689Y30840D01*
X110618Y30894D01*
X110550Y30952D01*
X110485Y31012D01*
X110422Y31076D01*
X110362Y31142D01*
X110305Y31211D01*
X110252Y31282D01*
X110201Y31355D01*
X110154Y31431D01*
X110111Y31508D01*
X110070Y31588D01*
X110034Y31669D01*
X110001Y31752D01*
X109972Y31836D01*
X109946Y31922D01*
X109924Y32008D01*
X109907Y32095D01*
X109893Y32183D01*
X109883Y32272D01*
X109877Y32361D01*
X109875Y32450D01*
X129875Y32450D02*
X129877Y32539D01*
X129883Y32628D01*
X129893Y32717D01*
X129907Y32805D01*
X129924Y32892D01*
X129946Y32978D01*
X129972Y33064D01*
X130001Y33148D01*
X130034Y33231D01*
X130070Y33312D01*
X130111Y33392D01*
X130154Y33469D01*
X130201Y33545D01*
X130252Y33618D01*
X130305Y33689D01*
X130362Y33758D01*
X130422Y33824D01*
X130485Y33888D01*
X130550Y33948D01*
X130618Y34006D01*
X130689Y34060D01*
X130762Y34111D01*
X130837Y34159D01*
X130914Y34204D01*
X130993Y34245D01*
X131074Y34282D01*
X131156Y34316D01*
X131240Y34347D01*
X131325Y34373D01*
X131411Y34396D01*
X131498Y34414D01*
X131586Y34429D01*
X131675Y34440D01*
X131764Y34447D01*
X131853Y34450D01*
X131942Y34449D01*
X132031Y34444D01*
X132119Y34435D01*
X132208Y34422D01*
X132295Y34405D01*
X132382Y34385D01*
X132468Y34360D01*
X132552Y34332D01*
X132635Y34300D01*
X132717Y34264D01*
X132797Y34225D01*
X132875Y34182D01*
X132951Y34136D01*
X133025Y34086D01*
X133097Y34033D01*
X133166Y33977D01*
X133233Y33918D01*
X133297Y33856D01*
X133358Y33792D01*
X133417Y33724D01*
X133472Y33654D01*
X133524Y33582D01*
X133573Y33507D01*
X133618Y33431D01*
X133660Y33352D01*
X133698Y33272D01*
X133733Y33190D01*
X133764Y33106D01*
X133792Y33021D01*
X133815Y32935D01*
X133835Y32848D01*
X133851Y32761D01*
X133863Y32672D01*
X133871Y32584D01*
X133875Y32495D01*
X133875Y32405D01*
X133871Y32316D01*
X133863Y32228D01*
X133851Y32139D01*
X133835Y32052D01*
X133815Y31965D01*
X133792Y31879D01*
X133764Y31794D01*
X133733Y31710D01*
X133698Y31628D01*
X133660Y31548D01*
X133618Y31469D01*
X133573Y31393D01*
X133524Y31318D01*
X133472Y31246D01*
X133417Y31176D01*
X133358Y31108D01*
X133297Y31044D01*
X133233Y30982D01*
X133166Y30923D01*
X133097Y30867D01*
X133025Y30814D01*
X132951Y30764D01*
X132875Y30718D01*
X132797Y30675D01*
X132717Y30636D01*
X132635Y30600D01*
X132552Y30568D01*
X132468Y30540D01*
X132382Y30515D01*
X132295Y30495D01*
X132208Y30478D01*
X132119Y30465D01*
X132031Y30456D01*
X131942Y30451D01*
X131853Y30450D01*
X131764Y30453D01*
X131675Y30460D01*
X131586Y30471D01*
X131498Y30486D01*
X131411Y30504D01*
X131325Y30527D01*
X131240Y30553D01*
X131156Y30584D01*
X131074Y30618D01*
X130993Y30655D01*
X130914Y30696D01*
X130837Y30741D01*
X130762Y30789D01*
X130689Y30840D01*
X130618Y30894D01*
X130550Y30952D01*
X130485Y31012D01*
X130422Y31076D01*
X130362Y31142D01*
X130305Y31211D01*
X130252Y31282D01*
X130201Y31355D01*
X130154Y31431D01*
X130111Y31508D01*
X130070Y31588D01*
X130034Y31669D01*
X130001Y31752D01*
X129972Y31836D01*
X129946Y31922D01*
X129924Y32008D01*
X129907Y32095D01*
X129893Y32183D01*
X129883Y32272D01*
X129877Y32361D01*
X129875Y32450D01*
D12*
X133919Y40025D02*
X134564Y40025D01*
X133919Y40025D02*
X133871Y40027D01*
X133823Y40032D01*
X133776Y40041D01*
X133729Y40054D01*
X133684Y40070D01*
X133640Y40089D01*
X133597Y40111D01*
X133556Y40137D01*
X133517Y40166D01*
X133481Y40197D01*
X133447Y40231D01*
X133416Y40267D01*
X133387Y40306D01*
X133361Y40347D01*
X133339Y40390D01*
X133320Y40434D01*
X133304Y40479D01*
X133291Y40526D01*
X133282Y40573D01*
X133277Y40621D01*
X133275Y40669D01*
X133275Y42281D01*
X133277Y42332D01*
X133283Y42382D01*
X133293Y42431D01*
X133307Y42480D01*
X133324Y42527D01*
X133345Y42573D01*
X133370Y42617D01*
X133398Y42660D01*
X133429Y42699D01*
X133464Y42736D01*
X133501Y42771D01*
X133540Y42802D01*
X133583Y42830D01*
X133627Y42855D01*
X133673Y42876D01*
X133720Y42893D01*
X133769Y42907D01*
X133818Y42917D01*
X133868Y42923D01*
X133919Y42925D01*
X134564Y42925D01*
X135684Y42119D02*
X135684Y40831D01*
X135684Y42119D02*
X135686Y42174D01*
X135692Y42229D01*
X135701Y42283D01*
X135714Y42336D01*
X135731Y42389D01*
X135751Y42440D01*
X135774Y42490D01*
X135801Y42538D01*
X135832Y42584D01*
X135865Y42628D01*
X135901Y42669D01*
X135940Y42708D01*
X135981Y42744D01*
X136025Y42777D01*
X136071Y42808D01*
X136119Y42835D01*
X136169Y42858D01*
X136220Y42878D01*
X136273Y42895D01*
X136326Y42908D01*
X136380Y42917D01*
X136435Y42923D01*
X136490Y42925D01*
X136545Y42923D01*
X136600Y42917D01*
X136654Y42908D01*
X136707Y42895D01*
X136760Y42878D01*
X136811Y42858D01*
X136861Y42835D01*
X136909Y42808D01*
X136955Y42777D01*
X136999Y42744D01*
X137040Y42708D01*
X137079Y42669D01*
X137115Y42628D01*
X137148Y42584D01*
X137179Y42538D01*
X137206Y42490D01*
X137229Y42440D01*
X137249Y42389D01*
X137266Y42336D01*
X137279Y42283D01*
X137288Y42229D01*
X137294Y42174D01*
X137296Y42119D01*
X137295Y42119D02*
X137295Y40831D01*
X137296Y40831D02*
X137294Y40776D01*
X137288Y40721D01*
X137279Y40667D01*
X137266Y40614D01*
X137249Y40561D01*
X137229Y40510D01*
X137206Y40460D01*
X137179Y40412D01*
X137148Y40366D01*
X137115Y40322D01*
X137079Y40281D01*
X137040Y40242D01*
X136999Y40206D01*
X136955Y40173D01*
X136909Y40142D01*
X136861Y40115D01*
X136811Y40092D01*
X136760Y40072D01*
X136707Y40055D01*
X136654Y40042D01*
X136600Y40033D01*
X136545Y40027D01*
X136490Y40025D01*
X136435Y40027D01*
X136380Y40033D01*
X136326Y40042D01*
X136273Y40055D01*
X136220Y40072D01*
X136169Y40092D01*
X136119Y40115D01*
X136071Y40142D01*
X136025Y40173D01*
X135981Y40206D01*
X135940Y40242D01*
X135901Y40281D01*
X135865Y40322D01*
X135832Y40366D01*
X135801Y40412D01*
X135774Y40460D01*
X135751Y40510D01*
X135731Y40561D01*
X135714Y40614D01*
X135701Y40667D01*
X135692Y40721D01*
X135686Y40776D01*
X135684Y40831D01*
X138660Y40025D02*
X138660Y42925D01*
X140271Y40025D01*
X140271Y42925D01*
M02*
