G04 EAGLE Gerber X2 export*
G75*
%MOIN*%
%FSLAX25Y25*%
%LPD*%
%AMOC8*
5,1,8,0,0,1.08239X$1,22.5*%
G01*
%ADD10C,0.003000*%
%ADD11C,0.006000*%
%ADD12C,0.005000*%
%ADD13C,0.024000*%
%ADD14C,0.020000*%
%ADD15C,0.008000*%


D10*
X14131Y38200D02*
X14776Y38200D01*
X14824Y38202D01*
X14872Y38207D01*
X14919Y38216D01*
X14966Y38229D01*
X15011Y38245D01*
X15055Y38264D01*
X15098Y38286D01*
X15139Y38312D01*
X15178Y38341D01*
X15214Y38372D01*
X15248Y38406D01*
X15279Y38442D01*
X15308Y38481D01*
X15334Y38522D01*
X15356Y38565D01*
X15375Y38609D01*
X15391Y38654D01*
X15404Y38701D01*
X15413Y38748D01*
X15418Y38796D01*
X15420Y38844D01*
X15420Y40456D01*
X15418Y40504D01*
X15413Y40552D01*
X15404Y40599D01*
X15391Y40646D01*
X15375Y40691D01*
X15356Y40735D01*
X15334Y40778D01*
X15308Y40819D01*
X15279Y40858D01*
X15248Y40894D01*
X15214Y40928D01*
X15178Y40959D01*
X15139Y40988D01*
X15098Y41014D01*
X15055Y41036D01*
X15011Y41055D01*
X14966Y41071D01*
X14919Y41084D01*
X14872Y41093D01*
X14824Y41098D01*
X14776Y41100D01*
X14131Y41100D01*
X13011Y40456D02*
X12206Y41100D01*
X12206Y38200D01*
X13011Y38200D02*
X11400Y38200D01*
X33200Y216094D02*
X33200Y216739D01*
X33200Y216094D02*
X33202Y216046D01*
X33207Y215998D01*
X33216Y215951D01*
X33229Y215904D01*
X33245Y215859D01*
X33264Y215815D01*
X33286Y215772D01*
X33312Y215731D01*
X33341Y215692D01*
X33372Y215656D01*
X33406Y215622D01*
X33442Y215591D01*
X33481Y215562D01*
X33522Y215536D01*
X33565Y215514D01*
X33609Y215495D01*
X33654Y215479D01*
X33701Y215466D01*
X33748Y215457D01*
X33796Y215452D01*
X33844Y215450D01*
X35456Y215450D01*
X35504Y215452D01*
X35552Y215457D01*
X35599Y215466D01*
X35646Y215479D01*
X35691Y215495D01*
X35735Y215514D01*
X35778Y215536D01*
X35819Y215562D01*
X35858Y215591D01*
X35894Y215622D01*
X35928Y215656D01*
X35959Y215692D01*
X35988Y215731D01*
X36014Y215772D01*
X36036Y215815D01*
X36055Y215859D01*
X36071Y215904D01*
X36084Y215951D01*
X36093Y215998D01*
X36098Y216046D01*
X36100Y216094D01*
X36100Y216739D01*
X35456Y217859D02*
X36100Y218664D01*
X33200Y218664D01*
X33200Y217859D02*
X33200Y219470D01*
X35456Y220739D02*
X36100Y221544D01*
X33200Y221544D01*
X33200Y220739D02*
X33200Y222350D01*
X110381Y68200D02*
X111026Y68200D01*
X111074Y68202D01*
X111122Y68207D01*
X111169Y68216D01*
X111216Y68229D01*
X111261Y68245D01*
X111305Y68264D01*
X111348Y68286D01*
X111389Y68312D01*
X111428Y68341D01*
X111464Y68372D01*
X111498Y68406D01*
X111529Y68442D01*
X111558Y68481D01*
X111584Y68522D01*
X111606Y68565D01*
X111625Y68609D01*
X111641Y68654D01*
X111654Y68701D01*
X111663Y68748D01*
X111668Y68796D01*
X111670Y68844D01*
X111670Y70456D01*
X111668Y70504D01*
X111663Y70552D01*
X111654Y70599D01*
X111641Y70646D01*
X111625Y70691D01*
X111606Y70735D01*
X111584Y70778D01*
X111558Y70819D01*
X111529Y70858D01*
X111498Y70894D01*
X111464Y70928D01*
X111428Y70959D01*
X111389Y70988D01*
X111348Y71014D01*
X111305Y71036D01*
X111261Y71055D01*
X111216Y71071D01*
X111169Y71084D01*
X111122Y71093D01*
X111074Y71098D01*
X111026Y71100D01*
X110381Y71100D01*
X108375Y71100D02*
X108323Y71098D01*
X108272Y71093D01*
X108221Y71083D01*
X108171Y71071D01*
X108122Y71054D01*
X108074Y71034D01*
X108028Y71011D01*
X107983Y70985D01*
X107941Y70955D01*
X107900Y70923D01*
X107862Y70888D01*
X107827Y70850D01*
X107795Y70809D01*
X107765Y70767D01*
X107739Y70722D01*
X107716Y70676D01*
X107696Y70628D01*
X107679Y70579D01*
X107667Y70529D01*
X107657Y70478D01*
X107652Y70427D01*
X107650Y70375D01*
X108375Y71100D02*
X108434Y71098D01*
X108492Y71093D01*
X108550Y71083D01*
X108607Y71071D01*
X108663Y71054D01*
X108718Y71035D01*
X108772Y71011D01*
X108824Y70985D01*
X108874Y70955D01*
X108923Y70922D01*
X108969Y70886D01*
X109013Y70847D01*
X109054Y70806D01*
X109093Y70762D01*
X109129Y70716D01*
X109161Y70667D01*
X109191Y70617D01*
X109218Y70565D01*
X109241Y70511D01*
X109261Y70456D01*
X107892Y69811D02*
X107855Y69848D01*
X107821Y69888D01*
X107789Y69930D01*
X107761Y69975D01*
X107735Y70021D01*
X107713Y70068D01*
X107694Y70117D01*
X107678Y70167D01*
X107666Y70218D01*
X107657Y70270D01*
X107652Y70322D01*
X107650Y70375D01*
X107892Y69811D02*
X109261Y68200D01*
X107650Y68200D01*
X48900Y170794D02*
X48900Y171439D01*
X48900Y170794D02*
X48902Y170746D01*
X48907Y170698D01*
X48916Y170651D01*
X48929Y170604D01*
X48945Y170559D01*
X48964Y170515D01*
X48986Y170472D01*
X49012Y170431D01*
X49041Y170392D01*
X49072Y170356D01*
X49106Y170322D01*
X49142Y170291D01*
X49181Y170262D01*
X49222Y170236D01*
X49265Y170214D01*
X49309Y170195D01*
X49354Y170179D01*
X49401Y170166D01*
X49448Y170157D01*
X49496Y170152D01*
X49544Y170150D01*
X51156Y170150D01*
X51204Y170152D01*
X51252Y170157D01*
X51299Y170166D01*
X51346Y170179D01*
X51391Y170195D01*
X51435Y170214D01*
X51478Y170236D01*
X51519Y170262D01*
X51558Y170291D01*
X51594Y170322D01*
X51628Y170356D01*
X51659Y170392D01*
X51688Y170431D01*
X51714Y170472D01*
X51736Y170515D01*
X51755Y170559D01*
X51771Y170604D01*
X51784Y170651D01*
X51793Y170698D01*
X51798Y170746D01*
X51800Y170794D01*
X51800Y171439D01*
X51800Y173445D02*
X51798Y173497D01*
X51793Y173548D01*
X51783Y173599D01*
X51771Y173649D01*
X51754Y173698D01*
X51734Y173746D01*
X51711Y173792D01*
X51685Y173837D01*
X51655Y173879D01*
X51623Y173920D01*
X51588Y173958D01*
X51550Y173993D01*
X51509Y174025D01*
X51467Y174055D01*
X51422Y174081D01*
X51376Y174104D01*
X51328Y174124D01*
X51279Y174141D01*
X51229Y174153D01*
X51178Y174163D01*
X51127Y174168D01*
X51075Y174170D01*
X51800Y173445D02*
X51798Y173386D01*
X51793Y173328D01*
X51783Y173270D01*
X51771Y173213D01*
X51754Y173157D01*
X51735Y173102D01*
X51711Y173048D01*
X51685Y172996D01*
X51655Y172946D01*
X51622Y172897D01*
X51586Y172851D01*
X51547Y172807D01*
X51506Y172766D01*
X51462Y172727D01*
X51416Y172691D01*
X51367Y172659D01*
X51317Y172629D01*
X51265Y172602D01*
X51211Y172579D01*
X51156Y172559D01*
X50511Y173928D02*
X50548Y173965D01*
X50588Y173999D01*
X50630Y174031D01*
X50675Y174059D01*
X50721Y174085D01*
X50768Y174107D01*
X50817Y174126D01*
X50867Y174142D01*
X50918Y174154D01*
X50970Y174163D01*
X51022Y174168D01*
X51075Y174170D01*
X50511Y173929D02*
X48900Y172559D01*
X48900Y174170D01*
X51156Y175439D02*
X51800Y176245D01*
X48900Y176245D01*
X48900Y177050D02*
X48900Y175439D01*
X110381Y82575D02*
X111026Y82575D01*
X111074Y82577D01*
X111122Y82582D01*
X111169Y82591D01*
X111216Y82604D01*
X111261Y82620D01*
X111305Y82639D01*
X111348Y82661D01*
X111389Y82687D01*
X111428Y82716D01*
X111464Y82747D01*
X111498Y82781D01*
X111529Y82817D01*
X111558Y82856D01*
X111584Y82897D01*
X111606Y82940D01*
X111625Y82984D01*
X111641Y83029D01*
X111654Y83076D01*
X111663Y83123D01*
X111668Y83171D01*
X111670Y83219D01*
X111670Y84831D01*
X111668Y84879D01*
X111663Y84927D01*
X111654Y84974D01*
X111641Y85021D01*
X111625Y85066D01*
X111606Y85110D01*
X111584Y85153D01*
X111558Y85194D01*
X111529Y85233D01*
X111498Y85269D01*
X111464Y85303D01*
X111428Y85334D01*
X111389Y85363D01*
X111348Y85389D01*
X111305Y85411D01*
X111261Y85430D01*
X111216Y85446D01*
X111169Y85459D01*
X111122Y85468D01*
X111074Y85473D01*
X111026Y85475D01*
X110381Y85475D01*
X109261Y82575D02*
X108456Y82575D01*
X108401Y82577D01*
X108346Y82583D01*
X108292Y82592D01*
X108239Y82605D01*
X108186Y82622D01*
X108135Y82642D01*
X108085Y82665D01*
X108037Y82692D01*
X107991Y82723D01*
X107947Y82756D01*
X107906Y82792D01*
X107867Y82831D01*
X107831Y82872D01*
X107798Y82916D01*
X107767Y82962D01*
X107740Y83010D01*
X107717Y83060D01*
X107697Y83111D01*
X107680Y83164D01*
X107667Y83217D01*
X107658Y83271D01*
X107652Y83326D01*
X107650Y83381D01*
X107652Y83436D01*
X107658Y83491D01*
X107667Y83545D01*
X107680Y83598D01*
X107697Y83651D01*
X107717Y83702D01*
X107740Y83752D01*
X107767Y83800D01*
X107798Y83846D01*
X107831Y83890D01*
X107867Y83931D01*
X107906Y83970D01*
X107947Y84006D01*
X107991Y84039D01*
X108037Y84070D01*
X108085Y84097D01*
X108135Y84120D01*
X108186Y84140D01*
X108239Y84157D01*
X108292Y84170D01*
X108346Y84179D01*
X108401Y84185D01*
X108456Y84187D01*
X108294Y85475D02*
X109261Y85475D01*
X108294Y85475D02*
X108245Y85473D01*
X108196Y85467D01*
X108147Y85458D01*
X108100Y85445D01*
X108053Y85428D01*
X108008Y85408D01*
X107965Y85385D01*
X107923Y85358D01*
X107884Y85328D01*
X107847Y85295D01*
X107813Y85259D01*
X107782Y85221D01*
X107753Y85181D01*
X107728Y85139D01*
X107706Y85094D01*
X107688Y85049D01*
X107673Y85002D01*
X107662Y84954D01*
X107654Y84905D01*
X107650Y84856D01*
X107650Y84806D01*
X107654Y84757D01*
X107662Y84708D01*
X107673Y84660D01*
X107688Y84613D01*
X107706Y84568D01*
X107728Y84523D01*
X107753Y84481D01*
X107782Y84441D01*
X107813Y84403D01*
X107847Y84367D01*
X107884Y84334D01*
X107923Y84304D01*
X107965Y84277D01*
X108008Y84254D01*
X108053Y84234D01*
X108100Y84217D01*
X108147Y84204D01*
X108196Y84195D01*
X108245Y84189D01*
X108294Y84187D01*
X108294Y84186D02*
X108939Y84186D01*
X148900Y46439D02*
X148900Y45794D01*
X148902Y45746D01*
X148907Y45698D01*
X148916Y45651D01*
X148929Y45604D01*
X148945Y45559D01*
X148964Y45515D01*
X148986Y45472D01*
X149012Y45431D01*
X149041Y45392D01*
X149072Y45356D01*
X149106Y45322D01*
X149142Y45291D01*
X149181Y45262D01*
X149222Y45236D01*
X149265Y45214D01*
X149309Y45195D01*
X149354Y45179D01*
X149401Y45166D01*
X149448Y45157D01*
X149496Y45152D01*
X149544Y45150D01*
X151156Y45150D01*
X151204Y45152D01*
X151252Y45157D01*
X151299Y45166D01*
X151346Y45179D01*
X151391Y45195D01*
X151435Y45214D01*
X151478Y45236D01*
X151519Y45262D01*
X151558Y45291D01*
X151594Y45322D01*
X151628Y45356D01*
X151659Y45392D01*
X151688Y45431D01*
X151714Y45472D01*
X151736Y45515D01*
X151755Y45559D01*
X151771Y45604D01*
X151784Y45651D01*
X151793Y45698D01*
X151798Y45746D01*
X151800Y45794D01*
X151800Y46439D01*
X151800Y48204D02*
X149544Y47559D01*
X149544Y49170D01*
X150189Y48687D02*
X148900Y48687D01*
X148900Y53294D02*
X148900Y53939D01*
X148900Y53294D02*
X148902Y53246D01*
X148907Y53198D01*
X148916Y53151D01*
X148929Y53104D01*
X148945Y53059D01*
X148964Y53015D01*
X148986Y52972D01*
X149012Y52931D01*
X149041Y52892D01*
X149072Y52856D01*
X149106Y52822D01*
X149142Y52791D01*
X149181Y52762D01*
X149222Y52736D01*
X149265Y52714D01*
X149309Y52695D01*
X149354Y52679D01*
X149401Y52666D01*
X149448Y52657D01*
X149496Y52652D01*
X149544Y52650D01*
X151156Y52650D01*
X151204Y52652D01*
X151252Y52657D01*
X151299Y52666D01*
X151346Y52679D01*
X151391Y52695D01*
X151435Y52714D01*
X151478Y52736D01*
X151519Y52762D01*
X151558Y52791D01*
X151594Y52822D01*
X151628Y52856D01*
X151659Y52892D01*
X151688Y52931D01*
X151714Y52972D01*
X151736Y53015D01*
X151755Y53059D01*
X151771Y53104D01*
X151784Y53151D01*
X151793Y53198D01*
X151798Y53246D01*
X151800Y53294D01*
X151800Y53939D01*
X148900Y55059D02*
X148900Y56026D01*
X148902Y56077D01*
X148908Y56127D01*
X148918Y56176D01*
X148932Y56225D01*
X148949Y56272D01*
X148970Y56318D01*
X148995Y56362D01*
X149023Y56405D01*
X149054Y56444D01*
X149089Y56481D01*
X149126Y56516D01*
X149165Y56547D01*
X149208Y56575D01*
X149252Y56600D01*
X149298Y56621D01*
X149345Y56638D01*
X149394Y56652D01*
X149443Y56662D01*
X149493Y56668D01*
X149544Y56670D01*
X149867Y56670D01*
X149915Y56668D01*
X149963Y56663D01*
X150010Y56654D01*
X150057Y56641D01*
X150102Y56625D01*
X150146Y56606D01*
X150189Y56584D01*
X150230Y56558D01*
X150269Y56529D01*
X150305Y56498D01*
X150339Y56464D01*
X150370Y56428D01*
X150399Y56389D01*
X150425Y56348D01*
X150447Y56305D01*
X150466Y56261D01*
X150482Y56216D01*
X150495Y56169D01*
X150504Y56122D01*
X150509Y56074D01*
X150511Y56026D01*
X150511Y55059D01*
X151800Y55059D01*
X151800Y56670D01*
X52650Y217044D02*
X52650Y217689D01*
X52650Y217044D02*
X52652Y216996D01*
X52657Y216948D01*
X52666Y216901D01*
X52679Y216854D01*
X52695Y216809D01*
X52714Y216765D01*
X52736Y216722D01*
X52762Y216681D01*
X52791Y216642D01*
X52822Y216606D01*
X52856Y216572D01*
X52892Y216541D01*
X52931Y216512D01*
X52972Y216486D01*
X53015Y216464D01*
X53059Y216445D01*
X53104Y216429D01*
X53151Y216416D01*
X53198Y216407D01*
X53246Y216402D01*
X53294Y216400D01*
X54906Y216400D01*
X54954Y216402D01*
X55002Y216407D01*
X55049Y216416D01*
X55096Y216429D01*
X55141Y216445D01*
X55185Y216464D01*
X55228Y216486D01*
X55269Y216512D01*
X55308Y216541D01*
X55344Y216572D01*
X55378Y216606D01*
X55409Y216642D01*
X55438Y216681D01*
X55464Y216722D01*
X55486Y216765D01*
X55505Y216809D01*
X55521Y216854D01*
X55534Y216901D01*
X55543Y216948D01*
X55548Y216996D01*
X55550Y217044D01*
X55550Y217689D01*
X53939Y219454D02*
X53939Y220420D01*
X53939Y219454D02*
X53941Y219406D01*
X53946Y219358D01*
X53955Y219311D01*
X53968Y219264D01*
X53984Y219219D01*
X54003Y219175D01*
X54025Y219132D01*
X54051Y219091D01*
X54080Y219052D01*
X54111Y219016D01*
X54145Y218982D01*
X54181Y218950D01*
X54220Y218922D01*
X54261Y218896D01*
X54304Y218874D01*
X54348Y218855D01*
X54393Y218839D01*
X54440Y218826D01*
X54487Y218817D01*
X54535Y218812D01*
X54583Y218810D01*
X54583Y218809D02*
X54744Y218809D01*
X54799Y218811D01*
X54854Y218817D01*
X54908Y218826D01*
X54961Y218839D01*
X55014Y218856D01*
X55065Y218876D01*
X55115Y218899D01*
X55163Y218926D01*
X55209Y218957D01*
X55253Y218990D01*
X55294Y219026D01*
X55333Y219065D01*
X55369Y219106D01*
X55402Y219150D01*
X55433Y219196D01*
X55460Y219244D01*
X55483Y219294D01*
X55503Y219345D01*
X55520Y219398D01*
X55533Y219451D01*
X55542Y219505D01*
X55548Y219560D01*
X55550Y219615D01*
X55548Y219670D01*
X55542Y219725D01*
X55533Y219779D01*
X55520Y219832D01*
X55503Y219885D01*
X55483Y219936D01*
X55460Y219986D01*
X55433Y220034D01*
X55402Y220080D01*
X55369Y220124D01*
X55333Y220165D01*
X55294Y220204D01*
X55253Y220240D01*
X55209Y220273D01*
X55163Y220304D01*
X55115Y220331D01*
X55065Y220354D01*
X55014Y220374D01*
X54961Y220391D01*
X54908Y220404D01*
X54854Y220413D01*
X54799Y220419D01*
X54744Y220421D01*
X54744Y220420D02*
X53939Y220420D01*
X53869Y220418D01*
X53800Y220412D01*
X53730Y220403D01*
X53662Y220390D01*
X53594Y220373D01*
X53527Y220353D01*
X53462Y220328D01*
X53398Y220301D01*
X53335Y220270D01*
X53274Y220235D01*
X53216Y220198D01*
X53159Y220157D01*
X53105Y220113D01*
X53053Y220067D01*
X53003Y220017D01*
X52957Y219965D01*
X52913Y219911D01*
X52872Y219854D01*
X52835Y219796D01*
X52800Y219735D01*
X52769Y219672D01*
X52742Y219608D01*
X52717Y219543D01*
X52697Y219476D01*
X52680Y219408D01*
X52667Y219340D01*
X52658Y219270D01*
X52652Y219201D01*
X52650Y219131D01*
X7306Y139487D02*
X7306Y136587D01*
X7306Y139487D02*
X6500Y139487D01*
X6445Y139485D01*
X6390Y139479D01*
X6336Y139470D01*
X6283Y139457D01*
X6230Y139440D01*
X6179Y139420D01*
X6129Y139397D01*
X6081Y139370D01*
X6035Y139339D01*
X5991Y139306D01*
X5950Y139270D01*
X5911Y139231D01*
X5875Y139190D01*
X5842Y139146D01*
X5811Y139100D01*
X5784Y139052D01*
X5761Y139002D01*
X5741Y138951D01*
X5724Y138898D01*
X5711Y138845D01*
X5702Y138791D01*
X5696Y138736D01*
X5694Y138681D01*
X5695Y138681D02*
X5695Y137393D01*
X5694Y137393D02*
X5696Y137338D01*
X5702Y137283D01*
X5711Y137229D01*
X5724Y137176D01*
X5741Y137123D01*
X5761Y137072D01*
X5784Y137022D01*
X5811Y136974D01*
X5842Y136928D01*
X5875Y136884D01*
X5911Y136843D01*
X5950Y136804D01*
X5991Y136768D01*
X6035Y136735D01*
X6081Y136704D01*
X6129Y136677D01*
X6179Y136654D01*
X6230Y136634D01*
X6283Y136617D01*
X6336Y136604D01*
X6390Y136595D01*
X6445Y136589D01*
X6500Y136587D01*
X7306Y136587D01*
X4330Y138843D02*
X3524Y139487D01*
X3524Y136587D01*
X2719Y136587D02*
X4330Y136587D01*
D11*
X11935Y224799D02*
X25557Y224799D01*
X25557Y200201D02*
X11935Y200201D01*
X11935Y224799D01*
X25557Y224799D02*
X25557Y200201D01*
D10*
X10350Y220590D02*
X7450Y220590D01*
X7450Y220268D02*
X7450Y220913D01*
X10350Y220913D02*
X10350Y220268D01*
X7450Y222724D02*
X7450Y223369D01*
X7450Y222724D02*
X7452Y222676D01*
X7457Y222628D01*
X7466Y222581D01*
X7479Y222534D01*
X7495Y222489D01*
X7514Y222445D01*
X7536Y222402D01*
X7562Y222361D01*
X7591Y222322D01*
X7622Y222286D01*
X7656Y222252D01*
X7692Y222221D01*
X7731Y222192D01*
X7772Y222166D01*
X7815Y222144D01*
X7859Y222125D01*
X7904Y222109D01*
X7951Y222096D01*
X7998Y222087D01*
X8046Y222082D01*
X8094Y222080D01*
X9706Y222080D01*
X9754Y222082D01*
X9802Y222087D01*
X9849Y222096D01*
X9896Y222109D01*
X9941Y222125D01*
X9985Y222144D01*
X10028Y222166D01*
X10069Y222192D01*
X10108Y222221D01*
X10144Y222252D01*
X10178Y222286D01*
X10209Y222322D01*
X10238Y222361D01*
X10264Y222402D01*
X10286Y222445D01*
X10305Y222489D01*
X10321Y222534D01*
X10334Y222581D01*
X10343Y222628D01*
X10348Y222676D01*
X10350Y222724D01*
X10350Y223369D01*
X9706Y224489D02*
X10350Y225294D01*
X7450Y225294D01*
X7450Y224489D02*
X7450Y226100D01*
X7350Y150994D02*
X7350Y149706D01*
X7350Y150994D02*
X7348Y151049D01*
X7342Y151104D01*
X7333Y151158D01*
X7320Y151211D01*
X7303Y151264D01*
X7283Y151315D01*
X7260Y151365D01*
X7233Y151413D01*
X7202Y151459D01*
X7169Y151503D01*
X7133Y151544D01*
X7094Y151583D01*
X7053Y151619D01*
X7009Y151652D01*
X6963Y151683D01*
X6915Y151710D01*
X6865Y151733D01*
X6814Y151753D01*
X6761Y151770D01*
X6708Y151783D01*
X6654Y151792D01*
X6599Y151798D01*
X6544Y151800D01*
X6489Y151798D01*
X6434Y151792D01*
X6380Y151783D01*
X6327Y151770D01*
X6274Y151753D01*
X6223Y151733D01*
X6173Y151710D01*
X6125Y151683D01*
X6079Y151652D01*
X6035Y151619D01*
X5994Y151583D01*
X5955Y151544D01*
X5919Y151503D01*
X5886Y151459D01*
X5855Y151413D01*
X5828Y151365D01*
X5805Y151315D01*
X5785Y151264D01*
X5768Y151211D01*
X5755Y151158D01*
X5746Y151104D01*
X5740Y151049D01*
X5738Y150994D01*
X5739Y150994D02*
X5739Y149706D01*
X5738Y149706D02*
X5740Y149651D01*
X5746Y149596D01*
X5755Y149542D01*
X5768Y149489D01*
X5785Y149436D01*
X5805Y149385D01*
X5828Y149335D01*
X5855Y149287D01*
X5886Y149241D01*
X5919Y149197D01*
X5955Y149156D01*
X5994Y149117D01*
X6035Y149081D01*
X6079Y149048D01*
X6125Y149017D01*
X6173Y148990D01*
X6223Y148967D01*
X6274Y148947D01*
X6327Y148930D01*
X6380Y148917D01*
X6434Y148908D01*
X6489Y148902D01*
X6544Y148900D01*
X6599Y148902D01*
X6654Y148908D01*
X6708Y148917D01*
X6761Y148930D01*
X6814Y148947D01*
X6865Y148967D01*
X6915Y148990D01*
X6963Y149017D01*
X7009Y149048D01*
X7053Y149081D01*
X7094Y149117D01*
X7133Y149156D01*
X7169Y149197D01*
X7202Y149241D01*
X7233Y149287D01*
X7260Y149335D01*
X7283Y149385D01*
X7303Y149436D01*
X7320Y149489D01*
X7333Y149542D01*
X7342Y149596D01*
X7348Y149651D01*
X7350Y149706D01*
X6061Y149544D02*
X5417Y148900D01*
X2945Y151075D02*
X2947Y151127D01*
X2952Y151178D01*
X2962Y151229D01*
X2974Y151279D01*
X2991Y151328D01*
X3011Y151376D01*
X3034Y151422D01*
X3060Y151467D01*
X3090Y151509D01*
X3122Y151550D01*
X3157Y151588D01*
X3195Y151623D01*
X3236Y151655D01*
X3278Y151685D01*
X3323Y151711D01*
X3369Y151734D01*
X3417Y151754D01*
X3466Y151771D01*
X3516Y151783D01*
X3567Y151793D01*
X3618Y151798D01*
X3670Y151800D01*
X3729Y151798D01*
X3787Y151793D01*
X3845Y151783D01*
X3902Y151771D01*
X3958Y151754D01*
X4013Y151735D01*
X4067Y151711D01*
X4119Y151685D01*
X4169Y151655D01*
X4218Y151622D01*
X4264Y151586D01*
X4308Y151547D01*
X4349Y151506D01*
X4388Y151462D01*
X4424Y151416D01*
X4456Y151367D01*
X4486Y151317D01*
X4513Y151265D01*
X4536Y151211D01*
X4556Y151156D01*
X3187Y150511D02*
X3150Y150548D01*
X3116Y150588D01*
X3084Y150630D01*
X3056Y150675D01*
X3030Y150721D01*
X3008Y150768D01*
X2989Y150817D01*
X2973Y150867D01*
X2961Y150918D01*
X2952Y150970D01*
X2947Y151022D01*
X2945Y151075D01*
X3187Y150511D02*
X4557Y148900D01*
X2945Y148900D01*
X137975Y92869D02*
X137975Y91581D01*
X137975Y92869D02*
X137973Y92924D01*
X137967Y92979D01*
X137958Y93033D01*
X137945Y93086D01*
X137928Y93139D01*
X137908Y93190D01*
X137885Y93240D01*
X137858Y93288D01*
X137827Y93334D01*
X137794Y93378D01*
X137758Y93419D01*
X137719Y93458D01*
X137678Y93494D01*
X137634Y93527D01*
X137588Y93558D01*
X137540Y93585D01*
X137490Y93608D01*
X137439Y93628D01*
X137386Y93645D01*
X137333Y93658D01*
X137279Y93667D01*
X137224Y93673D01*
X137169Y93675D01*
X137114Y93673D01*
X137059Y93667D01*
X137005Y93658D01*
X136952Y93645D01*
X136899Y93628D01*
X136848Y93608D01*
X136798Y93585D01*
X136750Y93558D01*
X136704Y93527D01*
X136660Y93494D01*
X136619Y93458D01*
X136580Y93419D01*
X136544Y93378D01*
X136511Y93334D01*
X136480Y93288D01*
X136453Y93240D01*
X136430Y93190D01*
X136410Y93139D01*
X136393Y93086D01*
X136380Y93033D01*
X136371Y92979D01*
X136365Y92924D01*
X136363Y92869D01*
X136364Y92869D02*
X136364Y91581D01*
X136363Y91581D02*
X136365Y91526D01*
X136371Y91471D01*
X136380Y91417D01*
X136393Y91364D01*
X136410Y91311D01*
X136430Y91260D01*
X136453Y91210D01*
X136480Y91162D01*
X136511Y91116D01*
X136544Y91072D01*
X136580Y91031D01*
X136619Y90992D01*
X136660Y90956D01*
X136704Y90923D01*
X136750Y90892D01*
X136798Y90865D01*
X136848Y90842D01*
X136899Y90822D01*
X136952Y90805D01*
X137005Y90792D01*
X137059Y90783D01*
X137114Y90777D01*
X137169Y90775D01*
X137224Y90777D01*
X137279Y90783D01*
X137333Y90792D01*
X137386Y90805D01*
X137439Y90822D01*
X137490Y90842D01*
X137540Y90865D01*
X137588Y90892D01*
X137634Y90923D01*
X137678Y90956D01*
X137719Y90992D01*
X137758Y91031D01*
X137794Y91072D01*
X137827Y91116D01*
X137858Y91162D01*
X137885Y91210D01*
X137908Y91260D01*
X137928Y91311D01*
X137945Y91364D01*
X137958Y91417D01*
X137967Y91471D01*
X137973Y91526D01*
X137975Y91581D01*
X136686Y91419D02*
X136042Y90775D01*
X135182Y90775D02*
X134376Y90775D01*
X134321Y90777D01*
X134266Y90783D01*
X134212Y90792D01*
X134159Y90805D01*
X134106Y90822D01*
X134055Y90842D01*
X134005Y90865D01*
X133957Y90892D01*
X133911Y90923D01*
X133867Y90956D01*
X133826Y90992D01*
X133787Y91031D01*
X133751Y91072D01*
X133718Y91116D01*
X133687Y91162D01*
X133660Y91210D01*
X133637Y91260D01*
X133617Y91311D01*
X133600Y91364D01*
X133587Y91417D01*
X133578Y91471D01*
X133572Y91526D01*
X133570Y91581D01*
X133572Y91636D01*
X133578Y91691D01*
X133587Y91745D01*
X133600Y91798D01*
X133617Y91851D01*
X133637Y91902D01*
X133660Y91952D01*
X133687Y92000D01*
X133718Y92046D01*
X133751Y92090D01*
X133787Y92131D01*
X133826Y92170D01*
X133867Y92206D01*
X133911Y92239D01*
X133957Y92270D01*
X134005Y92297D01*
X134055Y92320D01*
X134106Y92340D01*
X134159Y92357D01*
X134212Y92370D01*
X134266Y92379D01*
X134321Y92385D01*
X134376Y92387D01*
X134215Y93675D02*
X135182Y93675D01*
X134215Y93675D02*
X134166Y93673D01*
X134117Y93667D01*
X134068Y93658D01*
X134021Y93645D01*
X133974Y93628D01*
X133929Y93608D01*
X133886Y93585D01*
X133844Y93558D01*
X133805Y93528D01*
X133768Y93495D01*
X133734Y93459D01*
X133703Y93421D01*
X133674Y93381D01*
X133649Y93339D01*
X133627Y93294D01*
X133609Y93249D01*
X133594Y93202D01*
X133583Y93154D01*
X133575Y93105D01*
X133571Y93056D01*
X133571Y93006D01*
X133575Y92957D01*
X133583Y92908D01*
X133594Y92860D01*
X133609Y92813D01*
X133627Y92768D01*
X133649Y92723D01*
X133674Y92681D01*
X133703Y92641D01*
X133734Y92603D01*
X133768Y92567D01*
X133805Y92534D01*
X133844Y92504D01*
X133886Y92477D01*
X133929Y92454D01*
X133974Y92434D01*
X134021Y92417D01*
X134068Y92404D01*
X134117Y92395D01*
X134166Y92389D01*
X134215Y92387D01*
X134215Y92386D02*
X134859Y92386D01*
X112121Y78600D02*
X112121Y75700D01*
X112121Y78600D02*
X111315Y78600D01*
X111260Y78598D01*
X111205Y78592D01*
X111151Y78583D01*
X111098Y78570D01*
X111045Y78553D01*
X110994Y78533D01*
X110944Y78510D01*
X110896Y78483D01*
X110850Y78452D01*
X110806Y78419D01*
X110765Y78383D01*
X110726Y78344D01*
X110690Y78303D01*
X110657Y78259D01*
X110626Y78213D01*
X110599Y78165D01*
X110576Y78115D01*
X110556Y78064D01*
X110539Y78011D01*
X110526Y77958D01*
X110517Y77904D01*
X110511Y77849D01*
X110509Y77794D01*
X110511Y77739D01*
X110517Y77684D01*
X110526Y77630D01*
X110539Y77577D01*
X110556Y77524D01*
X110576Y77473D01*
X110599Y77423D01*
X110626Y77375D01*
X110657Y77329D01*
X110690Y77285D01*
X110726Y77244D01*
X110765Y77205D01*
X110806Y77169D01*
X110850Y77136D01*
X110896Y77105D01*
X110944Y77078D01*
X110994Y77055D01*
X111045Y77035D01*
X111098Y77018D01*
X111151Y77005D01*
X111205Y76996D01*
X111260Y76990D01*
X111315Y76988D01*
X111315Y76989D02*
X112121Y76989D01*
X111154Y76989D02*
X110510Y75700D01*
X109261Y77956D02*
X108456Y78600D01*
X108456Y75700D01*
X109261Y75700D02*
X107650Y75700D01*
X81100Y69999D02*
X78200Y69999D01*
X81100Y69999D02*
X81100Y70805D01*
X81098Y70860D01*
X81092Y70915D01*
X81083Y70969D01*
X81070Y71022D01*
X81053Y71075D01*
X81033Y71126D01*
X81010Y71176D01*
X80983Y71224D01*
X80952Y71270D01*
X80919Y71314D01*
X80883Y71355D01*
X80844Y71394D01*
X80803Y71430D01*
X80759Y71463D01*
X80713Y71494D01*
X80665Y71521D01*
X80615Y71544D01*
X80564Y71564D01*
X80511Y71581D01*
X80458Y71594D01*
X80404Y71603D01*
X80349Y71609D01*
X80294Y71611D01*
X80239Y71609D01*
X80184Y71603D01*
X80130Y71594D01*
X80077Y71581D01*
X80024Y71564D01*
X79973Y71544D01*
X79923Y71521D01*
X79875Y71494D01*
X79829Y71463D01*
X79785Y71430D01*
X79744Y71394D01*
X79705Y71355D01*
X79669Y71314D01*
X79636Y71270D01*
X79605Y71224D01*
X79578Y71176D01*
X79555Y71126D01*
X79535Y71075D01*
X79518Y71022D01*
X79505Y70969D01*
X79496Y70915D01*
X79490Y70860D01*
X79488Y70805D01*
X79489Y70805D02*
X79489Y69999D01*
X79489Y70966D02*
X78200Y71610D01*
X80456Y72859D02*
X81100Y73664D01*
X78200Y73664D01*
X78200Y72859D02*
X78200Y74470D01*
X79650Y75739D02*
X79740Y75741D01*
X79831Y75746D01*
X79920Y75754D01*
X80010Y75766D01*
X80099Y75782D01*
X80187Y75800D01*
X80275Y75822D01*
X80362Y75847D01*
X80447Y75876D01*
X80532Y75908D01*
X80615Y75943D01*
X80697Y75981D01*
X80697Y75980D02*
X80740Y75997D01*
X80782Y76017D01*
X80822Y76040D01*
X80860Y76066D01*
X80896Y76095D01*
X80930Y76127D01*
X80961Y76161D01*
X80989Y76198D01*
X81014Y76236D01*
X81037Y76277D01*
X81056Y76319D01*
X81072Y76362D01*
X81084Y76407D01*
X81093Y76452D01*
X81098Y76498D01*
X81100Y76544D01*
X81098Y76590D01*
X81093Y76636D01*
X81084Y76681D01*
X81072Y76726D01*
X81056Y76769D01*
X81037Y76811D01*
X81014Y76852D01*
X80989Y76890D01*
X80961Y76927D01*
X80930Y76961D01*
X80896Y76993D01*
X80860Y77022D01*
X80822Y77048D01*
X80782Y77071D01*
X80740Y77091D01*
X80697Y77108D01*
X80615Y77146D01*
X80532Y77181D01*
X80447Y77213D01*
X80362Y77242D01*
X80275Y77267D01*
X80187Y77289D01*
X80099Y77307D01*
X80010Y77323D01*
X79920Y77335D01*
X79831Y77343D01*
X79740Y77348D01*
X79650Y77350D01*
X79650Y75739D02*
X79560Y75741D01*
X79469Y75746D01*
X79380Y75754D01*
X79290Y75766D01*
X79201Y75782D01*
X79113Y75800D01*
X79025Y75822D01*
X78938Y75847D01*
X78853Y75876D01*
X78768Y75908D01*
X78685Y75943D01*
X78603Y75981D01*
X78603Y75980D02*
X78560Y75997D01*
X78518Y76017D01*
X78478Y76040D01*
X78440Y76066D01*
X78404Y76095D01*
X78370Y76127D01*
X78339Y76161D01*
X78311Y76198D01*
X78286Y76236D01*
X78263Y76277D01*
X78244Y76319D01*
X78228Y76362D01*
X78216Y76407D01*
X78207Y76452D01*
X78202Y76498D01*
X78200Y76544D01*
X78603Y77108D02*
X78685Y77146D01*
X78768Y77181D01*
X78853Y77213D01*
X78938Y77242D01*
X79025Y77267D01*
X79113Y77289D01*
X79201Y77307D01*
X79290Y77323D01*
X79380Y77335D01*
X79469Y77343D01*
X79560Y77348D01*
X79650Y77350D01*
X78603Y77108D02*
X78560Y77091D01*
X78518Y77071D01*
X78478Y77048D01*
X78440Y77022D01*
X78404Y76993D01*
X78370Y76961D01*
X78339Y76927D01*
X78311Y76890D01*
X78286Y76852D01*
X78263Y76811D01*
X78244Y76769D01*
X78228Y76726D01*
X78216Y76681D01*
X78207Y76636D01*
X78202Y76590D01*
X78200Y76544D01*
X78844Y75900D02*
X80456Y77189D01*
X78675Y133900D02*
X75775Y133900D01*
X78675Y133900D02*
X78675Y134706D01*
X78673Y134761D01*
X78667Y134816D01*
X78658Y134870D01*
X78645Y134923D01*
X78628Y134976D01*
X78608Y135027D01*
X78585Y135077D01*
X78558Y135125D01*
X78527Y135171D01*
X78494Y135215D01*
X78458Y135256D01*
X78419Y135295D01*
X78378Y135331D01*
X78334Y135364D01*
X78288Y135395D01*
X78240Y135422D01*
X78190Y135445D01*
X78139Y135465D01*
X78086Y135482D01*
X78033Y135495D01*
X77979Y135504D01*
X77924Y135510D01*
X77869Y135512D01*
X77814Y135510D01*
X77759Y135504D01*
X77705Y135495D01*
X77652Y135482D01*
X77599Y135465D01*
X77548Y135445D01*
X77498Y135422D01*
X77450Y135395D01*
X77404Y135364D01*
X77360Y135331D01*
X77319Y135295D01*
X77280Y135256D01*
X77244Y135215D01*
X77211Y135171D01*
X77180Y135125D01*
X77153Y135077D01*
X77130Y135027D01*
X77110Y134976D01*
X77093Y134923D01*
X77080Y134870D01*
X77071Y134816D01*
X77065Y134761D01*
X77063Y134706D01*
X77064Y134706D02*
X77064Y133900D01*
X77064Y134867D02*
X75775Y135511D01*
X78031Y136760D02*
X78675Y137565D01*
X75775Y137565D01*
X75775Y136760D02*
X75775Y138371D01*
X78031Y139640D02*
X78675Y140445D01*
X75775Y140445D01*
X75775Y139640D02*
X75775Y141251D01*
X71800Y133900D02*
X68900Y133900D01*
X71800Y133900D02*
X71800Y134706D01*
X71798Y134761D01*
X71792Y134816D01*
X71783Y134870D01*
X71770Y134923D01*
X71753Y134976D01*
X71733Y135027D01*
X71710Y135077D01*
X71683Y135125D01*
X71652Y135171D01*
X71619Y135215D01*
X71583Y135256D01*
X71544Y135295D01*
X71503Y135331D01*
X71459Y135364D01*
X71413Y135395D01*
X71365Y135422D01*
X71315Y135445D01*
X71264Y135465D01*
X71211Y135482D01*
X71158Y135495D01*
X71104Y135504D01*
X71049Y135510D01*
X70994Y135512D01*
X70939Y135510D01*
X70884Y135504D01*
X70830Y135495D01*
X70777Y135482D01*
X70724Y135465D01*
X70673Y135445D01*
X70623Y135422D01*
X70575Y135395D01*
X70529Y135364D01*
X70485Y135331D01*
X70444Y135295D01*
X70405Y135256D01*
X70369Y135215D01*
X70336Y135171D01*
X70305Y135125D01*
X70278Y135077D01*
X70255Y135027D01*
X70235Y134976D01*
X70218Y134923D01*
X70205Y134870D01*
X70196Y134816D01*
X70190Y134761D01*
X70188Y134706D01*
X70189Y134706D02*
X70189Y133900D01*
X70189Y134867D02*
X68900Y135511D01*
X71156Y136760D02*
X71800Y137565D01*
X68900Y137565D01*
X68900Y136760D02*
X68900Y138371D01*
X71075Y141251D02*
X71127Y141249D01*
X71178Y141244D01*
X71229Y141234D01*
X71279Y141222D01*
X71328Y141205D01*
X71376Y141185D01*
X71422Y141162D01*
X71467Y141136D01*
X71509Y141106D01*
X71550Y141074D01*
X71588Y141039D01*
X71623Y141001D01*
X71655Y140960D01*
X71685Y140918D01*
X71711Y140873D01*
X71734Y140827D01*
X71754Y140779D01*
X71771Y140730D01*
X71783Y140680D01*
X71793Y140629D01*
X71798Y140578D01*
X71800Y140526D01*
X71798Y140467D01*
X71793Y140409D01*
X71783Y140351D01*
X71771Y140294D01*
X71754Y140238D01*
X71735Y140183D01*
X71711Y140129D01*
X71685Y140077D01*
X71655Y140027D01*
X71622Y139978D01*
X71586Y139932D01*
X71547Y139888D01*
X71506Y139847D01*
X71462Y139808D01*
X71416Y139772D01*
X71367Y139740D01*
X71317Y139710D01*
X71265Y139683D01*
X71211Y139660D01*
X71156Y139640D01*
X70511Y141009D02*
X70548Y141046D01*
X70588Y141080D01*
X70630Y141112D01*
X70675Y141140D01*
X70721Y141166D01*
X70768Y141188D01*
X70817Y141207D01*
X70867Y141223D01*
X70918Y141235D01*
X70970Y141244D01*
X71022Y141249D01*
X71075Y141251D01*
X70511Y141009D02*
X68900Y139640D01*
X68900Y141251D01*
X64925Y133900D02*
X62025Y133900D01*
X64925Y133900D02*
X64925Y134706D01*
X64923Y134761D01*
X64917Y134816D01*
X64908Y134870D01*
X64895Y134923D01*
X64878Y134976D01*
X64858Y135027D01*
X64835Y135077D01*
X64808Y135125D01*
X64777Y135171D01*
X64744Y135215D01*
X64708Y135256D01*
X64669Y135295D01*
X64628Y135331D01*
X64584Y135364D01*
X64538Y135395D01*
X64490Y135422D01*
X64440Y135445D01*
X64389Y135465D01*
X64336Y135482D01*
X64283Y135495D01*
X64229Y135504D01*
X64174Y135510D01*
X64119Y135512D01*
X64064Y135510D01*
X64009Y135504D01*
X63955Y135495D01*
X63902Y135482D01*
X63849Y135465D01*
X63798Y135445D01*
X63748Y135422D01*
X63700Y135395D01*
X63654Y135364D01*
X63610Y135331D01*
X63569Y135295D01*
X63530Y135256D01*
X63494Y135215D01*
X63461Y135171D01*
X63430Y135125D01*
X63403Y135077D01*
X63380Y135027D01*
X63360Y134976D01*
X63343Y134923D01*
X63330Y134870D01*
X63321Y134816D01*
X63315Y134761D01*
X63313Y134706D01*
X63314Y134706D02*
X63314Y133900D01*
X63314Y134867D02*
X62025Y135511D01*
X64281Y136760D02*
X64925Y137565D01*
X62025Y137565D01*
X62025Y136760D02*
X62025Y138371D01*
X62025Y139640D02*
X62025Y140445D01*
X62027Y140500D01*
X62033Y140555D01*
X62042Y140609D01*
X62055Y140662D01*
X62072Y140715D01*
X62092Y140766D01*
X62115Y140816D01*
X62142Y140864D01*
X62173Y140910D01*
X62206Y140954D01*
X62242Y140995D01*
X62281Y141034D01*
X62322Y141070D01*
X62366Y141103D01*
X62412Y141134D01*
X62460Y141161D01*
X62510Y141184D01*
X62561Y141204D01*
X62614Y141221D01*
X62667Y141234D01*
X62721Y141243D01*
X62776Y141249D01*
X62831Y141251D01*
X62886Y141249D01*
X62941Y141243D01*
X62995Y141234D01*
X63048Y141221D01*
X63101Y141204D01*
X63152Y141184D01*
X63202Y141161D01*
X63250Y141134D01*
X63296Y141103D01*
X63340Y141070D01*
X63381Y141034D01*
X63420Y140995D01*
X63456Y140954D01*
X63489Y140910D01*
X63520Y140864D01*
X63547Y140816D01*
X63570Y140766D01*
X63590Y140715D01*
X63607Y140662D01*
X63620Y140609D01*
X63629Y140555D01*
X63635Y140500D01*
X63637Y140445D01*
X64925Y140607D02*
X64925Y139640D01*
X64925Y140607D02*
X64923Y140656D01*
X64917Y140705D01*
X64908Y140754D01*
X64895Y140801D01*
X64878Y140848D01*
X64858Y140893D01*
X64835Y140936D01*
X64808Y140978D01*
X64778Y141017D01*
X64745Y141054D01*
X64709Y141088D01*
X64671Y141119D01*
X64631Y141148D01*
X64589Y141173D01*
X64544Y141195D01*
X64499Y141213D01*
X64452Y141228D01*
X64404Y141239D01*
X64355Y141247D01*
X64306Y141251D01*
X64256Y141251D01*
X64207Y141247D01*
X64158Y141239D01*
X64110Y141228D01*
X64063Y141213D01*
X64018Y141195D01*
X63973Y141173D01*
X63931Y141148D01*
X63891Y141119D01*
X63853Y141088D01*
X63817Y141054D01*
X63784Y141017D01*
X63754Y140978D01*
X63727Y140936D01*
X63704Y140893D01*
X63684Y140848D01*
X63667Y140801D01*
X63654Y140754D01*
X63645Y140705D01*
X63639Y140656D01*
X63637Y140607D01*
X63636Y140607D02*
X63636Y139962D01*
X82650Y133900D02*
X85550Y133900D01*
X85550Y134706D01*
X85548Y134761D01*
X85542Y134816D01*
X85533Y134870D01*
X85520Y134923D01*
X85503Y134976D01*
X85483Y135027D01*
X85460Y135077D01*
X85433Y135125D01*
X85402Y135171D01*
X85369Y135215D01*
X85333Y135256D01*
X85294Y135295D01*
X85253Y135331D01*
X85209Y135364D01*
X85163Y135395D01*
X85115Y135422D01*
X85065Y135445D01*
X85014Y135465D01*
X84961Y135482D01*
X84908Y135495D01*
X84854Y135504D01*
X84799Y135510D01*
X84744Y135512D01*
X84689Y135510D01*
X84634Y135504D01*
X84580Y135495D01*
X84527Y135482D01*
X84474Y135465D01*
X84423Y135445D01*
X84373Y135422D01*
X84325Y135395D01*
X84279Y135364D01*
X84235Y135331D01*
X84194Y135295D01*
X84155Y135256D01*
X84119Y135215D01*
X84086Y135171D01*
X84055Y135125D01*
X84028Y135077D01*
X84005Y135027D01*
X83985Y134976D01*
X83968Y134923D01*
X83955Y134870D01*
X83946Y134816D01*
X83940Y134761D01*
X83938Y134706D01*
X83939Y134706D02*
X83939Y133900D01*
X83939Y134867D02*
X82650Y135511D01*
X84906Y136760D02*
X85550Y137565D01*
X82650Y137565D01*
X82650Y136760D02*
X82650Y138371D01*
X83294Y139640D02*
X85550Y140284D01*
X83294Y139640D02*
X83294Y141251D01*
X83939Y140768D02*
X82650Y140768D01*
X146400Y78900D02*
X149300Y78900D01*
X149300Y79706D01*
X149298Y79761D01*
X149292Y79816D01*
X149283Y79870D01*
X149270Y79923D01*
X149253Y79976D01*
X149233Y80027D01*
X149210Y80077D01*
X149183Y80125D01*
X149152Y80171D01*
X149119Y80215D01*
X149083Y80256D01*
X149044Y80295D01*
X149003Y80331D01*
X148959Y80364D01*
X148913Y80395D01*
X148865Y80422D01*
X148815Y80445D01*
X148764Y80465D01*
X148711Y80482D01*
X148658Y80495D01*
X148604Y80504D01*
X148549Y80510D01*
X148494Y80512D01*
X148439Y80510D01*
X148384Y80504D01*
X148330Y80495D01*
X148277Y80482D01*
X148224Y80465D01*
X148173Y80445D01*
X148123Y80422D01*
X148075Y80395D01*
X148029Y80364D01*
X147985Y80331D01*
X147944Y80295D01*
X147905Y80256D01*
X147869Y80215D01*
X147836Y80171D01*
X147805Y80125D01*
X147778Y80077D01*
X147755Y80027D01*
X147735Y79976D01*
X147718Y79923D01*
X147705Y79870D01*
X147696Y79816D01*
X147690Y79761D01*
X147688Y79706D01*
X147689Y79706D02*
X147689Y78900D01*
X147689Y79867D02*
X146400Y80511D01*
X148656Y81760D02*
X149300Y82565D01*
X146400Y82565D01*
X146400Y81760D02*
X146400Y83371D01*
X146400Y84640D02*
X146400Y85607D01*
X146402Y85658D01*
X146408Y85708D01*
X146418Y85757D01*
X146432Y85806D01*
X146449Y85853D01*
X146470Y85899D01*
X146495Y85943D01*
X146523Y85986D01*
X146554Y86025D01*
X146589Y86062D01*
X146626Y86097D01*
X146665Y86128D01*
X146708Y86156D01*
X146752Y86181D01*
X146798Y86202D01*
X146845Y86219D01*
X146894Y86233D01*
X146943Y86243D01*
X146993Y86249D01*
X147044Y86251D01*
X147367Y86251D01*
X147415Y86249D01*
X147463Y86244D01*
X147510Y86235D01*
X147557Y86222D01*
X147602Y86206D01*
X147646Y86187D01*
X147689Y86165D01*
X147730Y86139D01*
X147769Y86110D01*
X147805Y86079D01*
X147839Y86045D01*
X147870Y86009D01*
X147899Y85970D01*
X147925Y85929D01*
X147947Y85886D01*
X147966Y85842D01*
X147982Y85797D01*
X147995Y85750D01*
X148004Y85703D01*
X148009Y85655D01*
X148011Y85607D01*
X148011Y84640D01*
X149300Y84640D01*
X149300Y86251D01*
X8600Y160150D02*
X8600Y163050D01*
X7794Y163050D01*
X7739Y163048D01*
X7684Y163042D01*
X7630Y163033D01*
X7577Y163020D01*
X7524Y163003D01*
X7473Y162983D01*
X7423Y162960D01*
X7375Y162933D01*
X7329Y162902D01*
X7285Y162869D01*
X7244Y162833D01*
X7205Y162794D01*
X7169Y162753D01*
X7136Y162709D01*
X7105Y162663D01*
X7078Y162615D01*
X7055Y162565D01*
X7035Y162514D01*
X7018Y162461D01*
X7005Y162408D01*
X6996Y162354D01*
X6990Y162299D01*
X6988Y162244D01*
X6990Y162189D01*
X6996Y162134D01*
X7005Y162080D01*
X7018Y162027D01*
X7035Y161974D01*
X7055Y161923D01*
X7078Y161873D01*
X7105Y161825D01*
X7136Y161779D01*
X7169Y161735D01*
X7205Y161694D01*
X7244Y161655D01*
X7285Y161619D01*
X7329Y161586D01*
X7375Y161555D01*
X7423Y161528D01*
X7473Y161505D01*
X7524Y161485D01*
X7577Y161468D01*
X7630Y161455D01*
X7684Y161446D01*
X7739Y161440D01*
X7794Y161438D01*
X7794Y161439D02*
X8600Y161439D01*
X7633Y161439D02*
X6989Y160150D01*
X5740Y162406D02*
X4935Y163050D01*
X4935Y160150D01*
X5740Y160150D02*
X4129Y160150D01*
X2860Y161761D02*
X1893Y161761D01*
X1842Y161759D01*
X1792Y161753D01*
X1743Y161743D01*
X1694Y161729D01*
X1647Y161712D01*
X1601Y161691D01*
X1557Y161666D01*
X1514Y161638D01*
X1475Y161607D01*
X1438Y161572D01*
X1403Y161535D01*
X1372Y161496D01*
X1344Y161453D01*
X1319Y161409D01*
X1298Y161363D01*
X1281Y161316D01*
X1267Y161267D01*
X1257Y161218D01*
X1251Y161168D01*
X1249Y161117D01*
X1249Y160956D01*
X1251Y160901D01*
X1257Y160846D01*
X1266Y160792D01*
X1279Y160739D01*
X1296Y160686D01*
X1316Y160635D01*
X1339Y160585D01*
X1366Y160537D01*
X1397Y160491D01*
X1430Y160447D01*
X1466Y160406D01*
X1505Y160367D01*
X1546Y160331D01*
X1590Y160298D01*
X1636Y160267D01*
X1684Y160240D01*
X1734Y160217D01*
X1785Y160197D01*
X1838Y160180D01*
X1891Y160167D01*
X1945Y160158D01*
X2000Y160152D01*
X2055Y160150D01*
X2110Y160152D01*
X2165Y160158D01*
X2219Y160167D01*
X2272Y160180D01*
X2325Y160197D01*
X2376Y160217D01*
X2426Y160240D01*
X2474Y160267D01*
X2520Y160298D01*
X2564Y160331D01*
X2605Y160367D01*
X2644Y160406D01*
X2680Y160447D01*
X2713Y160491D01*
X2744Y160537D01*
X2771Y160585D01*
X2794Y160635D01*
X2814Y160686D01*
X2831Y160739D01*
X2844Y160792D01*
X2853Y160846D01*
X2859Y160901D01*
X2861Y160956D01*
X2860Y160956D02*
X2860Y161761D01*
X2858Y161831D01*
X2852Y161900D01*
X2843Y161970D01*
X2830Y162038D01*
X2813Y162106D01*
X2793Y162173D01*
X2768Y162238D01*
X2741Y162302D01*
X2710Y162365D01*
X2675Y162426D01*
X2638Y162484D01*
X2597Y162541D01*
X2553Y162595D01*
X2507Y162647D01*
X2457Y162697D01*
X2405Y162743D01*
X2351Y162787D01*
X2294Y162828D01*
X2236Y162865D01*
X2175Y162900D01*
X2112Y162931D01*
X2048Y162958D01*
X1983Y162983D01*
X1916Y163003D01*
X1848Y163020D01*
X1780Y163033D01*
X1710Y163042D01*
X1641Y163048D01*
X1571Y163050D01*
X101400Y133900D02*
X104300Y133900D01*
X104300Y134706D01*
X104298Y134761D01*
X104292Y134816D01*
X104283Y134870D01*
X104270Y134923D01*
X104253Y134976D01*
X104233Y135027D01*
X104210Y135077D01*
X104183Y135125D01*
X104152Y135171D01*
X104119Y135215D01*
X104083Y135256D01*
X104044Y135295D01*
X104003Y135331D01*
X103959Y135364D01*
X103913Y135395D01*
X103865Y135422D01*
X103815Y135445D01*
X103764Y135465D01*
X103711Y135482D01*
X103658Y135495D01*
X103604Y135504D01*
X103549Y135510D01*
X103494Y135512D01*
X103439Y135510D01*
X103384Y135504D01*
X103330Y135495D01*
X103277Y135482D01*
X103224Y135465D01*
X103173Y135445D01*
X103123Y135422D01*
X103075Y135395D01*
X103029Y135364D01*
X102985Y135331D01*
X102944Y135295D01*
X102905Y135256D01*
X102869Y135215D01*
X102836Y135171D01*
X102805Y135125D01*
X102778Y135077D01*
X102755Y135027D01*
X102735Y134976D01*
X102718Y134923D01*
X102705Y134870D01*
X102696Y134816D01*
X102690Y134761D01*
X102688Y134706D01*
X102689Y134706D02*
X102689Y133900D01*
X102689Y134867D02*
X101400Y135511D01*
X103656Y136760D02*
X104300Y137565D01*
X101400Y137565D01*
X101400Y136760D02*
X101400Y138371D01*
X103978Y139640D02*
X104300Y139640D01*
X104300Y141251D01*
X101400Y140445D01*
X110150Y133900D02*
X113050Y133900D01*
X113050Y134706D01*
X113048Y134761D01*
X113042Y134816D01*
X113033Y134870D01*
X113020Y134923D01*
X113003Y134976D01*
X112983Y135027D01*
X112960Y135077D01*
X112933Y135125D01*
X112902Y135171D01*
X112869Y135215D01*
X112833Y135256D01*
X112794Y135295D01*
X112753Y135331D01*
X112709Y135364D01*
X112663Y135395D01*
X112615Y135422D01*
X112565Y135445D01*
X112514Y135465D01*
X112461Y135482D01*
X112408Y135495D01*
X112354Y135504D01*
X112299Y135510D01*
X112244Y135512D01*
X112189Y135510D01*
X112134Y135504D01*
X112080Y135495D01*
X112027Y135482D01*
X111974Y135465D01*
X111923Y135445D01*
X111873Y135422D01*
X111825Y135395D01*
X111779Y135364D01*
X111735Y135331D01*
X111694Y135295D01*
X111655Y135256D01*
X111619Y135215D01*
X111586Y135171D01*
X111555Y135125D01*
X111528Y135077D01*
X111505Y135027D01*
X111485Y134976D01*
X111468Y134923D01*
X111455Y134870D01*
X111446Y134816D01*
X111440Y134761D01*
X111438Y134706D01*
X111439Y134706D02*
X111439Y133900D01*
X111439Y134867D02*
X110150Y135511D01*
X112406Y136760D02*
X113050Y137565D01*
X110150Y137565D01*
X110150Y136760D02*
X110150Y138371D01*
X110956Y139639D02*
X111011Y139641D01*
X111066Y139647D01*
X111120Y139656D01*
X111173Y139669D01*
X111226Y139686D01*
X111277Y139706D01*
X111327Y139729D01*
X111375Y139756D01*
X111421Y139787D01*
X111465Y139820D01*
X111506Y139856D01*
X111545Y139895D01*
X111581Y139936D01*
X111614Y139980D01*
X111645Y140026D01*
X111672Y140074D01*
X111695Y140124D01*
X111715Y140175D01*
X111732Y140228D01*
X111745Y140281D01*
X111754Y140335D01*
X111760Y140390D01*
X111762Y140445D01*
X111760Y140500D01*
X111754Y140555D01*
X111745Y140609D01*
X111732Y140662D01*
X111715Y140715D01*
X111695Y140766D01*
X111672Y140816D01*
X111645Y140864D01*
X111614Y140910D01*
X111581Y140954D01*
X111545Y140995D01*
X111506Y141034D01*
X111465Y141070D01*
X111421Y141103D01*
X111375Y141134D01*
X111327Y141161D01*
X111277Y141184D01*
X111226Y141204D01*
X111173Y141221D01*
X111120Y141234D01*
X111066Y141243D01*
X111011Y141249D01*
X110956Y141251D01*
X110901Y141249D01*
X110846Y141243D01*
X110792Y141234D01*
X110739Y141221D01*
X110686Y141204D01*
X110635Y141184D01*
X110585Y141161D01*
X110537Y141134D01*
X110491Y141103D01*
X110447Y141070D01*
X110406Y141034D01*
X110367Y140995D01*
X110331Y140954D01*
X110298Y140910D01*
X110267Y140864D01*
X110240Y140816D01*
X110217Y140766D01*
X110197Y140715D01*
X110180Y140662D01*
X110167Y140609D01*
X110158Y140555D01*
X110152Y140500D01*
X110150Y140445D01*
X110152Y140390D01*
X110158Y140335D01*
X110167Y140281D01*
X110180Y140228D01*
X110197Y140175D01*
X110217Y140124D01*
X110240Y140074D01*
X110267Y140026D01*
X110298Y139980D01*
X110331Y139936D01*
X110367Y139895D01*
X110406Y139856D01*
X110447Y139820D01*
X110491Y139787D01*
X110537Y139756D01*
X110585Y139729D01*
X110635Y139706D01*
X110686Y139686D01*
X110739Y139669D01*
X110792Y139656D01*
X110846Y139647D01*
X110901Y139641D01*
X110956Y139639D01*
X112406Y139801D02*
X112455Y139803D01*
X112504Y139809D01*
X112553Y139818D01*
X112600Y139831D01*
X112647Y139848D01*
X112692Y139868D01*
X112735Y139891D01*
X112777Y139918D01*
X112816Y139948D01*
X112853Y139981D01*
X112887Y140017D01*
X112918Y140055D01*
X112947Y140095D01*
X112972Y140137D01*
X112994Y140182D01*
X113012Y140227D01*
X113027Y140274D01*
X113038Y140322D01*
X113046Y140371D01*
X113050Y140420D01*
X113050Y140470D01*
X113046Y140519D01*
X113038Y140568D01*
X113027Y140616D01*
X113012Y140663D01*
X112994Y140708D01*
X112972Y140753D01*
X112947Y140795D01*
X112918Y140835D01*
X112887Y140873D01*
X112853Y140909D01*
X112816Y140942D01*
X112777Y140972D01*
X112735Y140999D01*
X112692Y141022D01*
X112647Y141042D01*
X112600Y141059D01*
X112553Y141072D01*
X112504Y141081D01*
X112455Y141087D01*
X112406Y141089D01*
X112357Y141087D01*
X112308Y141081D01*
X112259Y141072D01*
X112212Y141059D01*
X112165Y141042D01*
X112120Y141022D01*
X112077Y140999D01*
X112035Y140972D01*
X111996Y140942D01*
X111959Y140909D01*
X111925Y140873D01*
X111894Y140835D01*
X111865Y140795D01*
X111840Y140753D01*
X111818Y140708D01*
X111800Y140663D01*
X111785Y140616D01*
X111774Y140568D01*
X111766Y140519D01*
X111762Y140470D01*
X111762Y140420D01*
X111766Y140371D01*
X111774Y140322D01*
X111785Y140274D01*
X111800Y140227D01*
X111818Y140182D01*
X111840Y140137D01*
X111865Y140095D01*
X111894Y140055D01*
X111925Y140017D01*
X111959Y139981D01*
X111996Y139948D01*
X112035Y139918D01*
X112077Y139891D01*
X112120Y139868D01*
X112165Y139848D01*
X112212Y139831D01*
X112259Y139818D01*
X112308Y139809D01*
X112357Y139803D01*
X112406Y139801D01*
X71725Y211400D02*
X71725Y214300D01*
X70919Y214300D01*
X70864Y214298D01*
X70809Y214292D01*
X70755Y214283D01*
X70702Y214270D01*
X70649Y214253D01*
X70598Y214233D01*
X70548Y214210D01*
X70500Y214183D01*
X70454Y214152D01*
X70410Y214119D01*
X70369Y214083D01*
X70330Y214044D01*
X70294Y214003D01*
X70261Y213959D01*
X70230Y213913D01*
X70203Y213865D01*
X70180Y213815D01*
X70160Y213764D01*
X70143Y213711D01*
X70130Y213658D01*
X70121Y213604D01*
X70115Y213549D01*
X70113Y213494D01*
X70115Y213439D01*
X70121Y213384D01*
X70130Y213330D01*
X70143Y213277D01*
X70160Y213224D01*
X70180Y213173D01*
X70203Y213123D01*
X70230Y213075D01*
X70261Y213029D01*
X70294Y212985D01*
X70330Y212944D01*
X70369Y212905D01*
X70410Y212869D01*
X70454Y212836D01*
X70500Y212805D01*
X70548Y212778D01*
X70598Y212755D01*
X70649Y212735D01*
X70702Y212718D01*
X70755Y212705D01*
X70809Y212696D01*
X70864Y212690D01*
X70919Y212688D01*
X70919Y212689D02*
X71725Y212689D01*
X70758Y212689D02*
X70114Y211400D01*
X68865Y213656D02*
X68060Y214300D01*
X68060Y211400D01*
X68865Y211400D02*
X67254Y211400D01*
X65341Y212689D02*
X64374Y212689D01*
X65341Y212689D02*
X65389Y212691D01*
X65437Y212696D01*
X65484Y212705D01*
X65531Y212718D01*
X65576Y212734D01*
X65620Y212753D01*
X65663Y212775D01*
X65704Y212801D01*
X65743Y212830D01*
X65779Y212861D01*
X65813Y212895D01*
X65845Y212931D01*
X65873Y212970D01*
X65899Y213011D01*
X65921Y213054D01*
X65940Y213098D01*
X65956Y213143D01*
X65969Y213190D01*
X65978Y213237D01*
X65983Y213285D01*
X65985Y213333D01*
X65985Y213494D01*
X65986Y213494D02*
X65984Y213549D01*
X65978Y213604D01*
X65969Y213658D01*
X65956Y213711D01*
X65939Y213764D01*
X65919Y213815D01*
X65896Y213865D01*
X65869Y213913D01*
X65838Y213959D01*
X65805Y214003D01*
X65769Y214044D01*
X65730Y214083D01*
X65689Y214119D01*
X65645Y214152D01*
X65599Y214183D01*
X65551Y214210D01*
X65501Y214233D01*
X65450Y214253D01*
X65397Y214270D01*
X65344Y214283D01*
X65290Y214292D01*
X65235Y214298D01*
X65180Y214300D01*
X65125Y214298D01*
X65070Y214292D01*
X65016Y214283D01*
X64963Y214270D01*
X64910Y214253D01*
X64859Y214233D01*
X64809Y214210D01*
X64761Y214183D01*
X64715Y214152D01*
X64671Y214119D01*
X64630Y214083D01*
X64591Y214044D01*
X64555Y214003D01*
X64522Y213959D01*
X64491Y213913D01*
X64464Y213865D01*
X64441Y213815D01*
X64421Y213764D01*
X64404Y213711D01*
X64391Y213658D01*
X64382Y213604D01*
X64376Y213549D01*
X64374Y213494D01*
X64374Y212689D01*
X64376Y212619D01*
X64382Y212550D01*
X64391Y212480D01*
X64404Y212412D01*
X64421Y212344D01*
X64441Y212277D01*
X64466Y212212D01*
X64493Y212148D01*
X64524Y212085D01*
X64559Y212024D01*
X64596Y211966D01*
X64637Y211909D01*
X64681Y211855D01*
X64727Y211803D01*
X64777Y211753D01*
X64829Y211707D01*
X64883Y211663D01*
X64940Y211622D01*
X64998Y211585D01*
X65059Y211550D01*
X65122Y211519D01*
X65186Y211492D01*
X65251Y211467D01*
X65318Y211447D01*
X65386Y211430D01*
X65454Y211417D01*
X65524Y211408D01*
X65593Y211402D01*
X65663Y211400D01*
X112121Y63600D02*
X112121Y60700D01*
X112121Y63600D02*
X111315Y63600D01*
X111260Y63598D01*
X111205Y63592D01*
X111151Y63583D01*
X111098Y63570D01*
X111045Y63553D01*
X110994Y63533D01*
X110944Y63510D01*
X110896Y63483D01*
X110850Y63452D01*
X110806Y63419D01*
X110765Y63383D01*
X110726Y63344D01*
X110690Y63303D01*
X110657Y63259D01*
X110626Y63213D01*
X110599Y63165D01*
X110576Y63115D01*
X110556Y63064D01*
X110539Y63011D01*
X110526Y62958D01*
X110517Y62904D01*
X110511Y62849D01*
X110509Y62794D01*
X110511Y62739D01*
X110517Y62684D01*
X110526Y62630D01*
X110539Y62577D01*
X110556Y62524D01*
X110576Y62473D01*
X110599Y62423D01*
X110626Y62375D01*
X110657Y62329D01*
X110690Y62285D01*
X110726Y62244D01*
X110765Y62205D01*
X110806Y62169D01*
X110850Y62136D01*
X110896Y62105D01*
X110944Y62078D01*
X110994Y62055D01*
X111045Y62035D01*
X111098Y62018D01*
X111151Y62005D01*
X111205Y61996D01*
X111260Y61990D01*
X111315Y61988D01*
X111315Y61989D02*
X112121Y61989D01*
X111154Y61989D02*
X110510Y60700D01*
X107650Y62875D02*
X107652Y62927D01*
X107657Y62978D01*
X107667Y63029D01*
X107679Y63079D01*
X107696Y63128D01*
X107716Y63176D01*
X107739Y63222D01*
X107765Y63267D01*
X107795Y63309D01*
X107827Y63350D01*
X107862Y63388D01*
X107900Y63423D01*
X107941Y63455D01*
X107983Y63485D01*
X108028Y63511D01*
X108074Y63534D01*
X108122Y63554D01*
X108171Y63571D01*
X108221Y63583D01*
X108272Y63593D01*
X108323Y63598D01*
X108375Y63600D01*
X108434Y63598D01*
X108492Y63593D01*
X108550Y63583D01*
X108607Y63571D01*
X108663Y63554D01*
X108718Y63535D01*
X108772Y63511D01*
X108824Y63485D01*
X108874Y63455D01*
X108923Y63422D01*
X108969Y63386D01*
X109013Y63347D01*
X109054Y63306D01*
X109093Y63262D01*
X109129Y63216D01*
X109161Y63167D01*
X109191Y63117D01*
X109218Y63065D01*
X109241Y63011D01*
X109261Y62956D01*
X107892Y62311D02*
X107855Y62348D01*
X107821Y62388D01*
X107789Y62430D01*
X107761Y62475D01*
X107735Y62521D01*
X107713Y62568D01*
X107694Y62617D01*
X107678Y62667D01*
X107666Y62718D01*
X107657Y62770D01*
X107652Y62822D01*
X107650Y62875D01*
X107892Y62311D02*
X109261Y60700D01*
X107650Y60700D01*
X81100Y208749D02*
X78200Y208749D01*
X81100Y208749D02*
X81100Y209555D01*
X81098Y209610D01*
X81092Y209665D01*
X81083Y209719D01*
X81070Y209772D01*
X81053Y209825D01*
X81033Y209876D01*
X81010Y209926D01*
X80983Y209974D01*
X80952Y210020D01*
X80919Y210064D01*
X80883Y210105D01*
X80844Y210144D01*
X80803Y210180D01*
X80759Y210213D01*
X80713Y210244D01*
X80665Y210271D01*
X80615Y210294D01*
X80564Y210314D01*
X80511Y210331D01*
X80458Y210344D01*
X80404Y210353D01*
X80349Y210359D01*
X80294Y210361D01*
X80239Y210359D01*
X80184Y210353D01*
X80130Y210344D01*
X80077Y210331D01*
X80024Y210314D01*
X79973Y210294D01*
X79923Y210271D01*
X79875Y210244D01*
X79829Y210213D01*
X79785Y210180D01*
X79744Y210144D01*
X79705Y210105D01*
X79669Y210064D01*
X79636Y210020D01*
X79605Y209974D01*
X79578Y209926D01*
X79555Y209876D01*
X79535Y209825D01*
X79518Y209772D01*
X79505Y209719D01*
X79496Y209665D01*
X79490Y209610D01*
X79488Y209555D01*
X79489Y209555D02*
X79489Y208749D01*
X79489Y209716D02*
X78200Y210360D01*
X80375Y213220D02*
X80427Y213218D01*
X80478Y213213D01*
X80529Y213203D01*
X80579Y213191D01*
X80628Y213174D01*
X80676Y213154D01*
X80722Y213131D01*
X80767Y213105D01*
X80809Y213075D01*
X80850Y213043D01*
X80888Y213008D01*
X80923Y212970D01*
X80955Y212929D01*
X80985Y212887D01*
X81011Y212842D01*
X81034Y212796D01*
X81054Y212748D01*
X81071Y212699D01*
X81083Y212649D01*
X81093Y212598D01*
X81098Y212547D01*
X81100Y212495D01*
X81098Y212436D01*
X81093Y212378D01*
X81083Y212320D01*
X81071Y212263D01*
X81054Y212207D01*
X81035Y212152D01*
X81011Y212098D01*
X80985Y212046D01*
X80955Y211996D01*
X80922Y211947D01*
X80886Y211901D01*
X80847Y211857D01*
X80806Y211816D01*
X80762Y211777D01*
X80716Y211741D01*
X80667Y211709D01*
X80617Y211679D01*
X80565Y211652D01*
X80511Y211629D01*
X80456Y211609D01*
X79811Y212978D02*
X79848Y213015D01*
X79888Y213049D01*
X79930Y213081D01*
X79975Y213109D01*
X80021Y213135D01*
X80068Y213157D01*
X80117Y213176D01*
X80167Y213192D01*
X80218Y213204D01*
X80270Y213213D01*
X80322Y213218D01*
X80375Y213220D01*
X79811Y212978D02*
X78200Y211609D01*
X78200Y213220D01*
X79650Y214489D02*
X79740Y214491D01*
X79831Y214496D01*
X79920Y214504D01*
X80010Y214516D01*
X80099Y214532D01*
X80187Y214550D01*
X80275Y214572D01*
X80362Y214597D01*
X80447Y214626D01*
X80532Y214658D01*
X80615Y214693D01*
X80697Y214731D01*
X80697Y214730D02*
X80740Y214747D01*
X80782Y214767D01*
X80822Y214790D01*
X80860Y214816D01*
X80896Y214845D01*
X80930Y214877D01*
X80961Y214911D01*
X80989Y214948D01*
X81014Y214986D01*
X81037Y215027D01*
X81056Y215069D01*
X81072Y215112D01*
X81084Y215157D01*
X81093Y215202D01*
X81098Y215248D01*
X81100Y215294D01*
X81098Y215340D01*
X81093Y215386D01*
X81084Y215431D01*
X81072Y215476D01*
X81056Y215519D01*
X81037Y215561D01*
X81014Y215602D01*
X80989Y215640D01*
X80961Y215677D01*
X80930Y215711D01*
X80896Y215743D01*
X80860Y215772D01*
X80822Y215798D01*
X80782Y215821D01*
X80740Y215841D01*
X80697Y215858D01*
X80615Y215896D01*
X80532Y215931D01*
X80447Y215963D01*
X80362Y215992D01*
X80275Y216017D01*
X80187Y216039D01*
X80099Y216057D01*
X80010Y216073D01*
X79920Y216085D01*
X79831Y216093D01*
X79740Y216098D01*
X79650Y216100D01*
X79650Y214489D02*
X79560Y214491D01*
X79469Y214496D01*
X79380Y214504D01*
X79290Y214516D01*
X79201Y214532D01*
X79113Y214550D01*
X79025Y214572D01*
X78938Y214597D01*
X78853Y214626D01*
X78768Y214658D01*
X78685Y214693D01*
X78603Y214731D01*
X78603Y214730D02*
X78560Y214747D01*
X78518Y214767D01*
X78478Y214790D01*
X78440Y214816D01*
X78404Y214845D01*
X78370Y214877D01*
X78339Y214911D01*
X78311Y214948D01*
X78286Y214986D01*
X78263Y215027D01*
X78244Y215069D01*
X78228Y215112D01*
X78216Y215157D01*
X78207Y215202D01*
X78202Y215248D01*
X78200Y215294D01*
X78603Y215858D02*
X78685Y215896D01*
X78768Y215931D01*
X78853Y215963D01*
X78938Y215992D01*
X79025Y216017D01*
X79113Y216039D01*
X79201Y216057D01*
X79290Y216073D01*
X79380Y216085D01*
X79469Y216093D01*
X79560Y216098D01*
X79650Y216100D01*
X78603Y215858D02*
X78560Y215841D01*
X78518Y215821D01*
X78478Y215798D01*
X78440Y215772D01*
X78404Y215743D01*
X78370Y215711D01*
X78339Y215677D01*
X78311Y215640D01*
X78286Y215602D01*
X78263Y215561D01*
X78244Y215519D01*
X78228Y215476D01*
X78216Y215431D01*
X78207Y215386D01*
X78202Y215340D01*
X78200Y215294D01*
X78844Y214650D02*
X80456Y215939D01*
X118200Y108749D02*
X121100Y108749D01*
X121100Y109555D01*
X121098Y109610D01*
X121092Y109665D01*
X121083Y109719D01*
X121070Y109772D01*
X121053Y109825D01*
X121033Y109876D01*
X121010Y109926D01*
X120983Y109974D01*
X120952Y110020D01*
X120919Y110064D01*
X120883Y110105D01*
X120844Y110144D01*
X120803Y110180D01*
X120759Y110213D01*
X120713Y110244D01*
X120665Y110271D01*
X120615Y110294D01*
X120564Y110314D01*
X120511Y110331D01*
X120458Y110344D01*
X120404Y110353D01*
X120349Y110359D01*
X120294Y110361D01*
X120239Y110359D01*
X120184Y110353D01*
X120130Y110344D01*
X120077Y110331D01*
X120024Y110314D01*
X119973Y110294D01*
X119923Y110271D01*
X119875Y110244D01*
X119829Y110213D01*
X119785Y110180D01*
X119744Y110144D01*
X119705Y110105D01*
X119669Y110064D01*
X119636Y110020D01*
X119605Y109974D01*
X119578Y109926D01*
X119555Y109876D01*
X119535Y109825D01*
X119518Y109772D01*
X119505Y109719D01*
X119496Y109665D01*
X119490Y109610D01*
X119488Y109555D01*
X119489Y109555D02*
X119489Y108749D01*
X119489Y109716D02*
X118200Y110360D01*
X120375Y113220D02*
X120427Y113218D01*
X120478Y113213D01*
X120529Y113203D01*
X120579Y113191D01*
X120628Y113174D01*
X120676Y113154D01*
X120722Y113131D01*
X120767Y113105D01*
X120809Y113075D01*
X120850Y113043D01*
X120888Y113008D01*
X120923Y112970D01*
X120955Y112929D01*
X120985Y112887D01*
X121011Y112842D01*
X121034Y112796D01*
X121054Y112748D01*
X121071Y112699D01*
X121083Y112649D01*
X121093Y112598D01*
X121098Y112547D01*
X121100Y112495D01*
X121098Y112436D01*
X121093Y112378D01*
X121083Y112320D01*
X121071Y112263D01*
X121054Y112207D01*
X121035Y112152D01*
X121011Y112098D01*
X120985Y112046D01*
X120955Y111996D01*
X120922Y111947D01*
X120886Y111901D01*
X120847Y111857D01*
X120806Y111816D01*
X120762Y111777D01*
X120716Y111741D01*
X120667Y111709D01*
X120617Y111679D01*
X120565Y111652D01*
X120511Y111629D01*
X120456Y111609D01*
X119811Y112978D02*
X119848Y113015D01*
X119888Y113049D01*
X119930Y113081D01*
X119975Y113109D01*
X120021Y113135D01*
X120068Y113157D01*
X120117Y113176D01*
X120167Y113192D01*
X120218Y113204D01*
X120270Y113213D01*
X120322Y113218D01*
X120375Y113220D01*
X119811Y112978D02*
X118200Y111609D01*
X118200Y113220D01*
X120456Y114489D02*
X121100Y115294D01*
X118200Y115294D01*
X118200Y114489D02*
X118200Y116100D01*
X88600Y208749D02*
X85700Y208749D01*
X88600Y208749D02*
X88600Y209555D01*
X88598Y209610D01*
X88592Y209665D01*
X88583Y209719D01*
X88570Y209772D01*
X88553Y209825D01*
X88533Y209876D01*
X88510Y209926D01*
X88483Y209974D01*
X88452Y210020D01*
X88419Y210064D01*
X88383Y210105D01*
X88344Y210144D01*
X88303Y210180D01*
X88259Y210213D01*
X88213Y210244D01*
X88165Y210271D01*
X88115Y210294D01*
X88064Y210314D01*
X88011Y210331D01*
X87958Y210344D01*
X87904Y210353D01*
X87849Y210359D01*
X87794Y210361D01*
X87739Y210359D01*
X87684Y210353D01*
X87630Y210344D01*
X87577Y210331D01*
X87524Y210314D01*
X87473Y210294D01*
X87423Y210271D01*
X87375Y210244D01*
X87329Y210213D01*
X87285Y210180D01*
X87244Y210144D01*
X87205Y210105D01*
X87169Y210064D01*
X87136Y210020D01*
X87105Y209974D01*
X87078Y209926D01*
X87055Y209876D01*
X87035Y209825D01*
X87018Y209772D01*
X87005Y209719D01*
X86996Y209665D01*
X86990Y209610D01*
X86988Y209555D01*
X86989Y209555D02*
X86989Y208749D01*
X86989Y209716D02*
X85700Y210360D01*
X87875Y213220D02*
X87927Y213218D01*
X87978Y213213D01*
X88029Y213203D01*
X88079Y213191D01*
X88128Y213174D01*
X88176Y213154D01*
X88222Y213131D01*
X88267Y213105D01*
X88309Y213075D01*
X88350Y213043D01*
X88388Y213008D01*
X88423Y212970D01*
X88455Y212929D01*
X88485Y212887D01*
X88511Y212842D01*
X88534Y212796D01*
X88554Y212748D01*
X88571Y212699D01*
X88583Y212649D01*
X88593Y212598D01*
X88598Y212547D01*
X88600Y212495D01*
X88598Y212436D01*
X88593Y212378D01*
X88583Y212320D01*
X88571Y212263D01*
X88554Y212207D01*
X88535Y212152D01*
X88511Y212098D01*
X88485Y212046D01*
X88455Y211996D01*
X88422Y211947D01*
X88386Y211901D01*
X88347Y211857D01*
X88306Y211816D01*
X88262Y211777D01*
X88216Y211741D01*
X88167Y211709D01*
X88117Y211679D01*
X88065Y211652D01*
X88011Y211629D01*
X87956Y211609D01*
X87311Y212978D02*
X87348Y213015D01*
X87388Y213049D01*
X87430Y213081D01*
X87475Y213109D01*
X87521Y213135D01*
X87568Y213157D01*
X87617Y213176D01*
X87667Y213192D01*
X87718Y213204D01*
X87770Y213213D01*
X87822Y213218D01*
X87875Y213220D01*
X87311Y212978D02*
X85700Y211609D01*
X85700Y213220D01*
X88278Y214489D02*
X88600Y214489D01*
X88600Y216100D01*
X85700Y215294D01*
X8600Y170550D02*
X8600Y167650D01*
X8600Y170550D02*
X7794Y170550D01*
X7739Y170548D01*
X7684Y170542D01*
X7630Y170533D01*
X7577Y170520D01*
X7524Y170503D01*
X7473Y170483D01*
X7423Y170460D01*
X7375Y170433D01*
X7329Y170402D01*
X7285Y170369D01*
X7244Y170333D01*
X7205Y170294D01*
X7169Y170253D01*
X7136Y170209D01*
X7105Y170163D01*
X7078Y170115D01*
X7055Y170065D01*
X7035Y170014D01*
X7018Y169961D01*
X7005Y169908D01*
X6996Y169854D01*
X6990Y169799D01*
X6988Y169744D01*
X6990Y169689D01*
X6996Y169634D01*
X7005Y169580D01*
X7018Y169527D01*
X7035Y169474D01*
X7055Y169423D01*
X7078Y169373D01*
X7105Y169325D01*
X7136Y169279D01*
X7169Y169235D01*
X7205Y169194D01*
X7244Y169155D01*
X7285Y169119D01*
X7329Y169086D01*
X7375Y169055D01*
X7423Y169028D01*
X7473Y169005D01*
X7524Y168985D01*
X7577Y168968D01*
X7630Y168955D01*
X7684Y168946D01*
X7739Y168940D01*
X7794Y168938D01*
X7794Y168939D02*
X8600Y168939D01*
X7633Y168939D02*
X6989Y167650D01*
X4129Y169825D02*
X4131Y169877D01*
X4136Y169928D01*
X4146Y169979D01*
X4158Y170029D01*
X4175Y170078D01*
X4195Y170126D01*
X4218Y170172D01*
X4244Y170217D01*
X4274Y170259D01*
X4306Y170300D01*
X4341Y170338D01*
X4379Y170373D01*
X4420Y170405D01*
X4462Y170435D01*
X4507Y170461D01*
X4553Y170484D01*
X4601Y170504D01*
X4650Y170521D01*
X4700Y170533D01*
X4751Y170543D01*
X4802Y170548D01*
X4854Y170550D01*
X4913Y170548D01*
X4971Y170543D01*
X5029Y170533D01*
X5086Y170521D01*
X5142Y170504D01*
X5197Y170485D01*
X5251Y170461D01*
X5303Y170435D01*
X5353Y170405D01*
X5402Y170372D01*
X5448Y170336D01*
X5492Y170297D01*
X5533Y170256D01*
X5572Y170212D01*
X5608Y170166D01*
X5640Y170117D01*
X5670Y170067D01*
X5697Y170015D01*
X5720Y169961D01*
X5740Y169906D01*
X4371Y169261D02*
X4334Y169298D01*
X4300Y169338D01*
X4268Y169380D01*
X4240Y169425D01*
X4214Y169471D01*
X4192Y169518D01*
X4173Y169567D01*
X4157Y169617D01*
X4145Y169668D01*
X4136Y169720D01*
X4131Y169772D01*
X4129Y169825D01*
X4371Y169261D02*
X5740Y167650D01*
X4129Y167650D01*
X2216Y168939D02*
X1249Y168939D01*
X2216Y168939D02*
X2264Y168941D01*
X2312Y168946D01*
X2359Y168955D01*
X2406Y168968D01*
X2451Y168984D01*
X2495Y169003D01*
X2538Y169025D01*
X2579Y169051D01*
X2618Y169080D01*
X2654Y169111D01*
X2688Y169145D01*
X2720Y169181D01*
X2748Y169220D01*
X2774Y169261D01*
X2796Y169304D01*
X2815Y169348D01*
X2831Y169393D01*
X2844Y169440D01*
X2853Y169487D01*
X2858Y169535D01*
X2860Y169583D01*
X2860Y169744D01*
X2861Y169744D02*
X2859Y169799D01*
X2853Y169854D01*
X2844Y169908D01*
X2831Y169961D01*
X2814Y170014D01*
X2794Y170065D01*
X2771Y170115D01*
X2744Y170163D01*
X2713Y170209D01*
X2680Y170253D01*
X2644Y170294D01*
X2605Y170333D01*
X2564Y170369D01*
X2520Y170402D01*
X2474Y170433D01*
X2426Y170460D01*
X2376Y170483D01*
X2325Y170503D01*
X2272Y170520D01*
X2219Y170533D01*
X2165Y170542D01*
X2110Y170548D01*
X2055Y170550D01*
X2000Y170548D01*
X1945Y170542D01*
X1891Y170533D01*
X1838Y170520D01*
X1785Y170503D01*
X1734Y170483D01*
X1684Y170460D01*
X1636Y170433D01*
X1590Y170402D01*
X1546Y170369D01*
X1505Y170333D01*
X1466Y170294D01*
X1430Y170253D01*
X1397Y170209D01*
X1366Y170163D01*
X1339Y170115D01*
X1316Y170065D01*
X1296Y170014D01*
X1279Y169961D01*
X1266Y169908D01*
X1257Y169854D01*
X1251Y169799D01*
X1249Y169744D01*
X1249Y168939D01*
X1251Y168869D01*
X1257Y168800D01*
X1266Y168730D01*
X1279Y168662D01*
X1296Y168594D01*
X1316Y168527D01*
X1341Y168462D01*
X1368Y168398D01*
X1399Y168335D01*
X1434Y168274D01*
X1471Y168216D01*
X1512Y168159D01*
X1556Y168105D01*
X1602Y168053D01*
X1652Y168003D01*
X1704Y167957D01*
X1758Y167913D01*
X1815Y167872D01*
X1873Y167835D01*
X1934Y167800D01*
X1997Y167769D01*
X2061Y167742D01*
X2126Y167717D01*
X2193Y167697D01*
X2261Y167680D01*
X2329Y167667D01*
X2399Y167658D01*
X2468Y167652D01*
X2538Y167650D01*
X89525Y133900D02*
X92425Y133900D01*
X92425Y134706D01*
X92423Y134761D01*
X92417Y134816D01*
X92408Y134870D01*
X92395Y134923D01*
X92378Y134976D01*
X92358Y135027D01*
X92335Y135077D01*
X92308Y135125D01*
X92277Y135171D01*
X92244Y135215D01*
X92208Y135256D01*
X92169Y135295D01*
X92128Y135331D01*
X92084Y135364D01*
X92038Y135395D01*
X91990Y135422D01*
X91940Y135445D01*
X91889Y135465D01*
X91836Y135482D01*
X91783Y135495D01*
X91729Y135504D01*
X91674Y135510D01*
X91619Y135512D01*
X91564Y135510D01*
X91509Y135504D01*
X91455Y135495D01*
X91402Y135482D01*
X91349Y135465D01*
X91298Y135445D01*
X91248Y135422D01*
X91200Y135395D01*
X91154Y135364D01*
X91110Y135331D01*
X91069Y135295D01*
X91030Y135256D01*
X90994Y135215D01*
X90961Y135171D01*
X90930Y135125D01*
X90903Y135077D01*
X90880Y135027D01*
X90860Y134976D01*
X90843Y134923D01*
X90830Y134870D01*
X90821Y134816D01*
X90815Y134761D01*
X90813Y134706D01*
X90814Y134706D02*
X90814Y133900D01*
X90814Y134867D02*
X89525Y135511D01*
X89525Y136760D02*
X89525Y137565D01*
X89527Y137620D01*
X89533Y137675D01*
X89542Y137729D01*
X89555Y137782D01*
X89572Y137835D01*
X89592Y137886D01*
X89615Y137936D01*
X89642Y137984D01*
X89673Y138030D01*
X89706Y138074D01*
X89742Y138115D01*
X89781Y138154D01*
X89822Y138190D01*
X89866Y138223D01*
X89912Y138254D01*
X89960Y138281D01*
X90010Y138304D01*
X90061Y138324D01*
X90114Y138341D01*
X90167Y138354D01*
X90221Y138363D01*
X90276Y138369D01*
X90331Y138371D01*
X90386Y138369D01*
X90441Y138363D01*
X90495Y138354D01*
X90548Y138341D01*
X90601Y138324D01*
X90652Y138304D01*
X90702Y138281D01*
X90750Y138254D01*
X90796Y138223D01*
X90840Y138190D01*
X90881Y138154D01*
X90920Y138115D01*
X90956Y138074D01*
X90989Y138030D01*
X91020Y137984D01*
X91047Y137936D01*
X91070Y137886D01*
X91090Y137835D01*
X91107Y137782D01*
X91120Y137729D01*
X91129Y137675D01*
X91135Y137620D01*
X91137Y137565D01*
X92425Y137727D02*
X92425Y136760D01*
X92425Y137727D02*
X92423Y137776D01*
X92417Y137825D01*
X92408Y137874D01*
X92395Y137921D01*
X92378Y137968D01*
X92358Y138013D01*
X92335Y138056D01*
X92308Y138098D01*
X92278Y138137D01*
X92245Y138174D01*
X92209Y138208D01*
X92171Y138239D01*
X92131Y138268D01*
X92089Y138293D01*
X92044Y138315D01*
X91999Y138333D01*
X91952Y138348D01*
X91904Y138359D01*
X91855Y138367D01*
X91806Y138371D01*
X91756Y138371D01*
X91707Y138367D01*
X91658Y138359D01*
X91610Y138348D01*
X91563Y138333D01*
X91518Y138315D01*
X91473Y138293D01*
X91431Y138268D01*
X91391Y138239D01*
X91353Y138208D01*
X91317Y138174D01*
X91284Y138137D01*
X91254Y138098D01*
X91227Y138056D01*
X91204Y138013D01*
X91184Y137968D01*
X91167Y137921D01*
X91154Y137874D01*
X91145Y137825D01*
X91139Y137776D01*
X91137Y137727D01*
X91136Y137727D02*
X91136Y137082D01*
X89525Y139640D02*
X89525Y140445D01*
X89527Y140500D01*
X89533Y140555D01*
X89542Y140609D01*
X89555Y140662D01*
X89572Y140715D01*
X89592Y140766D01*
X89615Y140816D01*
X89642Y140864D01*
X89673Y140910D01*
X89706Y140954D01*
X89742Y140995D01*
X89781Y141034D01*
X89822Y141070D01*
X89866Y141103D01*
X89912Y141134D01*
X89960Y141161D01*
X90010Y141184D01*
X90061Y141204D01*
X90114Y141221D01*
X90167Y141234D01*
X90221Y141243D01*
X90276Y141249D01*
X90331Y141251D01*
X90386Y141249D01*
X90441Y141243D01*
X90495Y141234D01*
X90548Y141221D01*
X90601Y141204D01*
X90652Y141184D01*
X90702Y141161D01*
X90750Y141134D01*
X90796Y141103D01*
X90840Y141070D01*
X90881Y141034D01*
X90920Y140995D01*
X90956Y140954D01*
X90989Y140910D01*
X91020Y140864D01*
X91047Y140816D01*
X91070Y140766D01*
X91090Y140715D01*
X91107Y140662D01*
X91120Y140609D01*
X91129Y140555D01*
X91135Y140500D01*
X91137Y140445D01*
X92425Y140607D02*
X92425Y139640D01*
X92425Y140607D02*
X92423Y140656D01*
X92417Y140705D01*
X92408Y140754D01*
X92395Y140801D01*
X92378Y140848D01*
X92358Y140893D01*
X92335Y140936D01*
X92308Y140978D01*
X92278Y141017D01*
X92245Y141054D01*
X92209Y141088D01*
X92171Y141119D01*
X92131Y141148D01*
X92089Y141173D01*
X92044Y141195D01*
X91999Y141213D01*
X91952Y141228D01*
X91904Y141239D01*
X91855Y141247D01*
X91806Y141251D01*
X91756Y141251D01*
X91707Y141247D01*
X91658Y141239D01*
X91610Y141228D01*
X91563Y141213D01*
X91518Y141195D01*
X91473Y141173D01*
X91431Y141148D01*
X91391Y141119D01*
X91353Y141088D01*
X91317Y141054D01*
X91284Y141017D01*
X91254Y140978D01*
X91227Y140936D01*
X91204Y140893D01*
X91184Y140848D01*
X91167Y140801D01*
X91154Y140754D01*
X91145Y140705D01*
X91139Y140656D01*
X91137Y140607D01*
X91136Y140607D02*
X91136Y139962D01*
X139225Y105550D02*
X139225Y102650D01*
X139225Y105550D02*
X138419Y105550D01*
X138364Y105548D01*
X138309Y105542D01*
X138255Y105533D01*
X138202Y105520D01*
X138149Y105503D01*
X138098Y105483D01*
X138048Y105460D01*
X138000Y105433D01*
X137954Y105402D01*
X137910Y105369D01*
X137869Y105333D01*
X137830Y105294D01*
X137794Y105253D01*
X137761Y105209D01*
X137730Y105163D01*
X137703Y105115D01*
X137680Y105065D01*
X137660Y105014D01*
X137643Y104961D01*
X137630Y104908D01*
X137621Y104854D01*
X137615Y104799D01*
X137613Y104744D01*
X137615Y104689D01*
X137621Y104634D01*
X137630Y104580D01*
X137643Y104527D01*
X137660Y104474D01*
X137680Y104423D01*
X137703Y104373D01*
X137730Y104325D01*
X137761Y104279D01*
X137794Y104235D01*
X137830Y104194D01*
X137869Y104155D01*
X137910Y104119D01*
X137954Y104086D01*
X138000Y104055D01*
X138048Y104028D01*
X138098Y104005D01*
X138149Y103985D01*
X138202Y103968D01*
X138255Y103955D01*
X138309Y103946D01*
X138364Y103940D01*
X138419Y103938D01*
X138419Y103939D02*
X139225Y103939D01*
X138258Y103939D02*
X137614Y102650D01*
X136365Y102650D02*
X135560Y102650D01*
X135505Y102652D01*
X135450Y102658D01*
X135396Y102667D01*
X135343Y102680D01*
X135290Y102697D01*
X135239Y102717D01*
X135189Y102740D01*
X135141Y102767D01*
X135095Y102798D01*
X135051Y102831D01*
X135010Y102867D01*
X134971Y102906D01*
X134935Y102947D01*
X134902Y102991D01*
X134871Y103037D01*
X134844Y103085D01*
X134821Y103135D01*
X134801Y103186D01*
X134784Y103239D01*
X134771Y103292D01*
X134762Y103346D01*
X134756Y103401D01*
X134754Y103456D01*
X134756Y103511D01*
X134762Y103566D01*
X134771Y103620D01*
X134784Y103673D01*
X134801Y103726D01*
X134821Y103777D01*
X134844Y103827D01*
X134871Y103875D01*
X134902Y103921D01*
X134935Y103965D01*
X134971Y104006D01*
X135010Y104045D01*
X135051Y104081D01*
X135095Y104114D01*
X135141Y104145D01*
X135189Y104172D01*
X135239Y104195D01*
X135290Y104215D01*
X135343Y104232D01*
X135396Y104245D01*
X135450Y104254D01*
X135505Y104260D01*
X135560Y104262D01*
X135398Y105550D02*
X136365Y105550D01*
X135398Y105550D02*
X135349Y105548D01*
X135300Y105542D01*
X135251Y105533D01*
X135204Y105520D01*
X135157Y105503D01*
X135112Y105483D01*
X135069Y105460D01*
X135027Y105433D01*
X134988Y105403D01*
X134951Y105370D01*
X134917Y105334D01*
X134886Y105296D01*
X134857Y105256D01*
X134832Y105214D01*
X134810Y105169D01*
X134792Y105124D01*
X134777Y105077D01*
X134766Y105029D01*
X134758Y104980D01*
X134754Y104931D01*
X134754Y104881D01*
X134758Y104832D01*
X134766Y104783D01*
X134777Y104735D01*
X134792Y104688D01*
X134810Y104643D01*
X134832Y104598D01*
X134857Y104556D01*
X134886Y104516D01*
X134917Y104478D01*
X134951Y104442D01*
X134988Y104409D01*
X135027Y104379D01*
X135069Y104352D01*
X135112Y104329D01*
X135157Y104309D01*
X135204Y104292D01*
X135251Y104279D01*
X135300Y104270D01*
X135349Y104264D01*
X135398Y104262D01*
X135398Y104261D02*
X136043Y104261D01*
X133485Y103294D02*
X132841Y105550D01*
X133485Y103294D02*
X131874Y103294D01*
X132357Y103939D02*
X132357Y102650D01*
X15871Y83600D02*
X15871Y80700D01*
X15871Y83600D02*
X15065Y83600D01*
X15010Y83598D01*
X14955Y83592D01*
X14901Y83583D01*
X14848Y83570D01*
X14795Y83553D01*
X14744Y83533D01*
X14694Y83510D01*
X14646Y83483D01*
X14600Y83452D01*
X14556Y83419D01*
X14515Y83383D01*
X14476Y83344D01*
X14440Y83303D01*
X14407Y83259D01*
X14376Y83213D01*
X14349Y83165D01*
X14326Y83115D01*
X14306Y83064D01*
X14289Y83011D01*
X14276Y82958D01*
X14267Y82904D01*
X14261Y82849D01*
X14259Y82794D01*
X14261Y82739D01*
X14267Y82684D01*
X14276Y82630D01*
X14289Y82577D01*
X14306Y82524D01*
X14326Y82473D01*
X14349Y82423D01*
X14376Y82375D01*
X14407Y82329D01*
X14440Y82285D01*
X14476Y82244D01*
X14515Y82205D01*
X14556Y82169D01*
X14600Y82136D01*
X14646Y82105D01*
X14694Y82078D01*
X14744Y82055D01*
X14795Y82035D01*
X14848Y82018D01*
X14901Y82005D01*
X14955Y81996D01*
X15010Y81990D01*
X15065Y81988D01*
X15065Y81989D02*
X15871Y81989D01*
X14904Y81989D02*
X14260Y80700D01*
X13011Y81344D02*
X12367Y83600D01*
X13011Y81344D02*
X11400Y81344D01*
X11883Y81989D02*
X11883Y80700D01*
X15871Y76725D02*
X15871Y73825D01*
X15871Y76725D02*
X15065Y76725D01*
X15010Y76723D01*
X14955Y76717D01*
X14901Y76708D01*
X14848Y76695D01*
X14795Y76678D01*
X14744Y76658D01*
X14694Y76635D01*
X14646Y76608D01*
X14600Y76577D01*
X14556Y76544D01*
X14515Y76508D01*
X14476Y76469D01*
X14440Y76428D01*
X14407Y76384D01*
X14376Y76338D01*
X14349Y76290D01*
X14326Y76240D01*
X14306Y76189D01*
X14289Y76136D01*
X14276Y76083D01*
X14267Y76029D01*
X14261Y75974D01*
X14259Y75919D01*
X14261Y75864D01*
X14267Y75809D01*
X14276Y75755D01*
X14289Y75702D01*
X14306Y75649D01*
X14326Y75598D01*
X14349Y75548D01*
X14376Y75500D01*
X14407Y75454D01*
X14440Y75410D01*
X14476Y75369D01*
X14515Y75330D01*
X14556Y75294D01*
X14600Y75261D01*
X14646Y75230D01*
X14694Y75203D01*
X14744Y75180D01*
X14795Y75160D01*
X14848Y75143D01*
X14901Y75130D01*
X14955Y75121D01*
X15010Y75115D01*
X15065Y75113D01*
X15065Y75114D02*
X15871Y75114D01*
X14904Y75114D02*
X14260Y73825D01*
X13011Y73825D02*
X12044Y73825D01*
X11993Y73827D01*
X11943Y73833D01*
X11894Y73843D01*
X11845Y73857D01*
X11798Y73874D01*
X11752Y73895D01*
X11708Y73920D01*
X11665Y73948D01*
X11626Y73979D01*
X11589Y74014D01*
X11554Y74051D01*
X11523Y74090D01*
X11495Y74132D01*
X11470Y74177D01*
X11449Y74223D01*
X11432Y74270D01*
X11418Y74319D01*
X11408Y74368D01*
X11402Y74418D01*
X11400Y74469D01*
X11400Y74792D01*
X11402Y74840D01*
X11407Y74888D01*
X11416Y74935D01*
X11429Y74982D01*
X11445Y75027D01*
X11464Y75071D01*
X11486Y75114D01*
X11512Y75155D01*
X11541Y75194D01*
X11572Y75230D01*
X11606Y75264D01*
X11642Y75296D01*
X11681Y75324D01*
X11722Y75350D01*
X11765Y75372D01*
X11809Y75391D01*
X11854Y75407D01*
X11901Y75420D01*
X11948Y75429D01*
X11996Y75434D01*
X12044Y75436D01*
X13011Y75436D01*
X13011Y76725D01*
X11400Y76725D01*
X15871Y69850D02*
X15871Y66950D01*
X15871Y69850D02*
X15065Y69850D01*
X15010Y69848D01*
X14955Y69842D01*
X14901Y69833D01*
X14848Y69820D01*
X14795Y69803D01*
X14744Y69783D01*
X14694Y69760D01*
X14646Y69733D01*
X14600Y69702D01*
X14556Y69669D01*
X14515Y69633D01*
X14476Y69594D01*
X14440Y69553D01*
X14407Y69509D01*
X14376Y69463D01*
X14349Y69415D01*
X14326Y69365D01*
X14306Y69314D01*
X14289Y69261D01*
X14276Y69208D01*
X14267Y69154D01*
X14261Y69099D01*
X14259Y69044D01*
X14261Y68989D01*
X14267Y68934D01*
X14276Y68880D01*
X14289Y68827D01*
X14306Y68774D01*
X14326Y68723D01*
X14349Y68673D01*
X14376Y68625D01*
X14407Y68579D01*
X14440Y68535D01*
X14476Y68494D01*
X14515Y68455D01*
X14556Y68419D01*
X14600Y68386D01*
X14646Y68355D01*
X14694Y68328D01*
X14744Y68305D01*
X14795Y68285D01*
X14848Y68268D01*
X14901Y68255D01*
X14955Y68246D01*
X15010Y68240D01*
X15065Y68238D01*
X15065Y68239D02*
X15871Y68239D01*
X14904Y68239D02*
X14260Y66950D01*
X13011Y68561D02*
X12044Y68561D01*
X11993Y68559D01*
X11943Y68553D01*
X11894Y68543D01*
X11845Y68529D01*
X11798Y68512D01*
X11752Y68491D01*
X11708Y68466D01*
X11665Y68438D01*
X11626Y68407D01*
X11589Y68372D01*
X11554Y68335D01*
X11523Y68296D01*
X11495Y68253D01*
X11470Y68209D01*
X11449Y68163D01*
X11432Y68116D01*
X11418Y68067D01*
X11408Y68018D01*
X11402Y67968D01*
X11400Y67917D01*
X11400Y67756D01*
X11402Y67701D01*
X11408Y67646D01*
X11417Y67592D01*
X11430Y67539D01*
X11447Y67486D01*
X11467Y67435D01*
X11490Y67385D01*
X11517Y67337D01*
X11548Y67291D01*
X11581Y67247D01*
X11617Y67206D01*
X11656Y67167D01*
X11697Y67131D01*
X11741Y67098D01*
X11787Y67067D01*
X11835Y67040D01*
X11885Y67017D01*
X11936Y66997D01*
X11989Y66980D01*
X12042Y66967D01*
X12096Y66958D01*
X12151Y66952D01*
X12206Y66950D01*
X12261Y66952D01*
X12316Y66958D01*
X12370Y66967D01*
X12423Y66980D01*
X12476Y66997D01*
X12527Y67017D01*
X12577Y67040D01*
X12625Y67067D01*
X12671Y67098D01*
X12715Y67131D01*
X12756Y67167D01*
X12795Y67206D01*
X12831Y67247D01*
X12864Y67291D01*
X12895Y67337D01*
X12922Y67385D01*
X12945Y67435D01*
X12965Y67486D01*
X12982Y67539D01*
X12995Y67592D01*
X13004Y67646D01*
X13010Y67701D01*
X13012Y67756D01*
X13011Y67756D02*
X13011Y68561D01*
X13009Y68631D01*
X13003Y68700D01*
X12994Y68770D01*
X12981Y68838D01*
X12964Y68906D01*
X12944Y68973D01*
X12919Y69038D01*
X12892Y69102D01*
X12861Y69165D01*
X12826Y69226D01*
X12789Y69284D01*
X12748Y69341D01*
X12704Y69395D01*
X12658Y69447D01*
X12608Y69497D01*
X12556Y69543D01*
X12502Y69587D01*
X12445Y69628D01*
X12387Y69665D01*
X12326Y69700D01*
X12263Y69731D01*
X12199Y69758D01*
X12134Y69783D01*
X12067Y69803D01*
X11999Y69820D01*
X11931Y69833D01*
X11861Y69842D01*
X11792Y69848D01*
X11722Y69850D01*
X15871Y62975D02*
X15871Y60075D01*
X15871Y62975D02*
X15065Y62975D01*
X15010Y62973D01*
X14955Y62967D01*
X14901Y62958D01*
X14848Y62945D01*
X14795Y62928D01*
X14744Y62908D01*
X14694Y62885D01*
X14646Y62858D01*
X14600Y62827D01*
X14556Y62794D01*
X14515Y62758D01*
X14476Y62719D01*
X14440Y62678D01*
X14407Y62634D01*
X14376Y62588D01*
X14349Y62540D01*
X14326Y62490D01*
X14306Y62439D01*
X14289Y62386D01*
X14276Y62333D01*
X14267Y62279D01*
X14261Y62224D01*
X14259Y62169D01*
X14261Y62114D01*
X14267Y62059D01*
X14276Y62005D01*
X14289Y61952D01*
X14306Y61899D01*
X14326Y61848D01*
X14349Y61798D01*
X14376Y61750D01*
X14407Y61704D01*
X14440Y61660D01*
X14476Y61619D01*
X14515Y61580D01*
X14556Y61544D01*
X14600Y61511D01*
X14646Y61480D01*
X14694Y61453D01*
X14744Y61430D01*
X14795Y61410D01*
X14848Y61393D01*
X14901Y61380D01*
X14955Y61371D01*
X15010Y61365D01*
X15065Y61363D01*
X15065Y61364D02*
X15871Y61364D01*
X14904Y61364D02*
X14260Y60075D01*
X13011Y62653D02*
X13011Y62975D01*
X11400Y62975D01*
X12206Y60075D01*
X15871Y56100D02*
X15871Y53200D01*
X15871Y56100D02*
X15065Y56100D01*
X15010Y56098D01*
X14955Y56092D01*
X14901Y56083D01*
X14848Y56070D01*
X14795Y56053D01*
X14744Y56033D01*
X14694Y56010D01*
X14646Y55983D01*
X14600Y55952D01*
X14556Y55919D01*
X14515Y55883D01*
X14476Y55844D01*
X14440Y55803D01*
X14407Y55759D01*
X14376Y55713D01*
X14349Y55665D01*
X14326Y55615D01*
X14306Y55564D01*
X14289Y55511D01*
X14276Y55458D01*
X14267Y55404D01*
X14261Y55349D01*
X14259Y55294D01*
X14261Y55239D01*
X14267Y55184D01*
X14276Y55130D01*
X14289Y55077D01*
X14306Y55024D01*
X14326Y54973D01*
X14349Y54923D01*
X14376Y54875D01*
X14407Y54829D01*
X14440Y54785D01*
X14476Y54744D01*
X14515Y54705D01*
X14556Y54669D01*
X14600Y54636D01*
X14646Y54605D01*
X14694Y54578D01*
X14744Y54555D01*
X14795Y54535D01*
X14848Y54518D01*
X14901Y54505D01*
X14955Y54496D01*
X15010Y54490D01*
X15065Y54488D01*
X15065Y54489D02*
X15871Y54489D01*
X14904Y54489D02*
X14260Y53200D01*
X13012Y54006D02*
X13010Y54061D01*
X13004Y54116D01*
X12995Y54170D01*
X12982Y54223D01*
X12965Y54276D01*
X12945Y54327D01*
X12922Y54377D01*
X12895Y54425D01*
X12864Y54471D01*
X12831Y54515D01*
X12795Y54556D01*
X12756Y54595D01*
X12715Y54631D01*
X12671Y54664D01*
X12625Y54695D01*
X12577Y54722D01*
X12527Y54745D01*
X12476Y54765D01*
X12423Y54782D01*
X12370Y54795D01*
X12316Y54804D01*
X12261Y54810D01*
X12206Y54812D01*
X12151Y54810D01*
X12096Y54804D01*
X12042Y54795D01*
X11989Y54782D01*
X11936Y54765D01*
X11885Y54745D01*
X11835Y54722D01*
X11787Y54695D01*
X11741Y54664D01*
X11697Y54631D01*
X11656Y54595D01*
X11617Y54556D01*
X11581Y54515D01*
X11548Y54471D01*
X11517Y54425D01*
X11490Y54377D01*
X11467Y54327D01*
X11447Y54276D01*
X11430Y54223D01*
X11417Y54170D01*
X11408Y54116D01*
X11402Y54061D01*
X11400Y54006D01*
X11402Y53951D01*
X11408Y53896D01*
X11417Y53842D01*
X11430Y53789D01*
X11447Y53736D01*
X11467Y53685D01*
X11490Y53635D01*
X11517Y53587D01*
X11548Y53541D01*
X11581Y53497D01*
X11617Y53456D01*
X11656Y53417D01*
X11697Y53381D01*
X11741Y53348D01*
X11787Y53317D01*
X11835Y53290D01*
X11885Y53267D01*
X11936Y53247D01*
X11989Y53230D01*
X12042Y53217D01*
X12096Y53208D01*
X12151Y53202D01*
X12206Y53200D01*
X12261Y53202D01*
X12316Y53208D01*
X12370Y53217D01*
X12423Y53230D01*
X12476Y53247D01*
X12527Y53267D01*
X12577Y53290D01*
X12625Y53317D01*
X12671Y53348D01*
X12715Y53381D01*
X12756Y53417D01*
X12795Y53456D01*
X12831Y53497D01*
X12864Y53541D01*
X12895Y53587D01*
X12922Y53635D01*
X12945Y53685D01*
X12965Y53736D01*
X12982Y53789D01*
X12995Y53842D01*
X13004Y53896D01*
X13010Y53951D01*
X13012Y54006D01*
X12850Y55456D02*
X12848Y55505D01*
X12842Y55554D01*
X12833Y55603D01*
X12820Y55650D01*
X12803Y55697D01*
X12783Y55742D01*
X12760Y55785D01*
X12733Y55827D01*
X12703Y55866D01*
X12670Y55903D01*
X12634Y55937D01*
X12596Y55968D01*
X12556Y55997D01*
X12514Y56022D01*
X12469Y56044D01*
X12424Y56062D01*
X12377Y56077D01*
X12329Y56088D01*
X12280Y56096D01*
X12231Y56100D01*
X12181Y56100D01*
X12132Y56096D01*
X12083Y56088D01*
X12035Y56077D01*
X11988Y56062D01*
X11943Y56044D01*
X11898Y56022D01*
X11856Y55997D01*
X11816Y55968D01*
X11778Y55937D01*
X11742Y55903D01*
X11709Y55866D01*
X11679Y55827D01*
X11652Y55785D01*
X11629Y55742D01*
X11609Y55697D01*
X11592Y55650D01*
X11579Y55603D01*
X11570Y55554D01*
X11564Y55505D01*
X11562Y55456D01*
X11564Y55407D01*
X11570Y55358D01*
X11579Y55309D01*
X11592Y55262D01*
X11609Y55215D01*
X11629Y55170D01*
X11652Y55127D01*
X11679Y55085D01*
X11709Y55046D01*
X11742Y55009D01*
X11778Y54975D01*
X11816Y54944D01*
X11856Y54915D01*
X11898Y54890D01*
X11943Y54868D01*
X11988Y54850D01*
X12035Y54835D01*
X12083Y54824D01*
X12132Y54816D01*
X12181Y54812D01*
X12231Y54812D01*
X12280Y54816D01*
X12329Y54824D01*
X12377Y54835D01*
X12424Y54850D01*
X12469Y54868D01*
X12514Y54890D01*
X12556Y54915D01*
X12596Y54944D01*
X12634Y54975D01*
X12670Y55009D01*
X12703Y55046D01*
X12733Y55085D01*
X12760Y55127D01*
X12783Y55170D01*
X12803Y55215D01*
X12820Y55262D01*
X12833Y55309D01*
X12842Y55358D01*
X12848Y55407D01*
X12850Y55456D01*
X15871Y48600D02*
X15871Y45700D01*
X15871Y48600D02*
X15065Y48600D01*
X15010Y48598D01*
X14955Y48592D01*
X14901Y48583D01*
X14848Y48570D01*
X14795Y48553D01*
X14744Y48533D01*
X14694Y48510D01*
X14646Y48483D01*
X14600Y48452D01*
X14556Y48419D01*
X14515Y48383D01*
X14476Y48344D01*
X14440Y48303D01*
X14407Y48259D01*
X14376Y48213D01*
X14349Y48165D01*
X14326Y48115D01*
X14306Y48064D01*
X14289Y48011D01*
X14276Y47958D01*
X14267Y47904D01*
X14261Y47849D01*
X14259Y47794D01*
X14261Y47739D01*
X14267Y47684D01*
X14276Y47630D01*
X14289Y47577D01*
X14306Y47524D01*
X14326Y47473D01*
X14349Y47423D01*
X14376Y47375D01*
X14407Y47329D01*
X14440Y47285D01*
X14476Y47244D01*
X14515Y47205D01*
X14556Y47169D01*
X14600Y47136D01*
X14646Y47105D01*
X14694Y47078D01*
X14744Y47055D01*
X14795Y47035D01*
X14848Y47018D01*
X14901Y47005D01*
X14955Y46996D01*
X15010Y46990D01*
X15065Y46988D01*
X15065Y46989D02*
X15871Y46989D01*
X14904Y46989D02*
X14260Y45700D01*
X12367Y46989D02*
X11400Y46989D01*
X12367Y46989D02*
X12415Y46991D01*
X12463Y46996D01*
X12510Y47005D01*
X12557Y47018D01*
X12602Y47034D01*
X12646Y47053D01*
X12689Y47075D01*
X12730Y47101D01*
X12769Y47130D01*
X12805Y47161D01*
X12839Y47195D01*
X12871Y47231D01*
X12899Y47270D01*
X12925Y47311D01*
X12947Y47354D01*
X12966Y47398D01*
X12982Y47443D01*
X12995Y47490D01*
X13004Y47537D01*
X13009Y47585D01*
X13011Y47633D01*
X13011Y47794D01*
X13012Y47794D02*
X13010Y47849D01*
X13004Y47904D01*
X12995Y47958D01*
X12982Y48011D01*
X12965Y48064D01*
X12945Y48115D01*
X12922Y48165D01*
X12895Y48213D01*
X12864Y48259D01*
X12831Y48303D01*
X12795Y48344D01*
X12756Y48383D01*
X12715Y48419D01*
X12671Y48452D01*
X12625Y48483D01*
X12577Y48510D01*
X12527Y48533D01*
X12476Y48553D01*
X12423Y48570D01*
X12370Y48583D01*
X12316Y48592D01*
X12261Y48598D01*
X12206Y48600D01*
X12151Y48598D01*
X12096Y48592D01*
X12042Y48583D01*
X11989Y48570D01*
X11936Y48553D01*
X11885Y48533D01*
X11835Y48510D01*
X11787Y48483D01*
X11741Y48452D01*
X11697Y48419D01*
X11656Y48383D01*
X11617Y48344D01*
X11581Y48303D01*
X11548Y48259D01*
X11517Y48213D01*
X11490Y48165D01*
X11467Y48115D01*
X11447Y48064D01*
X11430Y48011D01*
X11417Y47958D01*
X11408Y47904D01*
X11402Y47849D01*
X11400Y47794D01*
X11400Y46989D01*
X11402Y46919D01*
X11408Y46850D01*
X11417Y46780D01*
X11430Y46712D01*
X11447Y46644D01*
X11467Y46577D01*
X11492Y46512D01*
X11519Y46448D01*
X11550Y46385D01*
X11585Y46324D01*
X11622Y46266D01*
X11663Y46209D01*
X11707Y46155D01*
X11753Y46103D01*
X11803Y46053D01*
X11855Y46007D01*
X11909Y45963D01*
X11966Y45922D01*
X12024Y45885D01*
X12085Y45850D01*
X12148Y45819D01*
X12212Y45792D01*
X12277Y45767D01*
X12344Y45747D01*
X12412Y45730D01*
X12480Y45717D01*
X12550Y45708D01*
X12619Y45702D01*
X12689Y45700D01*
D12*
X57500Y143750D02*
X57500Y206750D01*
X152000Y206750D01*
X152000Y143750D01*
X57500Y143750D01*
D13*
X128366Y146742D02*
X148051Y146742D01*
D14*
X148051Y155561D01*
X148051Y165404D01*
X140177Y165404D01*
X140177Y175246D01*
X148051Y175246D01*
X148051Y185089D01*
X140177Y185089D01*
X140177Y194931D01*
X148051Y194931D01*
X148051Y203750D01*
X128366Y203750D01*
X128366Y155561D02*
X148051Y155561D01*
D10*
X56800Y143900D02*
X54706Y143900D01*
X54651Y143902D01*
X54596Y143908D01*
X54542Y143917D01*
X54489Y143930D01*
X54436Y143947D01*
X54385Y143967D01*
X54335Y143990D01*
X54287Y144017D01*
X54241Y144048D01*
X54197Y144081D01*
X54156Y144117D01*
X54117Y144156D01*
X54081Y144197D01*
X54048Y144241D01*
X54017Y144287D01*
X53990Y144335D01*
X53967Y144385D01*
X53947Y144436D01*
X53930Y144489D01*
X53917Y144542D01*
X53908Y144596D01*
X53902Y144651D01*
X53900Y144706D01*
X53902Y144761D01*
X53908Y144816D01*
X53917Y144870D01*
X53930Y144923D01*
X53947Y144976D01*
X53967Y145027D01*
X53990Y145077D01*
X54017Y145125D01*
X54048Y145171D01*
X54081Y145215D01*
X54117Y145256D01*
X54156Y145295D01*
X54197Y145331D01*
X54241Y145364D01*
X54287Y145395D01*
X54335Y145422D01*
X54385Y145445D01*
X54436Y145465D01*
X54489Y145482D01*
X54542Y145495D01*
X54596Y145504D01*
X54651Y145510D01*
X54706Y145512D01*
X54706Y145511D02*
X56800Y145511D01*
X56156Y146876D02*
X56800Y147682D01*
X53900Y147682D01*
X53900Y148487D02*
X53900Y146876D01*
D15*
X143750Y82750D02*
X143750Y76750D01*
X141250Y76750D01*
X141250Y71250D01*
X143750Y71250D01*
X143750Y64750D01*
X138250Y69750D02*
X138252Y69794D01*
X138258Y69838D01*
X138268Y69881D01*
X138281Y69923D01*
X138298Y69964D01*
X138319Y70003D01*
X138343Y70040D01*
X138370Y70075D01*
X138400Y70107D01*
X138433Y70137D01*
X138469Y70163D01*
X138506Y70187D01*
X138546Y70206D01*
X138587Y70223D01*
X138630Y70235D01*
X138673Y70244D01*
X138717Y70249D01*
X138761Y70250D01*
X138805Y70247D01*
X138849Y70240D01*
X138892Y70229D01*
X138934Y70215D01*
X138974Y70197D01*
X139013Y70175D01*
X139049Y70151D01*
X139083Y70123D01*
X139115Y70092D01*
X139144Y70058D01*
X139170Y70022D01*
X139192Y69984D01*
X139211Y69944D01*
X139226Y69902D01*
X139238Y69860D01*
X139246Y69816D01*
X139250Y69772D01*
X139250Y69728D01*
X139246Y69684D01*
X139238Y69640D01*
X139226Y69598D01*
X139211Y69556D01*
X139192Y69516D01*
X139170Y69478D01*
X139144Y69442D01*
X139115Y69408D01*
X139083Y69377D01*
X139049Y69349D01*
X139013Y69325D01*
X138974Y69303D01*
X138934Y69285D01*
X138892Y69271D01*
X138849Y69260D01*
X138805Y69253D01*
X138761Y69250D01*
X138717Y69251D01*
X138673Y69256D01*
X138630Y69265D01*
X138587Y69277D01*
X138546Y69294D01*
X138506Y69313D01*
X138469Y69337D01*
X138433Y69363D01*
X138400Y69393D01*
X138370Y69425D01*
X138343Y69460D01*
X138319Y69497D01*
X138298Y69536D01*
X138281Y69577D01*
X138268Y69619D01*
X138258Y69662D01*
X138252Y69706D01*
X138250Y69750D01*
D10*
X145987Y63600D02*
X145987Y61506D01*
X145988Y61506D02*
X145986Y61451D01*
X145980Y61396D01*
X145971Y61342D01*
X145958Y61289D01*
X145941Y61236D01*
X145921Y61185D01*
X145898Y61135D01*
X145871Y61087D01*
X145840Y61041D01*
X145807Y60997D01*
X145771Y60956D01*
X145732Y60917D01*
X145691Y60881D01*
X145647Y60848D01*
X145601Y60817D01*
X145553Y60790D01*
X145503Y60767D01*
X145452Y60747D01*
X145399Y60730D01*
X145346Y60717D01*
X145292Y60708D01*
X145237Y60702D01*
X145182Y60700D01*
X145127Y60702D01*
X145072Y60708D01*
X145018Y60717D01*
X144965Y60730D01*
X144912Y60747D01*
X144861Y60767D01*
X144811Y60790D01*
X144763Y60817D01*
X144717Y60848D01*
X144673Y60881D01*
X144632Y60917D01*
X144593Y60956D01*
X144557Y60997D01*
X144524Y61041D01*
X144493Y61087D01*
X144466Y61135D01*
X144443Y61185D01*
X144423Y61236D01*
X144406Y61289D01*
X144393Y61342D01*
X144384Y61396D01*
X144378Y61451D01*
X144376Y61506D01*
X144376Y63600D01*
X143011Y60700D02*
X142206Y60700D01*
X142151Y60702D01*
X142096Y60708D01*
X142042Y60717D01*
X141989Y60730D01*
X141936Y60747D01*
X141885Y60767D01*
X141835Y60790D01*
X141787Y60817D01*
X141741Y60848D01*
X141697Y60881D01*
X141656Y60917D01*
X141617Y60956D01*
X141581Y60997D01*
X141548Y61041D01*
X141517Y61087D01*
X141490Y61135D01*
X141467Y61185D01*
X141447Y61236D01*
X141430Y61289D01*
X141417Y61342D01*
X141408Y61396D01*
X141402Y61451D01*
X141400Y61506D01*
X141402Y61561D01*
X141408Y61616D01*
X141417Y61670D01*
X141430Y61723D01*
X141447Y61776D01*
X141467Y61827D01*
X141490Y61877D01*
X141517Y61925D01*
X141548Y61971D01*
X141581Y62015D01*
X141617Y62056D01*
X141656Y62095D01*
X141697Y62131D01*
X141741Y62164D01*
X141787Y62195D01*
X141835Y62222D01*
X141885Y62245D01*
X141936Y62265D01*
X141989Y62282D01*
X142042Y62295D01*
X142096Y62304D01*
X142151Y62310D01*
X142206Y62312D01*
X142044Y63600D02*
X143011Y63600D01*
X142044Y63600D02*
X141995Y63598D01*
X141946Y63592D01*
X141897Y63583D01*
X141850Y63570D01*
X141803Y63553D01*
X141758Y63533D01*
X141715Y63510D01*
X141673Y63483D01*
X141634Y63453D01*
X141597Y63420D01*
X141563Y63384D01*
X141532Y63346D01*
X141503Y63306D01*
X141478Y63264D01*
X141456Y63219D01*
X141438Y63174D01*
X141423Y63127D01*
X141412Y63079D01*
X141404Y63030D01*
X141400Y62981D01*
X141400Y62931D01*
X141404Y62882D01*
X141412Y62833D01*
X141423Y62785D01*
X141438Y62738D01*
X141456Y62693D01*
X141478Y62648D01*
X141503Y62606D01*
X141532Y62566D01*
X141563Y62528D01*
X141597Y62492D01*
X141634Y62459D01*
X141673Y62429D01*
X141715Y62402D01*
X141758Y62379D01*
X141803Y62359D01*
X141850Y62342D01*
X141897Y62329D01*
X141946Y62320D01*
X141995Y62314D01*
X142044Y62312D01*
X142044Y62311D02*
X142689Y62311D01*
M02*
