G04 EAGLE Gerber X2 export*
G75*
%MOIN*%
%FSLAX25Y25*%
%LPD*%
%AMOC8*
5,1,8,0,0,1.08239X$1,22.5*%
G01*
%ADD10C,0.108000*%
%ADD11C,0.084000*%
%ADD12C,0.094000*%
%ADD13C,0.108000*%
%ADD14C,0.074000*%
%ADD15C,0.049339*%
%ADD16C,0.037780*%
%ADD17C,0.041465*%
%ADD18C,0.051307*%


D10*
X26250Y10450D02*
X16250Y10450D01*
X16250Y97050D02*
X26250Y97050D01*
D11*
X118750Y236250D03*
X108750Y236250D03*
X98750Y236250D03*
X88750Y236250D03*
D12*
X101250Y116250D03*
X111250Y116250D03*
X58386Y49390D03*
D13*
X50512Y73012D03*
D12*
X58386Y96634D03*
D13*
X106417Y49390D03*
D14*
X106417Y96634D03*
D11*
X129850Y212200D03*
X147650Y212200D03*
X129850Y237800D03*
X147650Y237800D03*
X129850Y112200D03*
X147650Y112200D03*
X129850Y137800D03*
X147650Y137800D03*
D13*
X51949Y115876D03*
X32264Y115876D03*
D12*
X11791Y231624D03*
X72421Y231624D03*
D13*
X51875Y18750D03*
X71875Y18750D03*
X91875Y18750D03*
X111875Y18750D03*
X131875Y18750D03*
D15*
X118750Y61250D03*
X42500Y43750D03*
X147500Y41250D03*
D16*
X83750Y120000D03*
D17*
X63750Y225000D03*
X48750Y231250D03*
D18*
X133750Y55000D03*
X16250Y191250D03*
X21250Y140000D03*
D16*
X125625Y125000D03*
X57500Y138750D03*
D17*
X40000Y207812D03*
X82500Y230000D03*
X33750Y173750D03*
X118750Y224252D03*
X92500Y220000D03*
D18*
X6250Y127500D03*
D16*
X95000Y216250D03*
X22500Y168750D03*
M02*
