G04 EAGLE Gerber X2 export*
G75*
%MOIN*%
%FSLAX25Y25*%
%LPD*%
%AMOC8*
5,1,8,0,0,1.08239X$1,22.5*%
G01*
%ADD10C,0.100000*%
%ADD11C,0.076000*%
%ADD12C,0.086000*%
%ADD13C,0.100000*%
%ADD14C,0.066000*%
%ADD15C,0.041339*%
%ADD16C,0.024000*%
%ADD17C,0.032000*%
%ADD18C,0.029780*%
%ADD19C,0.033465*%
%ADD20C,0.043307*%
%ADD21C,0.040000*%


D10*
X26250Y10450D02*
X16250Y10450D01*
X16250Y97050D02*
X26250Y97050D01*
D11*
X118750Y236250D03*
X108750Y236250D03*
X98750Y236250D03*
X88750Y236250D03*
D12*
X101250Y116250D03*
X111250Y116250D03*
X58386Y49390D03*
D13*
X50512Y73012D03*
D12*
X58386Y96634D03*
D13*
X106417Y49390D03*
D14*
X106417Y96634D03*
D11*
X129850Y212200D03*
X147650Y212200D03*
X129850Y237800D03*
X147650Y237800D03*
X129850Y112200D03*
X147650Y112200D03*
X129850Y137800D03*
X147650Y137800D03*
D13*
X51949Y115876D03*
X32264Y115876D03*
D12*
X11791Y231624D03*
X72421Y231624D03*
D13*
X51875Y18750D03*
X71875Y18750D03*
X91875Y18750D03*
X111875Y18750D03*
X131875Y18750D03*
D15*
X118750Y61250D03*
D16*
X118750Y52500D01*
X108750Y40000D01*
X46250Y40000D01*
X42500Y43750D01*
D15*
X42500Y43750D03*
D17*
X147650Y105000D02*
X147650Y112200D01*
X147650Y105000D02*
X147650Y42650D01*
X147500Y41250D01*
D15*
X147500Y41250D03*
D18*
X83750Y120000D03*
D17*
X83750Y115876D02*
X51949Y115876D01*
D16*
X83750Y115876D02*
X84124Y115876D01*
D17*
X95000Y105000D02*
X147650Y105000D01*
X95000Y105000D02*
X84124Y115876D01*
X147650Y232650D02*
X147650Y237800D01*
X143750Y228750D02*
X92500Y228750D01*
X88750Y232500D01*
X88750Y236250D01*
X143750Y228750D02*
X147650Y232650D01*
D19*
X63750Y225000D03*
D17*
X57500Y231250D01*
X48750Y231250D01*
D19*
X48750Y231250D03*
D16*
X83750Y120000D02*
X83750Y115876D01*
D20*
X133750Y55000D03*
D21*
X93366Y96634D01*
X58386Y96634D01*
D20*
X16250Y191250D03*
D21*
X16250Y145000D01*
X21250Y140000D01*
D20*
X21250Y140000D03*
D18*
X125625Y125000D03*
D16*
X121250Y128750D01*
X65000Y128750D02*
X57500Y136250D01*
X57500Y138750D01*
D18*
X57500Y138750D03*
D16*
X65000Y128750D02*
X121250Y128750D01*
D19*
X40000Y207812D03*
D17*
X76250Y207812D01*
X82500Y213750D01*
D19*
X82500Y230000D03*
X33750Y173750D03*
D17*
X33750Y202500D01*
X40000Y207812D01*
X82500Y225000D02*
X82500Y230000D01*
X82500Y225000D02*
X82500Y213750D01*
D19*
X118750Y224252D03*
D17*
X83248Y224252D01*
X82500Y225000D01*
D19*
X92500Y220000D03*
D16*
X122050Y220000D01*
X129850Y212200D01*
D21*
X58386Y49390D02*
X44360Y49390D01*
X6250Y87500D01*
X6250Y127500D01*
D20*
X6250Y127500D03*
D18*
X95000Y216250D03*
X22500Y168750D03*
D16*
X92500Y216250D02*
X95000Y216250D01*
X92500Y216250D02*
X77500Y201250D01*
X47500Y201250D01*
X40000Y193750D01*
X40000Y172500D01*
X36250Y168750D01*
X22500Y168750D01*
M02*
