G04 EAGLE Gerber X2 export*
G75*
%MOIN*%
%FSLAX25Y25*%
%LPD*%
%AMOC8*
5,1,8,0,0,1.08239X$1,22.5*%
G01*
%ADD10R,0.059181X0.067055*%
%ADD11R,0.078866X0.070992*%
%ADD12R,0.102488X0.070992*%
%ADD13R,0.063118X0.063118*%
%ADD14C,0.108000*%
%ADD15R,0.087000X0.067000*%
%ADD16R,0.087000X0.158000*%
%ADD17C,0.084000*%
%ADD18C,0.094000*%
%ADD19R,0.047370X0.063118*%
%ADD20R,0.133984X0.078866*%
%ADD21R,0.067055X0.059181*%
%ADD22C,0.108000*%
%ADD23C,0.074000*%
%ADD24R,0.058000X0.133000*%
%ADD25R,0.088000X0.058000*%
%ADD26R,0.036000X0.094614*%
%ADD27C,0.049339*%
%ADD28C,0.037780*%
%ADD29C,0.041465*%
%ADD30C,0.051307*%


D10*
X24990Y40000D03*
X17510Y40000D03*
D11*
X40000Y224262D03*
X40000Y213238D03*
D10*
X106240Y70000D03*
X98760Y70000D03*
D12*
X42500Y167844D03*
X42500Y179656D03*
D10*
X106240Y84375D03*
X98760Y84375D03*
X140010Y47500D03*
X147490Y47500D03*
X140010Y55000D03*
X147490Y55000D03*
D11*
X48750Y224262D03*
X48750Y213238D03*
D13*
X21230Y133750D03*
X6270Y133750D03*
D14*
X16250Y10450D02*
X26250Y10450D01*
X26250Y97050D02*
X16250Y97050D01*
D15*
X31150Y221400D03*
X31150Y212400D03*
X31150Y203400D03*
D16*
X6350Y212500D03*
D17*
X118750Y236250D03*
X108750Y236250D03*
X98750Y236250D03*
X88750Y236250D03*
D18*
X101250Y116250D03*
X111250Y116250D03*
D19*
X13750Y145669D03*
X17490Y154331D03*
X10010Y154331D03*
X144375Y87544D03*
X148115Y96206D03*
X140635Y96206D03*
D10*
X98760Y77500D03*
X106240Y77500D03*
D20*
X87500Y84774D03*
X87500Y62726D03*
D21*
X76875Y125010D03*
X76875Y132490D03*
X70000Y125010D03*
X70000Y132490D03*
X63125Y132490D03*
X63125Y125010D03*
X83750Y132490D03*
X83750Y125010D03*
X147500Y70010D03*
X147500Y77490D03*
D10*
X10010Y161250D03*
X17490Y161250D03*
D21*
X102500Y125010D03*
X102500Y132490D03*
X111250Y125010D03*
X111250Y132490D03*
D10*
X71240Y217500D03*
X63760Y217500D03*
X98760Y62500D03*
X106240Y62500D03*
D21*
X79375Y224365D03*
X79375Y216885D03*
X120000Y124990D03*
X120000Y117510D03*
X86875Y224365D03*
X86875Y216885D03*
D10*
X17490Y168750D03*
X10010Y168750D03*
D21*
X90625Y132490D03*
X90625Y125010D03*
D10*
X140635Y103750D03*
X148115Y103750D03*
X24990Y82500D03*
X17510Y82500D03*
X17510Y75625D03*
X24990Y75625D03*
X24990Y68750D03*
X17510Y68750D03*
X17510Y61875D03*
X24990Y61875D03*
X24990Y55000D03*
X17510Y55000D03*
X17510Y47500D03*
X24990Y47500D03*
D18*
X58386Y49390D03*
D22*
X50512Y73012D03*
D18*
X58386Y96634D03*
D22*
X106417Y49390D03*
D23*
X106417Y96634D03*
D17*
X129850Y212200D03*
X147650Y212200D03*
X129850Y237800D03*
X147650Y237800D03*
X129850Y112200D03*
X147650Y112200D03*
X129850Y137800D03*
X147650Y137800D03*
D22*
X51949Y115876D03*
X32264Y115876D03*
D18*
X11791Y231624D03*
X72421Y231624D03*
D24*
X63406Y143750D03*
X71280Y143750D03*
X79154Y143750D03*
X87028Y143750D03*
X94902Y143750D03*
X102776Y143750D03*
X110650Y143750D03*
X118524Y143750D03*
X63406Y206742D03*
X71280Y206742D03*
X79154Y206742D03*
X87028Y206742D03*
X94902Y206742D03*
X102776Y206742D03*
X110650Y206742D03*
X118524Y206742D03*
D25*
X55531Y155561D03*
X55531Y163435D03*
X55531Y171309D03*
X55531Y179183D03*
X55531Y187057D03*
X55531Y194931D03*
D26*
X138750Y63514D03*
X133750Y63514D03*
X128750Y63514D03*
X123750Y63514D03*
X123750Y83986D03*
X128750Y83986D03*
X133750Y83986D03*
X138750Y83986D03*
D22*
X51875Y18750D03*
X71875Y18750D03*
X91875Y18750D03*
X111875Y18750D03*
X131875Y18750D03*
D27*
X118750Y61250D03*
X42500Y43750D03*
X147500Y41250D03*
D28*
X83750Y120000D03*
D29*
X63750Y225000D03*
X48750Y231250D03*
D30*
X133750Y55000D03*
X16250Y191250D03*
X21250Y140000D03*
D28*
X125625Y125000D03*
X57500Y138750D03*
D29*
X40000Y207812D03*
X82500Y230000D03*
X33750Y173750D03*
X118750Y224252D03*
X92500Y220000D03*
D30*
X6250Y127500D03*
D28*
X95000Y216250D03*
X22500Y168750D03*
M02*
