G04 EAGLE Gerber X2 export*
G75*
%MOIN*%
%FSLAX25Y25*%
%LPD*%
%AMOC8*
5,1,8,0,0,1.08239X$1,22.5*%
G01*
%ADD10R,0.051181X0.059055*%
%ADD11R,0.070866X0.062992*%
%ADD12R,0.094488X0.062992*%
%ADD13R,0.055118X0.055118*%
%ADD14R,0.079000X0.059000*%
%ADD15R,0.079000X0.150000*%
%ADD16R,0.039370X0.055118*%
%ADD17R,0.125984X0.070866*%
%ADD18R,0.059055X0.051181*%
%ADD19R,0.050000X0.125000*%
%ADD20R,0.080000X0.050000*%
%ADD21R,0.028000X0.086614*%


D10*
X24990Y40000D03*
X17510Y40000D03*
D11*
X40000Y224262D03*
X40000Y213238D03*
D10*
X106240Y70000D03*
X98760Y70000D03*
D12*
X42500Y167844D03*
X42500Y179656D03*
D10*
X106240Y84375D03*
X98760Y84375D03*
X140010Y47500D03*
X147490Y47500D03*
X140010Y55000D03*
X147490Y55000D03*
D11*
X48750Y224262D03*
X48750Y213238D03*
D13*
X21230Y133750D03*
X6270Y133750D03*
D14*
X31150Y221400D03*
X31150Y212400D03*
X31150Y203400D03*
D15*
X6350Y212500D03*
D16*
X13750Y145669D03*
X17490Y154331D03*
X10010Y154331D03*
X144375Y87544D03*
X148115Y96206D03*
X140635Y96206D03*
D10*
X98760Y77500D03*
X106240Y77500D03*
D17*
X87500Y84774D03*
X87500Y62726D03*
D18*
X76875Y125010D03*
X76875Y132490D03*
X70000Y125010D03*
X70000Y132490D03*
X63125Y132490D03*
X63125Y125010D03*
X83750Y132490D03*
X83750Y125010D03*
X147500Y70010D03*
X147500Y77490D03*
D10*
X10010Y161250D03*
X17490Y161250D03*
D18*
X102500Y125010D03*
X102500Y132490D03*
X111250Y125010D03*
X111250Y132490D03*
D10*
X71240Y217500D03*
X63760Y217500D03*
X98760Y62500D03*
X106240Y62500D03*
D18*
X79375Y224365D03*
X79375Y216885D03*
X120000Y124990D03*
X120000Y117510D03*
X86875Y224365D03*
X86875Y216885D03*
D10*
X17490Y168750D03*
X10010Y168750D03*
D18*
X90625Y132490D03*
X90625Y125010D03*
D10*
X140635Y103750D03*
X148115Y103750D03*
X24990Y82500D03*
X17510Y82500D03*
X17510Y75625D03*
X24990Y75625D03*
X24990Y68750D03*
X17510Y68750D03*
X17510Y61875D03*
X24990Y61875D03*
X24990Y55000D03*
X17510Y55000D03*
X17510Y47500D03*
X24990Y47500D03*
D19*
X63406Y143750D03*
X71280Y143750D03*
X79154Y143750D03*
X87028Y143750D03*
X94902Y143750D03*
X102776Y143750D03*
X110650Y143750D03*
X118524Y143750D03*
X63406Y206742D03*
X71280Y206742D03*
X79154Y206742D03*
X87028Y206742D03*
X94902Y206742D03*
X102776Y206742D03*
X110650Y206742D03*
X118524Y206742D03*
D20*
X55531Y155561D03*
X55531Y163435D03*
X55531Y171309D03*
X55531Y179183D03*
X55531Y187057D03*
X55531Y194931D03*
D21*
X138750Y63514D03*
X133750Y63514D03*
X128750Y63514D03*
X123750Y63514D03*
X123750Y83986D03*
X128750Y83986D03*
X133750Y83986D03*
X138750Y83986D03*
M02*
